G04 #@! TF.FileFunction,Soldermask,Bot*
%FSLAX46Y46*%
G04 Gerber Fmt 4.6, Leading zero omitted, Abs format (unit mm)*
G04 Created by KiCad (PCBNEW 4.0.7) date 09/10/18 23:45:49*
%MOMM*%
%LPD*%
G01*
G04 APERTURE LIST*
%ADD10C,0.100000*%
%ADD11C,3.800000*%
%ADD12C,1.400000*%
%ADD13O,1.400000X1.400000*%
%ADD14C,1.250000*%
%ADD15O,1.200000X2.500000*%
%ADD16R,1.600000X2.400000*%
%ADD17O,1.600000X2.400000*%
%ADD18C,2.250000*%
%ADD19C,1.770000*%
%ADD20C,0.600000*%
%ADD21C,2.250000*%
%ADD22C,1.780000*%
%ADD23C,3.987800*%
%ADD24C,1.680000*%
%ADD25C,1.524000*%
%ADD26C,2.000000*%
%ADD27C,3.500000*%
%ADD28O,3.500000X3.500000*%
%ADD29R,1.800000X1.800000*%
%ADD30O,1.800000X1.800000*%
%ADD31C,1.600000*%
%ADD32C,1.500000*%
%ADD33R,1.200000X1.700000*%
%ADD34O,1.200000X1.700000*%
%ADD35R,1.600000X1.600000*%
%ADD36O,1.600000X1.600000*%
%ADD37R,1.700000X1.700000*%
%ADD38O,1.700000X1.700000*%
%ADD39C,3.048000*%
%ADD40C,4.000000*%
%ADD41C,1.800000*%
%ADD42O,1.500000X1.500000*%
%ADD43C,1.524000*%
G04 APERTURE END LIST*
D10*
D11*
X243500000Y-111500000D03*
X202500000Y-39000000D03*
X96500000Y-54000000D03*
X39500000Y-40500000D03*
X205500000Y-92500000D03*
X91500000Y-92500000D03*
X53500000Y-111500000D03*
X91500000Y-130500000D03*
X205500000Y-130500000D03*
D12*
X66000000Y-45000000D03*
D13*
X66000000Y-52620000D03*
D12*
X79000000Y-45000000D03*
D13*
X79000000Y-52620000D03*
D14*
X70900000Y-42300000D03*
X71700000Y-41100000D03*
X72500000Y-42300000D03*
X73300000Y-41100000D03*
X74100000Y-42300000D03*
D15*
X68850000Y-37250000D03*
X76150000Y-37250000D03*
D16*
X172760000Y-40260000D03*
D17*
X124500000Y-55500000D03*
X170220000Y-40260000D03*
X127040000Y-55500000D03*
X167680000Y-40260000D03*
X129580000Y-55500000D03*
X165140000Y-40260000D03*
X132120000Y-55500000D03*
X162600000Y-40260000D03*
X134660000Y-55500000D03*
X160060000Y-40260000D03*
X137200000Y-55500000D03*
X157520000Y-40260000D03*
X139740000Y-55500000D03*
X154980000Y-40260000D03*
X142280000Y-55500000D03*
X152440000Y-40260000D03*
X144820000Y-55500000D03*
X149900000Y-40260000D03*
X147360000Y-55500000D03*
X147360000Y-40260000D03*
X149900000Y-55500000D03*
X144820000Y-40260000D03*
X152440000Y-55500000D03*
X142280000Y-40260000D03*
X154980000Y-55500000D03*
X139740000Y-40260000D03*
X157520000Y-55500000D03*
X137200000Y-40260000D03*
X160060000Y-55500000D03*
X134660000Y-40260000D03*
X162600000Y-55500000D03*
X132120000Y-40260000D03*
X165140000Y-55500000D03*
X129580000Y-40260000D03*
X167680000Y-55500000D03*
X127040000Y-40260000D03*
X170220000Y-55500000D03*
X124500000Y-40260000D03*
X172760000Y-55500000D03*
D18*
X40202635Y-80483419D02*
X41487365Y-79056581D01*
X46499771Y-78499294D02*
X46540229Y-77920706D01*
D19*
X41500000Y-79000000D03*
X40190000Y-80460000D03*
X46500000Y-78500000D03*
D20*
X38780000Y-87200000D03*
D19*
X46540000Y-77920000D03*
D21*
X49000000Y-79200000D03*
X44000000Y-77100000D03*
D22*
X49500000Y-83000000D03*
D19*
X44000000Y-77100000D03*
X49000000Y-79200000D03*
D22*
X38500000Y-83000000D03*
D23*
X44000000Y-83000000D03*
D24*
X49080000Y-83000000D03*
X38920000Y-83000000D03*
D25*
X49001226Y-79099499D02*
X46598774Y-78500501D01*
D18*
X249202635Y-80483419D02*
X250487365Y-79056581D01*
X255499771Y-78499294D02*
X255540229Y-77920706D01*
D19*
X250500000Y-79000000D03*
X249190000Y-80460000D03*
X255500000Y-78500000D03*
D20*
X247780000Y-87200000D03*
D19*
X255540000Y-77920000D03*
D21*
X258000000Y-79200000D03*
X253000000Y-77100000D03*
D22*
X258500000Y-83000000D03*
D19*
X253000000Y-77100000D03*
X258000000Y-79200000D03*
D22*
X247500000Y-83000000D03*
D23*
X253000000Y-83000000D03*
D24*
X258080000Y-83000000D03*
X247920000Y-83000000D03*
D25*
X258001226Y-79099499D02*
X255598774Y-78500501D01*
D18*
X230202635Y-80483419D02*
X231487365Y-79056581D01*
X236499771Y-78499294D02*
X236540229Y-77920706D01*
D19*
X231500000Y-79000000D03*
X230190000Y-80460000D03*
X236500000Y-78500000D03*
D20*
X228780000Y-87200000D03*
D19*
X236540000Y-77920000D03*
D21*
X239000000Y-79200000D03*
X234000000Y-77100000D03*
D22*
X239500000Y-83000000D03*
D19*
X234000000Y-77100000D03*
X239000000Y-79200000D03*
D22*
X228500000Y-83000000D03*
D23*
X234000000Y-83000000D03*
D24*
X239080000Y-83000000D03*
X228920000Y-83000000D03*
D25*
X239001226Y-79099499D02*
X236598774Y-78500501D01*
D18*
X211202635Y-80483419D02*
X212487365Y-79056581D01*
X217499771Y-78499294D02*
X217540229Y-77920706D01*
D19*
X212500000Y-79000000D03*
X211190000Y-80460000D03*
X217500000Y-78500000D03*
D20*
X209780000Y-87200000D03*
D19*
X217540000Y-77920000D03*
D21*
X220000000Y-79200000D03*
X215000000Y-77100000D03*
D22*
X220500000Y-83000000D03*
D19*
X215000000Y-77100000D03*
X220000000Y-79200000D03*
D22*
X209500000Y-83000000D03*
D23*
X215000000Y-83000000D03*
D24*
X220080000Y-83000000D03*
X209920000Y-83000000D03*
D25*
X220001226Y-79099499D02*
X217598774Y-78500501D01*
D18*
X192202635Y-80483419D02*
X193487365Y-79056581D01*
X198499771Y-78499294D02*
X198540229Y-77920706D01*
D19*
X193500000Y-79000000D03*
X192190000Y-80460000D03*
X198500000Y-78500000D03*
D20*
X190780000Y-87200000D03*
D19*
X198540000Y-77920000D03*
D21*
X201000000Y-79200000D03*
X196000000Y-77100000D03*
D22*
X201500000Y-83000000D03*
D19*
X196000000Y-77100000D03*
X201000000Y-79200000D03*
D22*
X190500000Y-83000000D03*
D23*
X196000000Y-83000000D03*
D24*
X201080000Y-83000000D03*
X190920000Y-83000000D03*
D25*
X201001226Y-79099499D02*
X198598774Y-78500501D01*
D18*
X173202635Y-80483419D02*
X174487365Y-79056581D01*
X179499771Y-78499294D02*
X179540229Y-77920706D01*
D19*
X174500000Y-79000000D03*
X173190000Y-80460000D03*
X179500000Y-78500000D03*
D20*
X171780000Y-87200000D03*
D19*
X179540000Y-77920000D03*
D21*
X182000000Y-79200000D03*
X177000000Y-77100000D03*
D22*
X182500000Y-83000000D03*
D19*
X177000000Y-77100000D03*
X182000000Y-79200000D03*
D22*
X171500000Y-83000000D03*
D23*
X177000000Y-83000000D03*
D24*
X182080000Y-83000000D03*
X171920000Y-83000000D03*
D25*
X182001226Y-79099499D02*
X179598774Y-78500501D01*
D18*
X154202635Y-80483419D02*
X155487365Y-79056581D01*
X160499771Y-78499294D02*
X160540229Y-77920706D01*
D19*
X155500000Y-79000000D03*
X154190000Y-80460000D03*
X160500000Y-78500000D03*
D20*
X152780000Y-87200000D03*
D19*
X160540000Y-77920000D03*
D21*
X163000000Y-79200000D03*
X158000000Y-77100000D03*
D22*
X163500000Y-83000000D03*
D19*
X158000000Y-77100000D03*
X163000000Y-79200000D03*
D22*
X152500000Y-83000000D03*
D23*
X158000000Y-83000000D03*
D24*
X163080000Y-83000000D03*
X152920000Y-83000000D03*
D25*
X163001226Y-79099499D02*
X160598774Y-78500501D01*
D18*
X135202635Y-80483419D02*
X136487365Y-79056581D01*
X141499771Y-78499294D02*
X141540229Y-77920706D01*
D19*
X136500000Y-79000000D03*
X135190000Y-80460000D03*
X141500000Y-78500000D03*
D20*
X133780000Y-87200000D03*
D19*
X141540000Y-77920000D03*
D21*
X144000000Y-79200000D03*
X139000000Y-77100000D03*
D22*
X144500000Y-83000000D03*
D19*
X139000000Y-77100000D03*
X144000000Y-79200000D03*
D22*
X133500000Y-83000000D03*
D23*
X139000000Y-83000000D03*
D24*
X144080000Y-83000000D03*
X133920000Y-83000000D03*
D25*
X144001226Y-79099499D02*
X141598774Y-78500501D01*
D18*
X116202635Y-80483419D02*
X117487365Y-79056581D01*
X122499771Y-78499294D02*
X122540229Y-77920706D01*
D19*
X117500000Y-79000000D03*
X116190000Y-80460000D03*
X122500000Y-78500000D03*
D20*
X114780000Y-87200000D03*
D19*
X122540000Y-77920000D03*
D21*
X125000000Y-79200000D03*
X120000000Y-77100000D03*
D22*
X125500000Y-83000000D03*
D19*
X120000000Y-77100000D03*
X125000000Y-79200000D03*
D22*
X114500000Y-83000000D03*
D23*
X120000000Y-83000000D03*
D24*
X125080000Y-83000000D03*
X114920000Y-83000000D03*
D25*
X125001226Y-79099499D02*
X122598774Y-78500501D01*
D18*
X97202635Y-80483419D02*
X98487365Y-79056581D01*
X103499771Y-78499294D02*
X103540229Y-77920706D01*
D19*
X98500000Y-79000000D03*
X97190000Y-80460000D03*
X103500000Y-78500000D03*
D20*
X95780000Y-87200000D03*
D19*
X103540000Y-77920000D03*
D21*
X106000000Y-79200000D03*
X101000000Y-77100000D03*
D22*
X106500000Y-83000000D03*
D19*
X101000000Y-77100000D03*
X106000000Y-79200000D03*
D22*
X95500000Y-83000000D03*
D23*
X101000000Y-83000000D03*
D24*
X106080000Y-83000000D03*
X95920000Y-83000000D03*
D25*
X106001226Y-79099499D02*
X103598774Y-78500501D01*
D18*
X78202635Y-80483419D02*
X79487365Y-79056581D01*
X84499771Y-78499294D02*
X84540229Y-77920706D01*
D19*
X79500000Y-79000000D03*
X78190000Y-80460000D03*
X84500000Y-78500000D03*
D20*
X76780000Y-87200000D03*
D19*
X84540000Y-77920000D03*
D21*
X87000000Y-79200000D03*
X82000000Y-77100000D03*
D22*
X87500000Y-83000000D03*
D19*
X82000000Y-77100000D03*
X87000000Y-79200000D03*
D22*
X76500000Y-83000000D03*
D23*
X82000000Y-83000000D03*
D24*
X87080000Y-83000000D03*
X76920000Y-83000000D03*
D25*
X87001226Y-79099499D02*
X84598774Y-78500501D01*
D18*
X59202635Y-80483419D02*
X60487365Y-79056581D01*
X65499771Y-78499294D02*
X65540229Y-77920706D01*
D19*
X60500000Y-79000000D03*
X59190000Y-80460000D03*
X65500000Y-78500000D03*
D20*
X57780000Y-87200000D03*
D19*
X65540000Y-77920000D03*
D21*
X68000000Y-79200000D03*
X63000000Y-77100000D03*
D22*
X68500000Y-83000000D03*
D19*
X63000000Y-77100000D03*
X68000000Y-79200000D03*
D22*
X57500000Y-83000000D03*
D23*
X63000000Y-83000000D03*
D24*
X68080000Y-83000000D03*
X57920000Y-83000000D03*
D25*
X68001226Y-79099499D02*
X65598774Y-78500501D01*
D26*
X236000000Y-53500000D03*
X238500000Y-53500000D03*
X233500000Y-53500000D03*
D27*
X242600000Y-46000000D03*
X229400000Y-46000000D03*
D28*
X45340000Y-50040000D03*
D29*
X62000000Y-52580000D03*
D30*
X62000000Y-50040000D03*
X62000000Y-47500000D03*
D31*
X179000000Y-39000000D03*
X176500000Y-39000000D03*
X194500000Y-39000000D03*
X197000000Y-39000000D03*
D12*
X84000000Y-37000000D03*
D13*
X91620000Y-37000000D03*
D12*
X84000000Y-39500000D03*
D13*
X91620000Y-39500000D03*
D32*
X184000000Y-39000000D03*
X188880000Y-39000000D03*
D31*
X118600000Y-44500000D03*
X118600000Y-42000000D03*
X114500000Y-44500000D03*
X114500000Y-42000000D03*
D33*
X57500000Y-42000000D03*
D34*
X55500000Y-42000000D03*
X53500000Y-42000000D03*
X51500000Y-42000000D03*
X49500000Y-42000000D03*
D12*
X96000000Y-39380000D03*
D13*
X96000000Y-47000000D03*
D35*
X38000000Y-60500000D03*
D36*
X38000000Y-68120000D03*
D35*
X57000000Y-60500000D03*
D36*
X57000000Y-68120000D03*
D35*
X76000000Y-60500000D03*
D36*
X76000000Y-68120000D03*
D35*
X95000000Y-60500000D03*
D36*
X95000000Y-68120000D03*
D35*
X114000000Y-60500000D03*
D36*
X114000000Y-68120000D03*
D35*
X133000000Y-60500000D03*
D36*
X133000000Y-68120000D03*
D35*
X152000000Y-60500000D03*
D36*
X152000000Y-68120000D03*
D35*
X171000000Y-60500000D03*
D36*
X171000000Y-68120000D03*
D35*
X190000000Y-60500000D03*
D36*
X190000000Y-68120000D03*
D35*
X209000000Y-60500000D03*
D36*
X209000000Y-68120000D03*
D35*
X228000000Y-60500000D03*
D36*
X228000000Y-68120000D03*
D35*
X247000000Y-60500000D03*
D36*
X247000000Y-68120000D03*
D35*
X42000000Y-62000000D03*
D36*
X42000000Y-69620000D03*
D35*
X61000000Y-62000000D03*
D36*
X61000000Y-69620000D03*
D35*
X80000000Y-62000000D03*
D36*
X80000000Y-69620000D03*
D35*
X99000000Y-62000000D03*
D36*
X99000000Y-69620000D03*
D35*
X118000000Y-62000000D03*
D36*
X118000000Y-69620000D03*
D35*
X137000000Y-62000000D03*
D36*
X137000000Y-69620000D03*
D35*
X156000000Y-62000000D03*
D36*
X156000000Y-69620000D03*
D35*
X175000000Y-62000000D03*
D36*
X175000000Y-69620000D03*
D35*
X194000000Y-62000000D03*
D36*
X194000000Y-69620000D03*
D35*
X213000000Y-62000000D03*
D36*
X213000000Y-69620000D03*
D35*
X232000000Y-62000000D03*
D36*
X232000000Y-69620000D03*
D35*
X251000000Y-62000000D03*
D36*
X251000000Y-69620000D03*
D35*
X46000000Y-63500000D03*
D36*
X46000000Y-71120000D03*
D35*
X65000000Y-63500000D03*
D36*
X65000000Y-71120000D03*
D35*
X84000000Y-63500000D03*
D36*
X84000000Y-71120000D03*
D35*
X103000000Y-63500000D03*
D36*
X103000000Y-71120000D03*
D35*
X122000000Y-63500000D03*
D36*
X122000000Y-71120000D03*
D35*
X141000000Y-63500000D03*
D36*
X141000000Y-71120000D03*
D35*
X160000000Y-63500000D03*
D36*
X160000000Y-71120000D03*
D35*
X179000000Y-63500000D03*
D36*
X179000000Y-71120000D03*
D35*
X198000000Y-63500000D03*
D36*
X198000000Y-71120000D03*
D35*
X217000000Y-63500000D03*
D36*
X217000000Y-71120000D03*
D35*
X236000000Y-63500000D03*
D36*
X236000000Y-71120000D03*
D35*
X255000000Y-63500000D03*
D36*
X255000000Y-71120000D03*
D35*
X50000000Y-65000000D03*
D36*
X50000000Y-72620000D03*
D35*
X69000000Y-65000000D03*
D36*
X69000000Y-72620000D03*
D35*
X88000000Y-65000000D03*
D36*
X88000000Y-72620000D03*
D35*
X107000000Y-65000000D03*
D36*
X107000000Y-72620000D03*
D35*
X126000000Y-65000000D03*
D36*
X126000000Y-72620000D03*
D35*
X145000000Y-65000000D03*
D36*
X145000000Y-72620000D03*
D35*
X164000000Y-65000000D03*
D36*
X164000000Y-72620000D03*
D35*
X183000000Y-65000000D03*
D36*
X183000000Y-72620000D03*
D35*
X202000000Y-65000000D03*
D36*
X202000000Y-72620000D03*
D35*
X221000000Y-65000000D03*
D36*
X221000000Y-72620000D03*
D35*
X240000000Y-65000000D03*
D36*
X240000000Y-72620000D03*
D35*
X259000000Y-65000000D03*
D36*
X259000000Y-72620000D03*
D18*
X40202635Y-99483419D02*
X41487365Y-98056581D01*
X46499771Y-97499294D02*
X46540229Y-96920706D01*
D19*
X41500000Y-98000000D03*
X40190000Y-99460000D03*
X46500000Y-97500000D03*
D20*
X38780000Y-106200000D03*
D19*
X46540000Y-96920000D03*
D21*
X49000000Y-98200000D03*
X44000000Y-96100000D03*
D22*
X49500000Y-102000000D03*
D19*
X44000000Y-96100000D03*
X49000000Y-98200000D03*
D22*
X38500000Y-102000000D03*
D23*
X44000000Y-102000000D03*
D24*
X49080000Y-102000000D03*
X38920000Y-102000000D03*
D25*
X49001226Y-98099499D02*
X46598774Y-97500501D01*
D18*
X59202635Y-99483419D02*
X60487365Y-98056581D01*
X65499771Y-97499294D02*
X65540229Y-96920706D01*
D19*
X60500000Y-98000000D03*
X59190000Y-99460000D03*
X65500000Y-97500000D03*
D20*
X57780000Y-106200000D03*
D19*
X65540000Y-96920000D03*
D21*
X68000000Y-98200000D03*
X63000000Y-96100000D03*
D22*
X68500000Y-102000000D03*
D19*
X63000000Y-96100000D03*
X68000000Y-98200000D03*
D22*
X57500000Y-102000000D03*
D23*
X63000000Y-102000000D03*
D24*
X68080000Y-102000000D03*
X57920000Y-102000000D03*
D25*
X68001226Y-98099499D02*
X65598774Y-97500501D01*
D18*
X78202635Y-99483419D02*
X79487365Y-98056581D01*
X84499771Y-97499294D02*
X84540229Y-96920706D01*
D19*
X79500000Y-98000000D03*
X78190000Y-99460000D03*
X84500000Y-97500000D03*
D20*
X76780000Y-106200000D03*
D19*
X84540000Y-96920000D03*
D21*
X87000000Y-98200000D03*
X82000000Y-96100000D03*
D22*
X87500000Y-102000000D03*
D19*
X82000000Y-96100000D03*
X87000000Y-98200000D03*
D22*
X76500000Y-102000000D03*
D23*
X82000000Y-102000000D03*
D24*
X87080000Y-102000000D03*
X76920000Y-102000000D03*
D25*
X87001226Y-98099499D02*
X84598774Y-97500501D01*
D18*
X97202635Y-99483419D02*
X98487365Y-98056581D01*
X103499771Y-97499294D02*
X103540229Y-96920706D01*
D19*
X98500000Y-98000000D03*
X97190000Y-99460000D03*
X103500000Y-97500000D03*
D20*
X95780000Y-106200000D03*
D19*
X103540000Y-96920000D03*
D21*
X106000000Y-98200000D03*
X101000000Y-96100000D03*
D22*
X106500000Y-102000000D03*
D19*
X101000000Y-96100000D03*
X106000000Y-98200000D03*
D22*
X95500000Y-102000000D03*
D23*
X101000000Y-102000000D03*
D24*
X106080000Y-102000000D03*
X95920000Y-102000000D03*
D25*
X106001226Y-98099499D02*
X103598774Y-97500501D01*
D18*
X116202635Y-99483419D02*
X117487365Y-98056581D01*
X122499771Y-97499294D02*
X122540229Y-96920706D01*
D19*
X117500000Y-98000000D03*
X116190000Y-99460000D03*
X122500000Y-97500000D03*
D20*
X114780000Y-106200000D03*
D19*
X122540000Y-96920000D03*
D21*
X125000000Y-98200000D03*
X120000000Y-96100000D03*
D22*
X125500000Y-102000000D03*
D19*
X120000000Y-96100000D03*
X125000000Y-98200000D03*
D22*
X114500000Y-102000000D03*
D23*
X120000000Y-102000000D03*
D24*
X125080000Y-102000000D03*
X114920000Y-102000000D03*
D25*
X125001226Y-98099499D02*
X122598774Y-97500501D01*
D18*
X135202635Y-99483419D02*
X136487365Y-98056581D01*
X141499771Y-97499294D02*
X141540229Y-96920706D01*
D19*
X136500000Y-98000000D03*
X135190000Y-99460000D03*
X141500000Y-97500000D03*
D20*
X133780000Y-106200000D03*
D19*
X141540000Y-96920000D03*
D21*
X144000000Y-98200000D03*
X139000000Y-96100000D03*
D22*
X144500000Y-102000000D03*
D19*
X139000000Y-96100000D03*
X144000000Y-98200000D03*
D22*
X133500000Y-102000000D03*
D23*
X139000000Y-102000000D03*
D24*
X144080000Y-102000000D03*
X133920000Y-102000000D03*
D25*
X144001226Y-98099499D02*
X141598774Y-97500501D01*
D18*
X154202635Y-99483419D02*
X155487365Y-98056581D01*
X160499771Y-97499294D02*
X160540229Y-96920706D01*
D19*
X155500000Y-98000000D03*
X154190000Y-99460000D03*
X160500000Y-97500000D03*
D20*
X152780000Y-106200000D03*
D19*
X160540000Y-96920000D03*
D21*
X163000000Y-98200000D03*
X158000000Y-96100000D03*
D22*
X163500000Y-102000000D03*
D19*
X158000000Y-96100000D03*
X163000000Y-98200000D03*
D22*
X152500000Y-102000000D03*
D23*
X158000000Y-102000000D03*
D24*
X163080000Y-102000000D03*
X152920000Y-102000000D03*
D25*
X163001226Y-98099499D02*
X160598774Y-97500501D01*
D18*
X173202635Y-99483419D02*
X174487365Y-98056581D01*
X179499771Y-97499294D02*
X179540229Y-96920706D01*
D19*
X174500000Y-98000000D03*
X173190000Y-99460000D03*
X179500000Y-97500000D03*
D20*
X171780000Y-106200000D03*
D19*
X179540000Y-96920000D03*
D21*
X182000000Y-98200000D03*
X177000000Y-96100000D03*
D22*
X182500000Y-102000000D03*
D19*
X177000000Y-96100000D03*
X182000000Y-98200000D03*
D22*
X171500000Y-102000000D03*
D23*
X177000000Y-102000000D03*
D24*
X182080000Y-102000000D03*
X171920000Y-102000000D03*
D25*
X182001226Y-98099499D02*
X179598774Y-97500501D01*
D18*
X192202635Y-99483419D02*
X193487365Y-98056581D01*
X198499771Y-97499294D02*
X198540229Y-96920706D01*
D19*
X193500000Y-98000000D03*
X192190000Y-99460000D03*
X198500000Y-97500000D03*
D20*
X190780000Y-106200000D03*
D19*
X198540000Y-96920000D03*
D21*
X201000000Y-98200000D03*
X196000000Y-96100000D03*
D22*
X201500000Y-102000000D03*
D19*
X196000000Y-96100000D03*
X201000000Y-98200000D03*
D22*
X190500000Y-102000000D03*
D23*
X196000000Y-102000000D03*
D24*
X201080000Y-102000000D03*
X190920000Y-102000000D03*
D25*
X201001226Y-98099499D02*
X198598774Y-97500501D01*
D18*
X211202635Y-99483419D02*
X212487365Y-98056581D01*
X217499771Y-97499294D02*
X217540229Y-96920706D01*
D19*
X212500000Y-98000000D03*
X211190000Y-99460000D03*
X217500000Y-97500000D03*
D20*
X209780000Y-106200000D03*
D19*
X217540000Y-96920000D03*
D21*
X220000000Y-98200000D03*
X215000000Y-96100000D03*
D22*
X220500000Y-102000000D03*
D19*
X215000000Y-96100000D03*
X220000000Y-98200000D03*
D22*
X209500000Y-102000000D03*
D23*
X215000000Y-102000000D03*
D24*
X220080000Y-102000000D03*
X209920000Y-102000000D03*
D25*
X220001226Y-98099499D02*
X217598774Y-97500501D01*
D18*
X230202635Y-99483419D02*
X231487365Y-98056581D01*
X236499771Y-97499294D02*
X236540229Y-96920706D01*
D19*
X231500000Y-98000000D03*
X230190000Y-99460000D03*
X236500000Y-97500000D03*
D20*
X228780000Y-106200000D03*
D19*
X236540000Y-96920000D03*
D21*
X239000000Y-98200000D03*
X234000000Y-96100000D03*
D22*
X239500000Y-102000000D03*
D19*
X234000000Y-96100000D03*
X239000000Y-98200000D03*
D22*
X228500000Y-102000000D03*
D23*
X234000000Y-102000000D03*
D24*
X239080000Y-102000000D03*
X228920000Y-102000000D03*
D25*
X239001226Y-98099499D02*
X236598774Y-97500501D01*
D18*
X249202635Y-99483419D02*
X250487365Y-98056581D01*
X255499771Y-97499294D02*
X255540229Y-96920706D01*
D19*
X250500000Y-98000000D03*
X249190000Y-99460000D03*
X255500000Y-97500000D03*
D20*
X247780000Y-106200000D03*
D19*
X255540000Y-96920000D03*
D21*
X258000000Y-98200000D03*
X253000000Y-96100000D03*
D22*
X258500000Y-102000000D03*
D19*
X253000000Y-96100000D03*
X258000000Y-98200000D03*
D22*
X247500000Y-102000000D03*
D23*
X253000000Y-102000000D03*
D24*
X258080000Y-102000000D03*
X247920000Y-102000000D03*
D25*
X258001226Y-98099499D02*
X255598774Y-97500501D01*
D18*
X40202635Y-118483419D02*
X41487365Y-117056581D01*
X46499771Y-116499294D02*
X46540229Y-115920706D01*
D19*
X41500000Y-117000000D03*
X40190000Y-118460000D03*
X46500000Y-116500000D03*
D20*
X38780000Y-125200000D03*
D19*
X46540000Y-115920000D03*
D21*
X49000000Y-117200000D03*
X44000000Y-115100000D03*
D22*
X49500000Y-121000000D03*
D19*
X44000000Y-115100000D03*
X49000000Y-117200000D03*
D22*
X38500000Y-121000000D03*
D23*
X44000000Y-121000000D03*
D24*
X49080000Y-121000000D03*
X38920000Y-121000000D03*
D25*
X49001226Y-117099499D02*
X46598774Y-116500501D01*
D18*
X59202635Y-118483419D02*
X60487365Y-117056581D01*
X65499771Y-116499294D02*
X65540229Y-115920706D01*
D19*
X60500000Y-117000000D03*
X59190000Y-118460000D03*
X65500000Y-116500000D03*
D20*
X57780000Y-125200000D03*
D19*
X65540000Y-115920000D03*
D21*
X68000000Y-117200000D03*
X63000000Y-115100000D03*
D22*
X68500000Y-121000000D03*
D19*
X63000000Y-115100000D03*
X68000000Y-117200000D03*
D22*
X57500000Y-121000000D03*
D23*
X63000000Y-121000000D03*
D24*
X68080000Y-121000000D03*
X57920000Y-121000000D03*
D25*
X68001226Y-117099499D02*
X65598774Y-116500501D01*
D18*
X78202635Y-118483419D02*
X79487365Y-117056581D01*
X84499771Y-116499294D02*
X84540229Y-115920706D01*
D19*
X79500000Y-117000000D03*
X78190000Y-118460000D03*
X84500000Y-116500000D03*
D20*
X76780000Y-125200000D03*
D19*
X84540000Y-115920000D03*
D21*
X87000000Y-117200000D03*
X82000000Y-115100000D03*
D22*
X87500000Y-121000000D03*
D19*
X82000000Y-115100000D03*
X87000000Y-117200000D03*
D22*
X76500000Y-121000000D03*
D23*
X82000000Y-121000000D03*
D24*
X87080000Y-121000000D03*
X76920000Y-121000000D03*
D25*
X87001226Y-117099499D02*
X84598774Y-116500501D01*
D18*
X97202635Y-118483419D02*
X98487365Y-117056581D01*
X103499771Y-116499294D02*
X103540229Y-115920706D01*
D19*
X98500000Y-117000000D03*
X97190000Y-118460000D03*
X103500000Y-116500000D03*
D20*
X95780000Y-125200000D03*
D19*
X103540000Y-115920000D03*
D21*
X106000000Y-117200000D03*
X101000000Y-115100000D03*
D22*
X106500000Y-121000000D03*
D19*
X101000000Y-115100000D03*
X106000000Y-117200000D03*
D22*
X95500000Y-121000000D03*
D23*
X101000000Y-121000000D03*
D24*
X106080000Y-121000000D03*
X95920000Y-121000000D03*
D25*
X106001226Y-117099499D02*
X103598774Y-116500501D01*
D18*
X116202635Y-118483419D02*
X117487365Y-117056581D01*
X122499771Y-116499294D02*
X122540229Y-115920706D01*
D19*
X117500000Y-117000000D03*
X116190000Y-118460000D03*
X122500000Y-116500000D03*
D20*
X114780000Y-125200000D03*
D19*
X122540000Y-115920000D03*
D21*
X125000000Y-117200000D03*
X120000000Y-115100000D03*
D22*
X125500000Y-121000000D03*
D19*
X120000000Y-115100000D03*
X125000000Y-117200000D03*
D22*
X114500000Y-121000000D03*
D23*
X120000000Y-121000000D03*
D24*
X125080000Y-121000000D03*
X114920000Y-121000000D03*
D25*
X125001226Y-117099499D02*
X122598774Y-116500501D01*
D18*
X135202635Y-118483419D02*
X136487365Y-117056581D01*
X141499771Y-116499294D02*
X141540229Y-115920706D01*
D19*
X136500000Y-117000000D03*
X135190000Y-118460000D03*
X141500000Y-116500000D03*
D20*
X133780000Y-125200000D03*
D19*
X141540000Y-115920000D03*
D21*
X144000000Y-117200000D03*
X139000000Y-115100000D03*
D22*
X144500000Y-121000000D03*
D19*
X139000000Y-115100000D03*
X144000000Y-117200000D03*
D22*
X133500000Y-121000000D03*
D23*
X139000000Y-121000000D03*
D24*
X144080000Y-121000000D03*
X133920000Y-121000000D03*
D25*
X144001226Y-117099499D02*
X141598774Y-116500501D01*
D18*
X154202635Y-118483419D02*
X155487365Y-117056581D01*
X160499771Y-116499294D02*
X160540229Y-115920706D01*
D19*
X155500000Y-117000000D03*
X154190000Y-118460000D03*
X160500000Y-116500000D03*
D20*
X152780000Y-125200000D03*
D19*
X160540000Y-115920000D03*
D21*
X163000000Y-117200000D03*
X158000000Y-115100000D03*
D22*
X163500000Y-121000000D03*
D19*
X158000000Y-115100000D03*
X163000000Y-117200000D03*
D22*
X152500000Y-121000000D03*
D23*
X158000000Y-121000000D03*
D24*
X163080000Y-121000000D03*
X152920000Y-121000000D03*
D25*
X163001226Y-117099499D02*
X160598774Y-116500501D01*
D18*
X173202635Y-118483419D02*
X174487365Y-117056581D01*
X179499771Y-116499294D02*
X179540229Y-115920706D01*
D19*
X174500000Y-117000000D03*
X173190000Y-118460000D03*
X179500000Y-116500000D03*
D20*
X171780000Y-125200000D03*
D19*
X179540000Y-115920000D03*
D21*
X182000000Y-117200000D03*
X177000000Y-115100000D03*
D22*
X182500000Y-121000000D03*
D19*
X177000000Y-115100000D03*
X182000000Y-117200000D03*
D22*
X171500000Y-121000000D03*
D23*
X177000000Y-121000000D03*
D24*
X182080000Y-121000000D03*
X171920000Y-121000000D03*
D25*
X182001226Y-117099499D02*
X179598774Y-116500501D01*
D18*
X192202635Y-118483419D02*
X193487365Y-117056581D01*
X198499771Y-116499294D02*
X198540229Y-115920706D01*
D19*
X193500000Y-117000000D03*
X192190000Y-118460000D03*
X198500000Y-116500000D03*
D20*
X190780000Y-125200000D03*
D19*
X198540000Y-115920000D03*
D21*
X201000000Y-117200000D03*
X196000000Y-115100000D03*
D22*
X201500000Y-121000000D03*
D19*
X196000000Y-115100000D03*
X201000000Y-117200000D03*
D22*
X190500000Y-121000000D03*
D23*
X196000000Y-121000000D03*
D24*
X201080000Y-121000000D03*
X190920000Y-121000000D03*
D25*
X201001226Y-117099499D02*
X198598774Y-116500501D01*
D18*
X211202635Y-118483419D02*
X212487365Y-117056581D01*
X217499771Y-116499294D02*
X217540229Y-115920706D01*
D19*
X212500000Y-117000000D03*
X211190000Y-118460000D03*
X217500000Y-116500000D03*
D20*
X209780000Y-125200000D03*
D19*
X217540000Y-115920000D03*
D21*
X220000000Y-117200000D03*
X215000000Y-115100000D03*
D22*
X220500000Y-121000000D03*
D19*
X215000000Y-115100000D03*
X220000000Y-117200000D03*
D22*
X209500000Y-121000000D03*
D23*
X215000000Y-121000000D03*
D24*
X220080000Y-121000000D03*
X209920000Y-121000000D03*
D25*
X220001226Y-117099499D02*
X217598774Y-116500501D01*
D18*
X230202635Y-118483419D02*
X231487365Y-117056581D01*
X236499771Y-116499294D02*
X236540229Y-115920706D01*
D19*
X231500000Y-117000000D03*
X230190000Y-118460000D03*
X236500000Y-116500000D03*
D20*
X228780000Y-125200000D03*
D19*
X236540000Y-115920000D03*
D21*
X239000000Y-117200000D03*
X234000000Y-115100000D03*
D22*
X239500000Y-121000000D03*
D19*
X234000000Y-115100000D03*
X239000000Y-117200000D03*
D22*
X228500000Y-121000000D03*
D23*
X234000000Y-121000000D03*
D24*
X239080000Y-121000000D03*
X228920000Y-121000000D03*
D25*
X239001226Y-117099499D02*
X236598774Y-116500501D01*
D18*
X249202635Y-118483419D02*
X250487365Y-117056581D01*
X255499771Y-116499294D02*
X255540229Y-115920706D01*
D19*
X250500000Y-117000000D03*
X249190000Y-118460000D03*
X255500000Y-116500000D03*
D20*
X247780000Y-125200000D03*
D19*
X255540000Y-115920000D03*
D21*
X258000000Y-117200000D03*
X253000000Y-115100000D03*
D22*
X258500000Y-121000000D03*
D19*
X253000000Y-115100000D03*
X258000000Y-117200000D03*
D22*
X247500000Y-121000000D03*
D23*
X253000000Y-121000000D03*
D24*
X258080000Y-121000000D03*
X247920000Y-121000000D03*
D25*
X258001226Y-117099499D02*
X255598774Y-116500501D01*
D18*
X40202635Y-137483419D02*
X41487365Y-136056581D01*
X46499771Y-135499294D02*
X46540229Y-134920706D01*
D19*
X41500000Y-136000000D03*
X40190000Y-137460000D03*
X46500000Y-135500000D03*
D20*
X38780000Y-144200000D03*
D19*
X46540000Y-134920000D03*
D21*
X49000000Y-136200000D03*
X44000000Y-134100000D03*
D22*
X49500000Y-140000000D03*
D19*
X44000000Y-134100000D03*
X49000000Y-136200000D03*
D22*
X38500000Y-140000000D03*
D23*
X44000000Y-140000000D03*
D24*
X49080000Y-140000000D03*
X38920000Y-140000000D03*
D25*
X49001226Y-136099499D02*
X46598774Y-135500501D01*
D18*
X59202635Y-137483419D02*
X60487365Y-136056581D01*
X65499771Y-135499294D02*
X65540229Y-134920706D01*
D19*
X60500000Y-136000000D03*
X59190000Y-137460000D03*
X65500000Y-135500000D03*
D20*
X57780000Y-144200000D03*
D19*
X65540000Y-134920000D03*
D21*
X68000000Y-136200000D03*
X63000000Y-134100000D03*
D22*
X68500000Y-140000000D03*
D19*
X63000000Y-134100000D03*
X68000000Y-136200000D03*
D22*
X57500000Y-140000000D03*
D23*
X63000000Y-140000000D03*
D24*
X68080000Y-140000000D03*
X57920000Y-140000000D03*
D25*
X68001226Y-136099499D02*
X65598774Y-135500501D01*
D18*
X78202635Y-137483419D02*
X79487365Y-136056581D01*
X84499771Y-135499294D02*
X84540229Y-134920706D01*
D19*
X79500000Y-136000000D03*
X78190000Y-137460000D03*
X84500000Y-135500000D03*
D20*
X76780000Y-144200000D03*
D19*
X84540000Y-134920000D03*
D21*
X87000000Y-136200000D03*
X82000000Y-134100000D03*
D22*
X87500000Y-140000000D03*
D19*
X82000000Y-134100000D03*
X87000000Y-136200000D03*
D22*
X76500000Y-140000000D03*
D23*
X82000000Y-140000000D03*
D24*
X87080000Y-140000000D03*
X76920000Y-140000000D03*
D25*
X87001226Y-136099499D02*
X84598774Y-135500501D01*
D18*
X97202635Y-137483419D02*
X98487365Y-136056581D01*
X103499771Y-135499294D02*
X103540229Y-134920706D01*
D19*
X98500000Y-136000000D03*
X97190000Y-137460000D03*
X103500000Y-135500000D03*
D20*
X95780000Y-144200000D03*
D19*
X103540000Y-134920000D03*
D21*
X106000000Y-136200000D03*
X101000000Y-134100000D03*
D22*
X106500000Y-140000000D03*
D19*
X101000000Y-134100000D03*
X106000000Y-136200000D03*
D22*
X95500000Y-140000000D03*
D23*
X101000000Y-140000000D03*
D24*
X106080000Y-140000000D03*
X95920000Y-140000000D03*
D25*
X106001226Y-136099499D02*
X103598774Y-135500501D01*
D18*
X116202635Y-137483419D02*
X117487365Y-136056581D01*
X122499771Y-135499294D02*
X122540229Y-134920706D01*
D19*
X117500000Y-136000000D03*
X116190000Y-137460000D03*
X122500000Y-135500000D03*
D20*
X114780000Y-144200000D03*
D19*
X122540000Y-134920000D03*
D21*
X125000000Y-136200000D03*
X120000000Y-134100000D03*
D22*
X125500000Y-140000000D03*
D19*
X120000000Y-134100000D03*
X125000000Y-136200000D03*
D22*
X114500000Y-140000000D03*
D23*
X120000000Y-140000000D03*
D24*
X125080000Y-140000000D03*
X114920000Y-140000000D03*
D25*
X125001226Y-136099499D02*
X122598774Y-135500501D01*
D18*
X135202635Y-137483419D02*
X136487365Y-136056581D01*
X141499771Y-135499294D02*
X141540229Y-134920706D01*
D19*
X136500000Y-136000000D03*
X135190000Y-137460000D03*
X141500000Y-135500000D03*
D20*
X133780000Y-144200000D03*
D19*
X141540000Y-134920000D03*
D21*
X144000000Y-136200000D03*
X139000000Y-134100000D03*
D22*
X144500000Y-140000000D03*
D19*
X139000000Y-134100000D03*
X144000000Y-136200000D03*
D22*
X133500000Y-140000000D03*
D23*
X139000000Y-140000000D03*
D24*
X144080000Y-140000000D03*
X133920000Y-140000000D03*
D25*
X144001226Y-136099499D02*
X141598774Y-135500501D01*
D18*
X154202635Y-137483419D02*
X155487365Y-136056581D01*
X160499771Y-135499294D02*
X160540229Y-134920706D01*
D19*
X155500000Y-136000000D03*
X154190000Y-137460000D03*
X160500000Y-135500000D03*
D20*
X152780000Y-144200000D03*
D19*
X160540000Y-134920000D03*
D21*
X163000000Y-136200000D03*
X158000000Y-134100000D03*
D22*
X163500000Y-140000000D03*
D19*
X158000000Y-134100000D03*
X163000000Y-136200000D03*
D22*
X152500000Y-140000000D03*
D23*
X158000000Y-140000000D03*
D24*
X163080000Y-140000000D03*
X152920000Y-140000000D03*
D25*
X163001226Y-136099499D02*
X160598774Y-135500501D01*
D18*
X173202635Y-137483419D02*
X174487365Y-136056581D01*
X179499771Y-135499294D02*
X179540229Y-134920706D01*
D19*
X174500000Y-136000000D03*
X173190000Y-137460000D03*
X179500000Y-135500000D03*
D20*
X171780000Y-144200000D03*
D19*
X179540000Y-134920000D03*
D21*
X182000000Y-136200000D03*
X177000000Y-134100000D03*
D22*
X182500000Y-140000000D03*
D19*
X177000000Y-134100000D03*
X182000000Y-136200000D03*
D22*
X171500000Y-140000000D03*
D23*
X177000000Y-140000000D03*
D24*
X182080000Y-140000000D03*
X171920000Y-140000000D03*
D25*
X182001226Y-136099499D02*
X179598774Y-135500501D01*
D18*
X192202635Y-137483419D02*
X193487365Y-136056581D01*
X198499771Y-135499294D02*
X198540229Y-134920706D01*
D19*
X193500000Y-136000000D03*
X192190000Y-137460000D03*
X198500000Y-135500000D03*
D20*
X190780000Y-144200000D03*
D19*
X198540000Y-134920000D03*
D21*
X201000000Y-136200000D03*
X196000000Y-134100000D03*
D22*
X201500000Y-140000000D03*
D19*
X196000000Y-134100000D03*
X201000000Y-136200000D03*
D22*
X190500000Y-140000000D03*
D23*
X196000000Y-140000000D03*
D24*
X201080000Y-140000000D03*
X190920000Y-140000000D03*
D25*
X201001226Y-136099499D02*
X198598774Y-135500501D01*
D18*
X211202635Y-137483419D02*
X212487365Y-136056581D01*
X217499771Y-135499294D02*
X217540229Y-134920706D01*
D19*
X212500000Y-136000000D03*
X211190000Y-137460000D03*
X217500000Y-135500000D03*
D20*
X209780000Y-144200000D03*
D19*
X217540000Y-134920000D03*
D21*
X220000000Y-136200000D03*
X215000000Y-134100000D03*
D22*
X220500000Y-140000000D03*
D19*
X215000000Y-134100000D03*
X220000000Y-136200000D03*
D22*
X209500000Y-140000000D03*
D23*
X215000000Y-140000000D03*
D24*
X220080000Y-140000000D03*
X209920000Y-140000000D03*
D25*
X220001226Y-136099499D02*
X217598774Y-135500501D01*
D18*
X230202635Y-137483419D02*
X231487365Y-136056581D01*
X236499771Y-135499294D02*
X236540229Y-134920706D01*
D19*
X231500000Y-136000000D03*
X230190000Y-137460000D03*
X236500000Y-135500000D03*
D20*
X228780000Y-144200000D03*
D19*
X236540000Y-134920000D03*
D21*
X239000000Y-136200000D03*
X234000000Y-134100000D03*
D22*
X239500000Y-140000000D03*
D19*
X234000000Y-134100000D03*
X239000000Y-136200000D03*
D22*
X228500000Y-140000000D03*
D23*
X234000000Y-140000000D03*
D24*
X239080000Y-140000000D03*
X228920000Y-140000000D03*
D25*
X239001226Y-136099499D02*
X236598774Y-135500501D01*
D18*
X249202635Y-137483419D02*
X250487365Y-136056581D01*
X255499771Y-135499294D02*
X255540229Y-134920706D01*
D19*
X250500000Y-136000000D03*
X249190000Y-137460000D03*
X255500000Y-135500000D03*
D20*
X247780000Y-144200000D03*
D19*
X255540000Y-134920000D03*
D21*
X258000000Y-136200000D03*
X253000000Y-134100000D03*
D22*
X258500000Y-140000000D03*
D19*
X253000000Y-134100000D03*
X258000000Y-136200000D03*
D22*
X247500000Y-140000000D03*
D23*
X253000000Y-140000000D03*
D24*
X258080000Y-140000000D03*
X247920000Y-140000000D03*
D25*
X258001226Y-136099499D02*
X255598774Y-135500501D01*
D18*
X152297365Y-142516581D02*
X151012635Y-143943419D01*
X146000229Y-144500706D02*
X145959771Y-145079294D01*
D19*
X151000000Y-144000000D03*
X152310000Y-142540000D03*
X146000000Y-144500000D03*
D20*
X153720000Y-135800000D03*
D19*
X145960000Y-145080000D03*
D21*
X143500000Y-143800000D03*
X148500000Y-145900000D03*
D22*
X143000000Y-140000000D03*
D19*
X148500000Y-145900000D03*
X143500000Y-143800000D03*
D22*
X154000000Y-140000000D03*
D23*
X148500000Y-140000000D03*
D24*
X143420000Y-140000000D03*
X153580000Y-140000000D03*
D25*
X143498774Y-143900501D02*
X145901226Y-144499499D01*
D37*
X99500000Y-42000000D03*
D38*
X99500000Y-44540000D03*
X102040000Y-42000000D03*
X102040000Y-44540000D03*
X104580000Y-42000000D03*
X104580000Y-44540000D03*
X107120000Y-42000000D03*
X107120000Y-44540000D03*
X109660000Y-42000000D03*
X109660000Y-44540000D03*
D37*
X102000000Y-50200000D03*
D38*
X102000000Y-52740000D03*
X104540000Y-50200000D03*
X104540000Y-52740000D03*
X107080000Y-50200000D03*
X107080000Y-52740000D03*
D26*
X213000000Y-53500000D03*
X215500000Y-53500000D03*
X210500000Y-53500000D03*
D27*
X219600000Y-46000000D03*
X206400000Y-46000000D03*
D26*
X119700000Y-49250000D03*
X119700000Y-53750000D03*
X113200000Y-53750000D03*
X113200000Y-49250000D03*
D39*
X160450000Y-146985000D03*
X136550000Y-146985000D03*
D40*
X136550000Y-131745000D03*
X160450000Y-131745000D03*
D29*
X70000000Y-47500000D03*
D41*
X70000000Y-50040000D03*
D29*
X75000000Y-47460000D03*
D41*
X75000000Y-50000000D03*
D42*
X38500000Y-50500000D03*
X36000000Y-49500000D03*
X36000000Y-47500000D03*
X38500000Y-48500000D03*
X258500000Y-47500000D03*
X261000000Y-48500000D03*
X261000000Y-50500000D03*
X258500000Y-49500000D03*
X223000000Y-39562500D03*
X224000000Y-37062500D03*
X226000000Y-37062500D03*
X225000000Y-39562500D03*
D43*
X85200000Y-48200000D03*
X90200000Y-48200000D03*
D11*
X253000000Y-49500000D03*
M02*
