M48
INCH,TZ
T1C0.024
T2C0.066
T3C0.070
T4C0.120
T5C0.138
T6C0.157
T7C0.157
%
G90
G05
T1
X15268Y-34331
X15268Y-41811
X15268Y-49291
X15268Y-56772
X22748Y-34331
X22748Y-41811
X22748Y-49291
X22748Y-56772
X30228Y-34331
X30228Y-41811
X30228Y-49291
X30228Y-56772
X37709Y-34331
X37709Y-41811
X37709Y-49291
X37709Y-56772
X45189Y-34331
X45189Y-41811
X45189Y-49291
X45189Y-56772
X52669Y-34331
X52669Y-41811
X52669Y-49291
X52669Y-56772
X60150Y-34331
X60150Y-41811
X60150Y-49291
X60150Y-56772
X60520Y-53465
X67630Y-34331
X67630Y-41811
X67630Y-49291
X67630Y-56772
X75110Y-34331
X75110Y-41811
X75110Y-49291
X75110Y-56772
X82591Y-34331
X82591Y-41811
X82591Y-49291
X82591Y-56772
X90071Y-34331
X90071Y-41811
X90071Y-49291
X90071Y-56772
X97551Y-34331
X97551Y-41811
X97551Y-49291
X97551Y-56772
T2
X15323Y-32677
X15323Y-40157
X15323Y-47638
X15323Y-55118
X19323Y-32677
X19323Y-40157
X19323Y-47638
X19323Y-55118
X22803Y-32677
X22803Y-40157
X22803Y-47638
X22803Y-55118
X26803Y-32677
X26803Y-40157
X26803Y-47638
X26803Y-55118
X30283Y-32677
X30283Y-40157
X30283Y-47638
X30283Y-55118
X34283Y-32677
X34283Y-40157
X34283Y-47638
X34283Y-55118
X37764Y-32677
X37764Y-40157
X37764Y-47638
X37764Y-55118
X41764Y-32677
X41764Y-40157
X41764Y-47638
X41764Y-55118
X45244Y-32677
X45244Y-40157
X45244Y-47638
X45244Y-55118
X49244Y-32677
X49244Y-40157
X49244Y-47638
X49244Y-55118
X52724Y-32677
X52724Y-40157
X52724Y-47638
X52724Y-55118
X56465Y-55118
X56724Y-32677
X56724Y-40157
X56724Y-47638
X56724Y-55118
X60205Y-32677
X60205Y-40157
X60205Y-47638
X60205Y-55118
X60465Y-55118
X64205Y-32677
X64205Y-40157
X64205Y-47638
X64205Y-55118
X67685Y-32677
X67685Y-40157
X67685Y-47638
X67685Y-55118
X71685Y-32677
X71685Y-40157
X71685Y-47638
X71685Y-55118
X75165Y-32677
X75165Y-40157
X75165Y-47638
X75165Y-55118
X79165Y-32677
X79165Y-40157
X79165Y-47638
X79165Y-55118
X82646Y-32677
X82646Y-40157
X82646Y-47638
X82646Y-55118
X86646Y-32677
X86646Y-40157
X86646Y-47638
X86646Y-55118
X90126Y-32677
X90126Y-40157
X90126Y-47638
X90126Y-55118
X94126Y-32677
X94126Y-40157
X94126Y-47638
X94126Y-55118
X97606Y-32677
X97606Y-40157
X97606Y-47638
X97606Y-55118
X101606Y-32677
X101606Y-40157
X101606Y-47638
X101606Y-55118
T3
X15157Y-32677
X15157Y-40157
X15157Y-47638
X15157Y-55118
X19488Y-32677
X19488Y-40157
X19488Y-47638
X19488Y-55118
X22638Y-32677
X22638Y-40157
X22638Y-47638
X22638Y-55118
X26969Y-32677
X26969Y-40157
X26969Y-47638
X26969Y-55118
X30118Y-32677
X30118Y-40157
X30118Y-47638
X30118Y-55118
X34449Y-32677
X34449Y-40157
X34449Y-47638
X34449Y-55118
X37598Y-32677
X37598Y-40157
X37598Y-47638
X37598Y-55118
X41929Y-32677
X41929Y-40157
X41929Y-47638
X41929Y-55118
X45079Y-32677
X45079Y-40157
X45079Y-47638
X45079Y-55118
X49409Y-32677
X49409Y-40157
X49409Y-47638
X49409Y-55118
X52559Y-32677
X52559Y-40157
X52559Y-47638
X52559Y-55118
X56299Y-55118
X56890Y-32677
X56890Y-40157
X56890Y-47638
X56890Y-55118
X60039Y-32677
X60039Y-40157
X60039Y-47638
X60039Y-55118
X60630Y-55118
X64370Y-32677
X64370Y-40157
X64370Y-47638
X64370Y-55118
X67520Y-32677
X67520Y-40157
X67520Y-47638
X67520Y-55118
X71850Y-32677
X71850Y-40157
X71850Y-47638
X71850Y-55118
X75000Y-32677
X75000Y-40157
X75000Y-47638
X75000Y-55118
X79331Y-32677
X79331Y-40157
X79331Y-47638
X79331Y-55118
X82480Y-32677
X82480Y-40157
X82480Y-47638
X82480Y-55118
X86811Y-32677
X86811Y-40157
X86811Y-47638
X86811Y-55118
X89961Y-32677
X89961Y-40157
X89961Y-47638
X89961Y-55118
X94291Y-32677
X94291Y-40157
X94291Y-47638
X94291Y-55118
X97441Y-32677
X97441Y-40157
X97441Y-47638
X97441Y-55118
X101772Y-32677
X101772Y-40157
X101772Y-47638
X101772Y-55118
T4
X53760Y-57868
X63169Y-57868
T5
X17850Y-19701
T6
X17323Y-32677
X17323Y-40157
X17323Y-47638
X17323Y-55118
X24803Y-32677
X24803Y-40157
X24803Y-47638
X24803Y-55118
X32283Y-32677
X32283Y-40157
X32283Y-47638
X32283Y-55118
X39764Y-32677
X39764Y-40157
X39764Y-47638
X39764Y-55118
X47244Y-32677
X47244Y-40157
X47244Y-47638
X47244Y-55118
X54724Y-32677
X54724Y-40157
X54724Y-47638
X54724Y-55118
X58465Y-55118
X62205Y-32677
X62205Y-40157
X62205Y-47638
X62205Y-55118
X69685Y-32677
X69685Y-40157
X69685Y-47638
X69685Y-55118
X77165Y-32677
X77165Y-40157
X77165Y-47638
X77165Y-55118
X84646Y-32677
X84646Y-40157
X84646Y-47638
X84646Y-55118
X92126Y-32677
X92126Y-40157
X92126Y-47638
X92126Y-55118
X99606Y-32677
X99606Y-40157
X99606Y-47638
X99606Y-55118
T7
X53760Y-51868
X63169Y-51868
T0
M30
