M48
INCH,TZ
T1C0.016
T2C0.028
T3C0.030
T4C0.031
T5C0.035
T6C0.038
T7C0.039
T8C0.057
T9C0.058
T10C0.087
T11C0.098
%
G90
G05
T1
X21063Y-23425
X28543Y-23425
X36024Y-23425
X42953Y-19331
X43504Y-23425
X49016Y-16614
X50984Y-23435
X56220Y-20984
X56496Y-16890
X56496Y-21339
X57402Y-19646
X58268Y-23425
X59055Y-19646
X59055Y-18307
X62008Y-23425
X62992Y-23425
X63976Y-23425
X65945Y-23425
X68150Y-17352
X73425Y-23425
X80906Y-23425
X81088Y-20247
X87795Y-20561
X88098Y-20738
X88386Y-23435
X88583Y-20561
X95866Y-23425
T2
X14173Y-18701
X14173Y-19488
X15157Y-19094
X15157Y-19882
X25984Y-17717
X25984Y-20717
X27913Y-16654
X28228Y-16181
X28543Y-16654
X28858Y-16181
X29173Y-16654
X31102Y-17717
X31102Y-20717
X33071Y-14567
X33071Y-15551
X33543Y-18976
X35512Y-18976
X36071Y-14567
X36071Y-15551
X37795Y-15504
X37795Y-18504
X87795Y-15576
X88189Y-14592
X88583Y-15576
X88976Y-14592
X101772Y-18701
X101772Y-19488
X102756Y-19094
X102756Y-19882
T3
X19488Y-16535
X20276Y-16535
X21063Y-16535
X21850Y-16535
X22638Y-16535
T4
X14961Y-23819
X14961Y-26819
X16535Y-24409
X16535Y-27409
X18110Y-25000
X18110Y-28000
X19685Y-25591
X19685Y-28591
X22441Y-23819
X22441Y-26819
X24016Y-24409
X24016Y-27409
X25591Y-25000
X25591Y-28000
X27165Y-25591
X27165Y-28591
X29921Y-23819
X29921Y-26819
X31496Y-24409
X31496Y-27409
X33071Y-25000
X33071Y-28000
X34646Y-25591
X34646Y-28591
X37402Y-23819
X37402Y-26819
X38976Y-24409
X38976Y-27409
X40551Y-25000
X40551Y-28000
X42126Y-25591
X42126Y-28591
X44882Y-23819
X44882Y-26819
X45079Y-16535
X45079Y-17520
X46457Y-24409
X46457Y-27409
X46693Y-16535
X46693Y-17520
X48031Y-25000
X48031Y-28000
X49016Y-15850
X49016Y-21850
X49606Y-25591
X49606Y-28591
X50016Y-15850
X50016Y-21850
X51016Y-15850
X51016Y-21850
X52016Y-15850
X52016Y-21850
X52362Y-23819
X52362Y-26819
X53016Y-15850
X53016Y-21850
X53937Y-24409
X53937Y-27409
X54016Y-15850
X54016Y-21850
X55016Y-15850
X55016Y-21850
X55512Y-25000
X55512Y-28000
X56016Y-15850
X56016Y-21850
X57016Y-15850
X57016Y-21850
X57087Y-25591
X57087Y-28591
X58016Y-15850
X58016Y-21850
X59016Y-15850
X59016Y-21850
X59843Y-23819
X59843Y-26819
X60016Y-15850
X60016Y-21850
X61016Y-15850
X61016Y-21850
X61417Y-24409
X61417Y-27409
X62016Y-15850
X62016Y-21850
X62992Y-25000
X62992Y-28000
X63016Y-15850
X63016Y-21850
X64016Y-15850
X64016Y-21850
X64567Y-25591
X64567Y-28591
X65016Y-15850
X65016Y-21850
X66016Y-15850
X66016Y-21850
X67016Y-15850
X67016Y-21850
X67323Y-23819
X67323Y-26819
X68016Y-15850
X68016Y-21850
X68898Y-24409
X68898Y-27409
X69488Y-15354
X70472Y-15354
X70472Y-25000
X70472Y-28000
X72047Y-25591
X72047Y-28591
X72441Y-15354
X74362Y-15354
X74803Y-23819
X74803Y-26819
X76378Y-24409
X76378Y-27409
X76575Y-15354
X77559Y-15354
X77953Y-25000
X77953Y-28000
X79528Y-25591
X79528Y-28591
X82283Y-23819
X82283Y-26819
X83858Y-24409
X83858Y-27409
X85433Y-25000
X85433Y-28000
X87008Y-25591
X87008Y-28591
X89764Y-23819
X89764Y-26819
X91339Y-24409
X91339Y-27409
X92913Y-25000
X92913Y-28000
X94488Y-25591
X94488Y-28591
X97244Y-23819
X97244Y-26819
X98819Y-24409
X98819Y-27409
X100394Y-25000
X100394Y-28000
X101969Y-25591
X101969Y-28591
T5
X27559Y-18701
X27559Y-19701
X29528Y-18685
X29528Y-19685
T6
X69646Y-17791
X69646Y-18791
X69646Y-19791
X69646Y-20791
X72646Y-17791
X72646Y-18791
X72646Y-19791
X72646Y-20791
T7
X24409Y-18701
X24409Y-19701
X24409Y-20701
X39173Y-16535
X39173Y-17535
X40157Y-19764
X40157Y-20764
X40173Y-16535
X40173Y-17535
X41157Y-19764
X41157Y-20764
X41173Y-16535
X41173Y-17535
X42157Y-19764
X42157Y-20764
X42173Y-16535
X42173Y-17535
X43173Y-16535
X43173Y-17535
X44567Y-19390
X44567Y-21161
X47126Y-19390
X47126Y-21161
X82874Y-21063
X83858Y-21063
X84843Y-21063
X91929Y-21063
X92913Y-21063
X93898Y-21063
T8
X15823Y-31677
X15823Y-39157
X15823Y-46638
X15823Y-54118
X16339Y-31102
X16339Y-38583
X16339Y-46063
X16339Y-53543
X18307Y-30906
X18307Y-38386
X18307Y-45866
X18307Y-53346
X18323Y-30677
X18323Y-38157
X18323Y-45638
X18323Y-53118
X19291Y-31181
X19291Y-38661
X19291Y-46142
X19291Y-53622
X23303Y-31677
X23303Y-39157
X23303Y-46638
X23303Y-54118
X23819Y-31102
X23819Y-38583
X23819Y-46063
X23819Y-53543
X25787Y-30906
X25787Y-38386
X25787Y-45866
X25787Y-53346
X25803Y-30677
X25803Y-38157
X25803Y-45638
X25803Y-53118
X26772Y-31181
X26772Y-38661
X26772Y-46142
X26772Y-53622
X30783Y-31677
X30783Y-39157
X30783Y-46638
X30783Y-54118
X31299Y-31102
X31299Y-38583
X31299Y-46063
X31299Y-53543
X33268Y-30906
X33268Y-38386
X33268Y-45866
X33268Y-53346
X33283Y-30677
X33283Y-38157
X33283Y-45638
X33283Y-53118
X34252Y-31181
X34252Y-38661
X34252Y-46142
X34252Y-53622
X38264Y-31677
X38264Y-39157
X38264Y-46638
X38264Y-54118
X38780Y-31102
X38780Y-38583
X38780Y-46063
X38780Y-53543
X40748Y-30906
X40748Y-38386
X40748Y-45866
X40748Y-53346
X40764Y-30677
X40764Y-38157
X40764Y-45638
X40764Y-53118
X41732Y-31181
X41732Y-38661
X41732Y-46142
X41732Y-53622
X45744Y-31677
X45744Y-39157
X45744Y-46638
X45744Y-54118
X46260Y-31102
X46260Y-38583
X46260Y-46063
X46260Y-53543
X48228Y-30906
X48228Y-38386
X48228Y-45866
X48228Y-53346
X48244Y-30677
X48244Y-38157
X48244Y-45638
X48244Y-53118
X49213Y-31181
X49213Y-38661
X49213Y-46142
X49213Y-53622
X53224Y-31677
X53224Y-39157
X53224Y-46638
X53224Y-54118
X53740Y-31102
X53740Y-38583
X53740Y-46063
X53740Y-53543
X55709Y-30906
X55709Y-38386
X55709Y-45866
X55709Y-53346
X55724Y-30677
X55724Y-38157
X55724Y-45638
X55724Y-53118
X56496Y-56614
X56693Y-31181
X56693Y-38661
X56693Y-46142
X56693Y-53622
X57465Y-57118
X57480Y-56890
X59449Y-56693
X59965Y-56118
X60705Y-31677
X60705Y-39157
X60705Y-46638
X60705Y-54118
X61220Y-31102
X61220Y-38583
X61220Y-46063
X61220Y-53543
X63189Y-30906
X63189Y-38386
X63189Y-45866
X63189Y-53346
X63205Y-30677
X63205Y-38157
X63205Y-45638
X63205Y-53118
X64173Y-31181
X64173Y-38661
X64173Y-46142
X64173Y-53622
X68185Y-31677
X68185Y-39157
X68185Y-46638
X68185Y-54118
X68701Y-31102
X68701Y-38583
X68701Y-46063
X68701Y-53543
X70669Y-30906
X70669Y-38386
X70669Y-45866
X70669Y-53346
X70685Y-30677
X70685Y-38157
X70685Y-45638
X70685Y-53118
X71654Y-31181
X71654Y-38661
X71654Y-46142
X71654Y-53622
X75665Y-31677
X75665Y-39157
X75665Y-46638
X75665Y-54118
X76181Y-31102
X76181Y-38583
X76181Y-46063
X76181Y-53543
X78150Y-30906
X78150Y-38386
X78150Y-45866
X78150Y-53346
X78165Y-30677
X78165Y-38157
X78165Y-45638
X78165Y-53118
X79134Y-31181
X79134Y-38661
X79134Y-46142
X79134Y-53622
X83146Y-31677
X83146Y-39157
X83146Y-46638
X83146Y-54118
X83661Y-31102
X83661Y-38583
X83661Y-46063
X83661Y-53543
X85630Y-30906
X85630Y-38386
X85630Y-45866
X85630Y-53346
X85646Y-30677
X85646Y-38157
X85646Y-45638
X85646Y-53118
X86614Y-31181
X86614Y-38661
X86614Y-46142
X86614Y-53622
X90626Y-31677
X90626Y-39157
X90626Y-46638
X90626Y-54118
X91142Y-31102
X91142Y-38583
X91142Y-46063
X91142Y-53543
X93110Y-30906
X93110Y-38386
X93110Y-45866
X93110Y-53346
X93126Y-30677
X93126Y-38157
X93126Y-45638
X93126Y-53118
X94094Y-31181
X94094Y-38661
X94094Y-46142
X94094Y-53622
X98106Y-31677
X98106Y-39157
X98106Y-46638
X98106Y-54118
X98622Y-31102
X98622Y-38583
X98622Y-46063
X98622Y-53543
X100591Y-30906
X100591Y-38386
X100591Y-45866
X100591Y-53346
X100606Y-30677
X100606Y-38157
X100606Y-45638
X100606Y-53118
X101575Y-31181
X101575Y-38661
X101575Y-46142
X101575Y-53622
T9
X17323Y-30354
X17323Y-37835
X17323Y-45315
X17323Y-52795
X24803Y-30354
X24803Y-37835
X24803Y-45315
X24803Y-52795
X32283Y-30354
X32283Y-37835
X32283Y-45315
X32283Y-52795
X39764Y-30354
X39764Y-37835
X39764Y-45315
X39764Y-52795
X47244Y-30354
X47244Y-37835
X47244Y-45315
X47244Y-52795
X54724Y-30354
X54724Y-37835
X54724Y-45315
X54724Y-52795
X58465Y-57441
X62205Y-30354
X62205Y-37835
X62205Y-45315
X62205Y-52795
X69685Y-30354
X69685Y-37835
X69685Y-45315
X69685Y-52795
X77165Y-30354
X77165Y-37835
X77165Y-45315
X77165Y-52795
X84646Y-30354
X84646Y-37835
X84646Y-45315
X84646Y-52795
X92126Y-30354
X92126Y-37835
X92126Y-45315
X92126Y-52795
X99606Y-30354
X99606Y-37835
X99606Y-45315
X99606Y-52795
T10
X15551Y-15945
X21063Y-43898
X36024Y-36417
X36024Y-51378
X37992Y-21260
X79724Y-15354
X80906Y-36417
X80906Y-51378
X95866Y-43898
X99606Y-19488
T11
X81260Y-18110
X86457Y-18110
X90315Y-18110
X95512Y-18110
T2
X27106Y-14902G85X27106Y-14429
G05
X29980Y-14902G85X29980Y-14429
G05
T0
M30
