G04 #@! TF.FileFunction,Legend,Top*
%FSLAX46Y46*%
G04 Gerber Fmt 4.6, Leading zero omitted, Abs format (unit mm)*
G04 Created by KiCad (PCBNEW 4.0.7) date 09/10/18 23:45:49*
%MOMM*%
%LPD*%
G01*
G04 APERTURE LIST*
%ADD10C,0.100000*%
%ADD11C,0.150000*%
%ADD12C,0.120000*%
%ADD13C,0.254000*%
G04 APERTURE END LIST*
D10*
D11*
X96452381Y-43940476D02*
X96452381Y-44511905D01*
X96452381Y-44226191D02*
X95452381Y-44226191D01*
X95595238Y-44321429D01*
X95690476Y-44416667D01*
X95738095Y-44511905D01*
X96452381Y-43511905D02*
X95452381Y-43511905D01*
X96452381Y-42940476D02*
X95880952Y-43369048D01*
X95452381Y-42940476D02*
X96023810Y-43511905D01*
X95452381Y-42035714D02*
X95452381Y-42511905D01*
X95928571Y-42559524D01*
X95880952Y-42511905D01*
X95833333Y-42416667D01*
X95833333Y-42178571D01*
X95880952Y-42083333D01*
X95928571Y-42035714D01*
X96023810Y-41988095D01*
X96261905Y-41988095D01*
X96357143Y-42035714D01*
X96404762Y-42083333D01*
X96452381Y-42178571D01*
X96452381Y-42416667D01*
X96404762Y-42511905D01*
X96357143Y-42559524D01*
X78452381Y-49535714D02*
X78452381Y-49726191D01*
X78500000Y-49821429D01*
X78547619Y-49869048D01*
X78690476Y-49964286D01*
X78880952Y-50011905D01*
X79261905Y-50011905D01*
X79357143Y-49964286D01*
X79404762Y-49916667D01*
X79452381Y-49821429D01*
X79452381Y-49630952D01*
X79404762Y-49535714D01*
X79357143Y-49488095D01*
X79261905Y-49440476D01*
X79023810Y-49440476D01*
X78928571Y-49488095D01*
X78880952Y-49535714D01*
X78833333Y-49630952D01*
X78833333Y-49821429D01*
X78880952Y-49916667D01*
X78928571Y-49964286D01*
X79023810Y-50011905D01*
X78880952Y-48869048D02*
X78833333Y-48964286D01*
X78785714Y-49011905D01*
X78690476Y-49059524D01*
X78642857Y-49059524D01*
X78547619Y-49011905D01*
X78500000Y-48964286D01*
X78452381Y-48869048D01*
X78452381Y-48678571D01*
X78500000Y-48583333D01*
X78547619Y-48535714D01*
X78642857Y-48488095D01*
X78690476Y-48488095D01*
X78785714Y-48535714D01*
X78833333Y-48583333D01*
X78880952Y-48678571D01*
X78880952Y-48869048D01*
X78928571Y-48964286D01*
X78976190Y-49011905D01*
X79071429Y-49059524D01*
X79261905Y-49059524D01*
X79357143Y-49011905D01*
X79404762Y-48964286D01*
X79452381Y-48869048D01*
X79452381Y-48678571D01*
X79404762Y-48583333D01*
X79357143Y-48535714D01*
X79261905Y-48488095D01*
X79071429Y-48488095D01*
X78976190Y-48535714D01*
X78928571Y-48583333D01*
X78880952Y-48678571D01*
X79452381Y-47488095D02*
X78976190Y-47821429D01*
X79452381Y-48059524D02*
X78452381Y-48059524D01*
X78452381Y-47678571D01*
X78500000Y-47583333D01*
X78547619Y-47535714D01*
X78642857Y-47488095D01*
X78785714Y-47488095D01*
X78880952Y-47535714D01*
X78928571Y-47583333D01*
X78976190Y-47678571D01*
X78976190Y-48059524D01*
X65452381Y-49535714D02*
X65452381Y-49726191D01*
X65500000Y-49821429D01*
X65547619Y-49869048D01*
X65690476Y-49964286D01*
X65880952Y-50011905D01*
X66261905Y-50011905D01*
X66357143Y-49964286D01*
X66404762Y-49916667D01*
X66452381Y-49821429D01*
X66452381Y-49630952D01*
X66404762Y-49535714D01*
X66357143Y-49488095D01*
X66261905Y-49440476D01*
X66023810Y-49440476D01*
X65928571Y-49488095D01*
X65880952Y-49535714D01*
X65833333Y-49630952D01*
X65833333Y-49821429D01*
X65880952Y-49916667D01*
X65928571Y-49964286D01*
X66023810Y-50011905D01*
X65880952Y-48869048D02*
X65833333Y-48964286D01*
X65785714Y-49011905D01*
X65690476Y-49059524D01*
X65642857Y-49059524D01*
X65547619Y-49011905D01*
X65500000Y-48964286D01*
X65452381Y-48869048D01*
X65452381Y-48678571D01*
X65500000Y-48583333D01*
X65547619Y-48535714D01*
X65642857Y-48488095D01*
X65690476Y-48488095D01*
X65785714Y-48535714D01*
X65833333Y-48583333D01*
X65880952Y-48678571D01*
X65880952Y-48869048D01*
X65928571Y-48964286D01*
X65976190Y-49011905D01*
X66071429Y-49059524D01*
X66261905Y-49059524D01*
X66357143Y-49011905D01*
X66404762Y-48964286D01*
X66452381Y-48869048D01*
X66452381Y-48678571D01*
X66404762Y-48583333D01*
X66357143Y-48535714D01*
X66261905Y-48488095D01*
X66071429Y-48488095D01*
X65976190Y-48535714D01*
X65928571Y-48583333D01*
X65880952Y-48678571D01*
X66452381Y-47488095D02*
X65976190Y-47821429D01*
X66452381Y-48059524D02*
X65452381Y-48059524D01*
X65452381Y-47678571D01*
X65500000Y-47583333D01*
X65547619Y-47535714D01*
X65642857Y-47488095D01*
X65785714Y-47488095D01*
X65880952Y-47535714D01*
X65928571Y-47583333D01*
X65976190Y-47678571D01*
X65976190Y-48059524D01*
X86964286Y-38952381D02*
X86773809Y-38952381D01*
X86678571Y-39000000D01*
X86630952Y-39047619D01*
X86535714Y-39190476D01*
X86488095Y-39380952D01*
X86488095Y-39761905D01*
X86535714Y-39857143D01*
X86583333Y-39904762D01*
X86678571Y-39952381D01*
X86869048Y-39952381D01*
X86964286Y-39904762D01*
X87011905Y-39857143D01*
X87059524Y-39761905D01*
X87059524Y-39523810D01*
X87011905Y-39428571D01*
X86964286Y-39380952D01*
X86869048Y-39333333D01*
X86678571Y-39333333D01*
X86583333Y-39380952D01*
X86535714Y-39428571D01*
X86488095Y-39523810D01*
X87630952Y-39380952D02*
X87535714Y-39333333D01*
X87488095Y-39285714D01*
X87440476Y-39190476D01*
X87440476Y-39142857D01*
X87488095Y-39047619D01*
X87535714Y-39000000D01*
X87630952Y-38952381D01*
X87821429Y-38952381D01*
X87916667Y-39000000D01*
X87964286Y-39047619D01*
X88011905Y-39142857D01*
X88011905Y-39190476D01*
X87964286Y-39285714D01*
X87916667Y-39333333D01*
X87821429Y-39380952D01*
X87630952Y-39380952D01*
X87535714Y-39428571D01*
X87488095Y-39476190D01*
X87440476Y-39571429D01*
X87440476Y-39761905D01*
X87488095Y-39857143D01*
X87535714Y-39904762D01*
X87630952Y-39952381D01*
X87821429Y-39952381D01*
X87916667Y-39904762D01*
X87964286Y-39857143D01*
X88011905Y-39761905D01*
X88011905Y-39571429D01*
X87964286Y-39476190D01*
X87916667Y-39428571D01*
X87821429Y-39380952D01*
X89011905Y-39952381D02*
X88678571Y-39476190D01*
X88440476Y-39952381D02*
X88440476Y-38952381D01*
X88821429Y-38952381D01*
X88916667Y-39000000D01*
X88964286Y-39047619D01*
X89011905Y-39142857D01*
X89011905Y-39285714D01*
X88964286Y-39380952D01*
X88916667Y-39428571D01*
X88821429Y-39476190D01*
X88440476Y-39476190D01*
X86964286Y-36452381D02*
X86773809Y-36452381D01*
X86678571Y-36500000D01*
X86630952Y-36547619D01*
X86535714Y-36690476D01*
X86488095Y-36880952D01*
X86488095Y-37261905D01*
X86535714Y-37357143D01*
X86583333Y-37404762D01*
X86678571Y-37452381D01*
X86869048Y-37452381D01*
X86964286Y-37404762D01*
X87011905Y-37357143D01*
X87059524Y-37261905D01*
X87059524Y-37023810D01*
X87011905Y-36928571D01*
X86964286Y-36880952D01*
X86869048Y-36833333D01*
X86678571Y-36833333D01*
X86583333Y-36880952D01*
X86535714Y-36928571D01*
X86488095Y-37023810D01*
X87630952Y-36880952D02*
X87535714Y-36833333D01*
X87488095Y-36785714D01*
X87440476Y-36690476D01*
X87440476Y-36642857D01*
X87488095Y-36547619D01*
X87535714Y-36500000D01*
X87630952Y-36452381D01*
X87821429Y-36452381D01*
X87916667Y-36500000D01*
X87964286Y-36547619D01*
X88011905Y-36642857D01*
X88011905Y-36690476D01*
X87964286Y-36785714D01*
X87916667Y-36833333D01*
X87821429Y-36880952D01*
X87630952Y-36880952D01*
X87535714Y-36928571D01*
X87488095Y-36976190D01*
X87440476Y-37071429D01*
X87440476Y-37261905D01*
X87488095Y-37357143D01*
X87535714Y-37404762D01*
X87630952Y-37452381D01*
X87821429Y-37452381D01*
X87916667Y-37404762D01*
X87964286Y-37357143D01*
X88011905Y-37261905D01*
X88011905Y-37071429D01*
X87964286Y-36976190D01*
X87916667Y-36928571D01*
X87821429Y-36880952D01*
X89011905Y-37452381D02*
X88678571Y-36976190D01*
X88440476Y-37452381D02*
X88440476Y-36452381D01*
X88821429Y-36452381D01*
X88916667Y-36500000D01*
X88964286Y-36547619D01*
X89011905Y-36642857D01*
X89011905Y-36785714D01*
X88964286Y-36880952D01*
X88916667Y-36928571D01*
X88821429Y-36976190D01*
X88440476Y-36976190D01*
X194535714Y-36047619D02*
X194583333Y-36000000D01*
X194678571Y-35952381D01*
X194916667Y-35952381D01*
X195011905Y-36000000D01*
X195059524Y-36047619D01*
X195107143Y-36142857D01*
X195107143Y-36238095D01*
X195059524Y-36380952D01*
X194488095Y-36952381D01*
X195107143Y-36952381D01*
X195726190Y-35952381D02*
X195821429Y-35952381D01*
X195916667Y-36000000D01*
X195964286Y-36047619D01*
X196011905Y-36142857D01*
X196059524Y-36333333D01*
X196059524Y-36571429D01*
X196011905Y-36761905D01*
X195964286Y-36857143D01*
X195916667Y-36904762D01*
X195821429Y-36952381D01*
X195726190Y-36952381D01*
X195630952Y-36904762D01*
X195583333Y-36857143D01*
X195535714Y-36761905D01*
X195488095Y-36571429D01*
X195488095Y-36333333D01*
X195535714Y-36142857D01*
X195583333Y-36047619D01*
X195630952Y-36000000D01*
X195726190Y-35952381D01*
X196488095Y-36285714D02*
X196488095Y-37285714D01*
X196488095Y-36333333D02*
X196583333Y-36285714D01*
X196773810Y-36285714D01*
X196869048Y-36333333D01*
X196916667Y-36380952D01*
X196964286Y-36476190D01*
X196964286Y-36761905D01*
X196916667Y-36857143D01*
X196869048Y-36904762D01*
X196773810Y-36952381D01*
X196583333Y-36952381D01*
X196488095Y-36904762D01*
X176535714Y-36047619D02*
X176583333Y-36000000D01*
X176678571Y-35952381D01*
X176916667Y-35952381D01*
X177011905Y-36000000D01*
X177059524Y-36047619D01*
X177107143Y-36142857D01*
X177107143Y-36238095D01*
X177059524Y-36380952D01*
X176488095Y-36952381D01*
X177107143Y-36952381D01*
X177726190Y-35952381D02*
X177821429Y-35952381D01*
X177916667Y-36000000D01*
X177964286Y-36047619D01*
X178011905Y-36142857D01*
X178059524Y-36333333D01*
X178059524Y-36571429D01*
X178011905Y-36761905D01*
X177964286Y-36857143D01*
X177916667Y-36904762D01*
X177821429Y-36952381D01*
X177726190Y-36952381D01*
X177630952Y-36904762D01*
X177583333Y-36857143D01*
X177535714Y-36761905D01*
X177488095Y-36571429D01*
X177488095Y-36333333D01*
X177535714Y-36142857D01*
X177583333Y-36047619D01*
X177630952Y-36000000D01*
X177726190Y-35952381D01*
X178488095Y-36285714D02*
X178488095Y-37285714D01*
X178488095Y-36333333D02*
X178583333Y-36285714D01*
X178773810Y-36285714D01*
X178869048Y-36333333D01*
X178916667Y-36380952D01*
X178964286Y-36476190D01*
X178964286Y-36761905D01*
X178916667Y-36857143D01*
X178869048Y-36904762D01*
X178773810Y-36952381D01*
X178583333Y-36952381D01*
X178488095Y-36904762D01*
X113523810Y-39785714D02*
X113523810Y-40452381D01*
X113285714Y-39404762D02*
X113047619Y-40119048D01*
X113666667Y-40119048D01*
X114047619Y-40357143D02*
X114095238Y-40404762D01*
X114047619Y-40452381D01*
X114000000Y-40404762D01*
X114047619Y-40357143D01*
X114047619Y-40452381D01*
X114428571Y-39452381D02*
X115095238Y-39452381D01*
X114666666Y-40452381D01*
X115904762Y-39785714D02*
X115904762Y-40452381D01*
X115476190Y-39785714D02*
X115476190Y-40309524D01*
X115523809Y-40404762D01*
X115619047Y-40452381D01*
X115761905Y-40452381D01*
X115857143Y-40404762D01*
X115904762Y-40357143D01*
X117380953Y-40452381D02*
X116809524Y-40452381D01*
X117095238Y-40452381D02*
X117095238Y-39452381D01*
X117000000Y-39595238D01*
X116904762Y-39690476D01*
X116809524Y-39738095D01*
X118000000Y-39452381D02*
X118095239Y-39452381D01*
X118190477Y-39500000D01*
X118238096Y-39547619D01*
X118285715Y-39642857D01*
X118333334Y-39833333D01*
X118333334Y-40071429D01*
X118285715Y-40261905D01*
X118238096Y-40357143D01*
X118190477Y-40404762D01*
X118095239Y-40452381D01*
X118000000Y-40452381D01*
X117904762Y-40404762D01*
X117857143Y-40357143D01*
X117809524Y-40261905D01*
X117761905Y-40071429D01*
X117761905Y-39833333D01*
X117809524Y-39642857D01*
X117857143Y-39547619D01*
X117904762Y-39500000D01*
X118000000Y-39452381D01*
X118952381Y-39452381D02*
X119047620Y-39452381D01*
X119142858Y-39500000D01*
X119190477Y-39547619D01*
X119238096Y-39642857D01*
X119285715Y-39833333D01*
X119285715Y-40071429D01*
X119238096Y-40261905D01*
X119190477Y-40357143D01*
X119142858Y-40404762D01*
X119047620Y-40452381D01*
X118952381Y-40452381D01*
X118857143Y-40404762D01*
X118809524Y-40357143D01*
X118761905Y-40261905D01*
X118714286Y-40071429D01*
X118714286Y-39833333D01*
X118761905Y-39642857D01*
X118809524Y-39547619D01*
X118857143Y-39500000D01*
X118952381Y-39452381D01*
X119714286Y-39785714D02*
X119714286Y-40452381D01*
X119714286Y-39880952D02*
X119761905Y-39833333D01*
X119857143Y-39785714D01*
X120000001Y-39785714D01*
X120095239Y-39833333D01*
X120142858Y-39928571D01*
X120142858Y-40452381D01*
X50595238Y-37341667D02*
X51071429Y-37341667D01*
X50500000Y-37627381D02*
X50833333Y-36627381D01*
X51166667Y-37627381D01*
X51976191Y-37627381D02*
X51500000Y-37627381D01*
X51500000Y-36627381D01*
X52166667Y-36627381D02*
X52738096Y-36627381D01*
X52452381Y-37627381D02*
X52452381Y-36627381D01*
X53833334Y-36627381D02*
X53833334Y-37436905D01*
X53880953Y-37532143D01*
X53928572Y-37579762D01*
X54023810Y-37627381D01*
X54214287Y-37627381D01*
X54309525Y-37579762D01*
X54357144Y-37532143D01*
X54404763Y-37436905D01*
X54404763Y-36627381D01*
X54833334Y-37579762D02*
X54976191Y-37627381D01*
X55214287Y-37627381D01*
X55309525Y-37579762D01*
X55357144Y-37532143D01*
X55404763Y-37436905D01*
X55404763Y-37341667D01*
X55357144Y-37246429D01*
X55309525Y-37198810D01*
X55214287Y-37151190D01*
X55023810Y-37103571D01*
X54928572Y-37055952D01*
X54880953Y-37008333D01*
X54833334Y-36913095D01*
X54833334Y-36817857D01*
X54880953Y-36722619D01*
X54928572Y-36675000D01*
X55023810Y-36627381D01*
X55261906Y-36627381D01*
X55404763Y-36675000D01*
X56166668Y-37103571D02*
X56309525Y-37151190D01*
X56357144Y-37198810D01*
X56404763Y-37294048D01*
X56404763Y-37436905D01*
X56357144Y-37532143D01*
X56309525Y-37579762D01*
X56214287Y-37627381D01*
X55833334Y-37627381D01*
X55833334Y-36627381D01*
X56166668Y-36627381D01*
X56261906Y-36675000D01*
X56309525Y-36722619D01*
X56357144Y-36817857D01*
X56357144Y-36913095D01*
X56309525Y-37008333D01*
X56261906Y-37055952D01*
X56166668Y-37103571D01*
X55833334Y-37103571D01*
X51833333Y-39277381D02*
X51833333Y-38277381D01*
X52214286Y-38277381D01*
X52309524Y-38325000D01*
X52357143Y-38372619D01*
X52404762Y-38467857D01*
X52404762Y-38610714D01*
X52357143Y-38705952D01*
X52309524Y-38753571D01*
X52214286Y-38801190D01*
X51833333Y-38801190D01*
X53023809Y-38277381D02*
X53214286Y-38277381D01*
X53309524Y-38325000D01*
X53404762Y-38420238D01*
X53452381Y-38610714D01*
X53452381Y-38944048D01*
X53404762Y-39134524D01*
X53309524Y-39229762D01*
X53214286Y-39277381D01*
X53023809Y-39277381D01*
X52928571Y-39229762D01*
X52833333Y-39134524D01*
X52785714Y-38944048D01*
X52785714Y-38610714D01*
X52833333Y-38420238D01*
X52928571Y-38325000D01*
X53023809Y-38277381D01*
X54452381Y-39277381D02*
X54119047Y-38801190D01*
X53880952Y-39277381D02*
X53880952Y-38277381D01*
X54261905Y-38277381D01*
X54357143Y-38325000D01*
X54404762Y-38372619D01*
X54452381Y-38467857D01*
X54452381Y-38610714D01*
X54404762Y-38705952D01*
X54357143Y-38753571D01*
X54261905Y-38801190D01*
X53880952Y-38801190D01*
X54738095Y-38277381D02*
X55309524Y-38277381D01*
X55023809Y-39277381D02*
X55023809Y-38277381D01*
X71238095Y-36627381D02*
X71238095Y-37436905D01*
X71285714Y-37532143D01*
X71333333Y-37579762D01*
X71428571Y-37627381D01*
X71619048Y-37627381D01*
X71714286Y-37579762D01*
X71761905Y-37532143D01*
X71809524Y-37436905D01*
X71809524Y-36627381D01*
X72238095Y-37579762D02*
X72380952Y-37627381D01*
X72619048Y-37627381D01*
X72714286Y-37579762D01*
X72761905Y-37532143D01*
X72809524Y-37436905D01*
X72809524Y-37341667D01*
X72761905Y-37246429D01*
X72714286Y-37198810D01*
X72619048Y-37151190D01*
X72428571Y-37103571D01*
X72333333Y-37055952D01*
X72285714Y-37008333D01*
X72238095Y-36913095D01*
X72238095Y-36817857D01*
X72285714Y-36722619D01*
X72333333Y-36675000D01*
X72428571Y-36627381D01*
X72666667Y-36627381D01*
X72809524Y-36675000D01*
X73571429Y-37103571D02*
X73714286Y-37151190D01*
X73761905Y-37198810D01*
X73809524Y-37294048D01*
X73809524Y-37436905D01*
X73761905Y-37532143D01*
X73714286Y-37579762D01*
X73619048Y-37627381D01*
X73238095Y-37627381D01*
X73238095Y-36627381D01*
X73571429Y-36627381D01*
X73666667Y-36675000D01*
X73714286Y-36722619D01*
X73761905Y-36817857D01*
X73761905Y-36913095D01*
X73714286Y-37008333D01*
X73666667Y-37055952D01*
X73571429Y-37103571D01*
X73238095Y-37103571D01*
X70833333Y-39277381D02*
X70833333Y-38277381D01*
X71214286Y-38277381D01*
X71309524Y-38325000D01*
X71357143Y-38372619D01*
X71404762Y-38467857D01*
X71404762Y-38610714D01*
X71357143Y-38705952D01*
X71309524Y-38753571D01*
X71214286Y-38801190D01*
X70833333Y-38801190D01*
X72023809Y-38277381D02*
X72214286Y-38277381D01*
X72309524Y-38325000D01*
X72404762Y-38420238D01*
X72452381Y-38610714D01*
X72452381Y-38944048D01*
X72404762Y-39134524D01*
X72309524Y-39229762D01*
X72214286Y-39277381D01*
X72023809Y-39277381D01*
X71928571Y-39229762D01*
X71833333Y-39134524D01*
X71785714Y-38944048D01*
X71785714Y-38610714D01*
X71833333Y-38420238D01*
X71928571Y-38325000D01*
X72023809Y-38277381D01*
X73452381Y-39277381D02*
X73119047Y-38801190D01*
X72880952Y-39277381D02*
X72880952Y-38277381D01*
X73261905Y-38277381D01*
X73357143Y-38325000D01*
X73404762Y-38372619D01*
X73452381Y-38467857D01*
X73452381Y-38610714D01*
X73404762Y-38705952D01*
X73357143Y-38753571D01*
X73261905Y-38801190D01*
X72880952Y-38801190D01*
X73738095Y-38277381D02*
X74309524Y-38277381D01*
X74023809Y-39277381D02*
X74023809Y-38277381D01*
X94190476Y-57404762D02*
X94333333Y-57452381D01*
X94571429Y-57452381D01*
X94666667Y-57404762D01*
X94714286Y-57357143D01*
X94761905Y-57261905D01*
X94761905Y-57166667D01*
X94714286Y-57071429D01*
X94666667Y-57023810D01*
X94571429Y-56976190D01*
X94380952Y-56928571D01*
X94285714Y-56880952D01*
X94238095Y-56833333D01*
X94190476Y-56738095D01*
X94190476Y-56642857D01*
X94238095Y-56547619D01*
X94285714Y-56500000D01*
X94380952Y-56452381D01*
X94619048Y-56452381D01*
X94761905Y-56500000D01*
X95761905Y-57357143D02*
X95714286Y-57404762D01*
X95571429Y-57452381D01*
X95476191Y-57452381D01*
X95333333Y-57404762D01*
X95238095Y-57309524D01*
X95190476Y-57214286D01*
X95142857Y-57023810D01*
X95142857Y-56880952D01*
X95190476Y-56690476D01*
X95238095Y-56595238D01*
X95333333Y-56500000D01*
X95476191Y-56452381D01*
X95571429Y-56452381D01*
X95714286Y-56500000D01*
X95761905Y-56547619D01*
X96761905Y-57452381D02*
X96428571Y-56976190D01*
X96190476Y-57452381D02*
X96190476Y-56452381D01*
X96571429Y-56452381D01*
X96666667Y-56500000D01*
X96714286Y-56547619D01*
X96761905Y-56642857D01*
X96761905Y-56785714D01*
X96714286Y-56880952D01*
X96666667Y-56928571D01*
X96571429Y-56976190D01*
X96190476Y-56976190D01*
X97190476Y-56928571D02*
X97523810Y-56928571D01*
X97666667Y-57452381D02*
X97190476Y-57452381D01*
X97190476Y-56452381D01*
X97666667Y-56452381D01*
X98000000Y-56452381D02*
X98238095Y-57452381D01*
X98428572Y-56738095D01*
X98619048Y-57452381D01*
X98857143Y-56452381D01*
X241190476Y-114904762D02*
X241333333Y-114952381D01*
X241571429Y-114952381D01*
X241666667Y-114904762D01*
X241714286Y-114857143D01*
X241761905Y-114761905D01*
X241761905Y-114666667D01*
X241714286Y-114571429D01*
X241666667Y-114523810D01*
X241571429Y-114476190D01*
X241380952Y-114428571D01*
X241285714Y-114380952D01*
X241238095Y-114333333D01*
X241190476Y-114238095D01*
X241190476Y-114142857D01*
X241238095Y-114047619D01*
X241285714Y-114000000D01*
X241380952Y-113952381D01*
X241619048Y-113952381D01*
X241761905Y-114000000D01*
X242761905Y-114857143D02*
X242714286Y-114904762D01*
X242571429Y-114952381D01*
X242476191Y-114952381D01*
X242333333Y-114904762D01*
X242238095Y-114809524D01*
X242190476Y-114714286D01*
X242142857Y-114523810D01*
X242142857Y-114380952D01*
X242190476Y-114190476D01*
X242238095Y-114095238D01*
X242333333Y-114000000D01*
X242476191Y-113952381D01*
X242571429Y-113952381D01*
X242714286Y-114000000D01*
X242761905Y-114047619D01*
X243761905Y-114952381D02*
X243428571Y-114476190D01*
X243190476Y-114952381D02*
X243190476Y-113952381D01*
X243571429Y-113952381D01*
X243666667Y-114000000D01*
X243714286Y-114047619D01*
X243761905Y-114142857D01*
X243761905Y-114285714D01*
X243714286Y-114380952D01*
X243666667Y-114428571D01*
X243571429Y-114476190D01*
X243190476Y-114476190D01*
X244190476Y-114428571D02*
X244523810Y-114428571D01*
X244666667Y-114952381D02*
X244190476Y-114952381D01*
X244190476Y-113952381D01*
X244666667Y-113952381D01*
X245000000Y-113952381D02*
X245238095Y-114952381D01*
X245428572Y-114238095D01*
X245619048Y-114952381D01*
X245857143Y-113952381D01*
X203190476Y-133904762D02*
X203333333Y-133952381D01*
X203571429Y-133952381D01*
X203666667Y-133904762D01*
X203714286Y-133857143D01*
X203761905Y-133761905D01*
X203761905Y-133666667D01*
X203714286Y-133571429D01*
X203666667Y-133523810D01*
X203571429Y-133476190D01*
X203380952Y-133428571D01*
X203285714Y-133380952D01*
X203238095Y-133333333D01*
X203190476Y-133238095D01*
X203190476Y-133142857D01*
X203238095Y-133047619D01*
X203285714Y-133000000D01*
X203380952Y-132952381D01*
X203619048Y-132952381D01*
X203761905Y-133000000D01*
X204761905Y-133857143D02*
X204714286Y-133904762D01*
X204571429Y-133952381D01*
X204476191Y-133952381D01*
X204333333Y-133904762D01*
X204238095Y-133809524D01*
X204190476Y-133714286D01*
X204142857Y-133523810D01*
X204142857Y-133380952D01*
X204190476Y-133190476D01*
X204238095Y-133095238D01*
X204333333Y-133000000D01*
X204476191Y-132952381D01*
X204571429Y-132952381D01*
X204714286Y-133000000D01*
X204761905Y-133047619D01*
X205761905Y-133952381D02*
X205428571Y-133476190D01*
X205190476Y-133952381D02*
X205190476Y-132952381D01*
X205571429Y-132952381D01*
X205666667Y-133000000D01*
X205714286Y-133047619D01*
X205761905Y-133142857D01*
X205761905Y-133285714D01*
X205714286Y-133380952D01*
X205666667Y-133428571D01*
X205571429Y-133476190D01*
X205190476Y-133476190D01*
X206190476Y-133428571D02*
X206523810Y-133428571D01*
X206666667Y-133952381D02*
X206190476Y-133952381D01*
X206190476Y-132952381D01*
X206666667Y-132952381D01*
X207000000Y-132952381D02*
X207238095Y-133952381D01*
X207428572Y-133238095D01*
X207619048Y-133952381D01*
X207857143Y-132952381D01*
X203190476Y-95904762D02*
X203333333Y-95952381D01*
X203571429Y-95952381D01*
X203666667Y-95904762D01*
X203714286Y-95857143D01*
X203761905Y-95761905D01*
X203761905Y-95666667D01*
X203714286Y-95571429D01*
X203666667Y-95523810D01*
X203571429Y-95476190D01*
X203380952Y-95428571D01*
X203285714Y-95380952D01*
X203238095Y-95333333D01*
X203190476Y-95238095D01*
X203190476Y-95142857D01*
X203238095Y-95047619D01*
X203285714Y-95000000D01*
X203380952Y-94952381D01*
X203619048Y-94952381D01*
X203761905Y-95000000D01*
X204761905Y-95857143D02*
X204714286Y-95904762D01*
X204571429Y-95952381D01*
X204476191Y-95952381D01*
X204333333Y-95904762D01*
X204238095Y-95809524D01*
X204190476Y-95714286D01*
X204142857Y-95523810D01*
X204142857Y-95380952D01*
X204190476Y-95190476D01*
X204238095Y-95095238D01*
X204333333Y-95000000D01*
X204476191Y-94952381D01*
X204571429Y-94952381D01*
X204714286Y-95000000D01*
X204761905Y-95047619D01*
X205761905Y-95952381D02*
X205428571Y-95476190D01*
X205190476Y-95952381D02*
X205190476Y-94952381D01*
X205571429Y-94952381D01*
X205666667Y-95000000D01*
X205714286Y-95047619D01*
X205761905Y-95142857D01*
X205761905Y-95285714D01*
X205714286Y-95380952D01*
X205666667Y-95428571D01*
X205571429Y-95476190D01*
X205190476Y-95476190D01*
X206190476Y-95428571D02*
X206523810Y-95428571D01*
X206666667Y-95952381D02*
X206190476Y-95952381D01*
X206190476Y-94952381D01*
X206666667Y-94952381D01*
X207000000Y-94952381D02*
X207238095Y-95952381D01*
X207428572Y-95238095D01*
X207619048Y-95952381D01*
X207857143Y-94952381D01*
X89190476Y-95904762D02*
X89333333Y-95952381D01*
X89571429Y-95952381D01*
X89666667Y-95904762D01*
X89714286Y-95857143D01*
X89761905Y-95761905D01*
X89761905Y-95666667D01*
X89714286Y-95571429D01*
X89666667Y-95523810D01*
X89571429Y-95476190D01*
X89380952Y-95428571D01*
X89285714Y-95380952D01*
X89238095Y-95333333D01*
X89190476Y-95238095D01*
X89190476Y-95142857D01*
X89238095Y-95047619D01*
X89285714Y-95000000D01*
X89380952Y-94952381D01*
X89619048Y-94952381D01*
X89761905Y-95000000D01*
X90761905Y-95857143D02*
X90714286Y-95904762D01*
X90571429Y-95952381D01*
X90476191Y-95952381D01*
X90333333Y-95904762D01*
X90238095Y-95809524D01*
X90190476Y-95714286D01*
X90142857Y-95523810D01*
X90142857Y-95380952D01*
X90190476Y-95190476D01*
X90238095Y-95095238D01*
X90333333Y-95000000D01*
X90476191Y-94952381D01*
X90571429Y-94952381D01*
X90714286Y-95000000D01*
X90761905Y-95047619D01*
X91761905Y-95952381D02*
X91428571Y-95476190D01*
X91190476Y-95952381D02*
X91190476Y-94952381D01*
X91571429Y-94952381D01*
X91666667Y-95000000D01*
X91714286Y-95047619D01*
X91761905Y-95142857D01*
X91761905Y-95285714D01*
X91714286Y-95380952D01*
X91666667Y-95428571D01*
X91571429Y-95476190D01*
X91190476Y-95476190D01*
X92190476Y-95428571D02*
X92523810Y-95428571D01*
X92666667Y-95952381D02*
X92190476Y-95952381D01*
X92190476Y-94952381D01*
X92666667Y-94952381D01*
X93000000Y-94952381D02*
X93238095Y-95952381D01*
X93428572Y-95238095D01*
X93619048Y-95952381D01*
X93857143Y-94952381D01*
X89190476Y-133904762D02*
X89333333Y-133952381D01*
X89571429Y-133952381D01*
X89666667Y-133904762D01*
X89714286Y-133857143D01*
X89761905Y-133761905D01*
X89761905Y-133666667D01*
X89714286Y-133571429D01*
X89666667Y-133523810D01*
X89571429Y-133476190D01*
X89380952Y-133428571D01*
X89285714Y-133380952D01*
X89238095Y-133333333D01*
X89190476Y-133238095D01*
X89190476Y-133142857D01*
X89238095Y-133047619D01*
X89285714Y-133000000D01*
X89380952Y-132952381D01*
X89619048Y-132952381D01*
X89761905Y-133000000D01*
X90761905Y-133857143D02*
X90714286Y-133904762D01*
X90571429Y-133952381D01*
X90476191Y-133952381D01*
X90333333Y-133904762D01*
X90238095Y-133809524D01*
X90190476Y-133714286D01*
X90142857Y-133523810D01*
X90142857Y-133380952D01*
X90190476Y-133190476D01*
X90238095Y-133095238D01*
X90333333Y-133000000D01*
X90476191Y-132952381D01*
X90571429Y-132952381D01*
X90714286Y-133000000D01*
X90761905Y-133047619D01*
X91761905Y-133952381D02*
X91428571Y-133476190D01*
X91190476Y-133952381D02*
X91190476Y-132952381D01*
X91571429Y-132952381D01*
X91666667Y-133000000D01*
X91714286Y-133047619D01*
X91761905Y-133142857D01*
X91761905Y-133285714D01*
X91714286Y-133380952D01*
X91666667Y-133428571D01*
X91571429Y-133476190D01*
X91190476Y-133476190D01*
X92190476Y-133428571D02*
X92523810Y-133428571D01*
X92666667Y-133952381D02*
X92190476Y-133952381D01*
X92190476Y-132952381D01*
X92666667Y-132952381D01*
X93000000Y-132952381D02*
X93238095Y-133952381D01*
X93428572Y-133238095D01*
X93619048Y-133952381D01*
X93857143Y-132952381D01*
X51190476Y-114904762D02*
X51333333Y-114952381D01*
X51571429Y-114952381D01*
X51666667Y-114904762D01*
X51714286Y-114857143D01*
X51761905Y-114761905D01*
X51761905Y-114666667D01*
X51714286Y-114571429D01*
X51666667Y-114523810D01*
X51571429Y-114476190D01*
X51380952Y-114428571D01*
X51285714Y-114380952D01*
X51238095Y-114333333D01*
X51190476Y-114238095D01*
X51190476Y-114142857D01*
X51238095Y-114047619D01*
X51285714Y-114000000D01*
X51380952Y-113952381D01*
X51619048Y-113952381D01*
X51761905Y-114000000D01*
X52761905Y-114857143D02*
X52714286Y-114904762D01*
X52571429Y-114952381D01*
X52476191Y-114952381D01*
X52333333Y-114904762D01*
X52238095Y-114809524D01*
X52190476Y-114714286D01*
X52142857Y-114523810D01*
X52142857Y-114380952D01*
X52190476Y-114190476D01*
X52238095Y-114095238D01*
X52333333Y-114000000D01*
X52476191Y-113952381D01*
X52571429Y-113952381D01*
X52714286Y-114000000D01*
X52761905Y-114047619D01*
X53761905Y-114952381D02*
X53428571Y-114476190D01*
X53190476Y-114952381D02*
X53190476Y-113952381D01*
X53571429Y-113952381D01*
X53666667Y-114000000D01*
X53714286Y-114047619D01*
X53761905Y-114142857D01*
X53761905Y-114285714D01*
X53714286Y-114380952D01*
X53666667Y-114428571D01*
X53571429Y-114476190D01*
X53190476Y-114476190D01*
X54190476Y-114428571D02*
X54523810Y-114428571D01*
X54666667Y-114952381D02*
X54190476Y-114952381D01*
X54190476Y-113952381D01*
X54666667Y-113952381D01*
X55000000Y-113952381D02*
X55238095Y-114952381D01*
X55428572Y-114238095D01*
X55619048Y-114952381D01*
X55857143Y-113952381D01*
X37190476Y-43904762D02*
X37333333Y-43952381D01*
X37571429Y-43952381D01*
X37666667Y-43904762D01*
X37714286Y-43857143D01*
X37761905Y-43761905D01*
X37761905Y-43666667D01*
X37714286Y-43571429D01*
X37666667Y-43523810D01*
X37571429Y-43476190D01*
X37380952Y-43428571D01*
X37285714Y-43380952D01*
X37238095Y-43333333D01*
X37190476Y-43238095D01*
X37190476Y-43142857D01*
X37238095Y-43047619D01*
X37285714Y-43000000D01*
X37380952Y-42952381D01*
X37619048Y-42952381D01*
X37761905Y-43000000D01*
X38761905Y-43857143D02*
X38714286Y-43904762D01*
X38571429Y-43952381D01*
X38476191Y-43952381D01*
X38333333Y-43904762D01*
X38238095Y-43809524D01*
X38190476Y-43714286D01*
X38142857Y-43523810D01*
X38142857Y-43380952D01*
X38190476Y-43190476D01*
X38238095Y-43095238D01*
X38333333Y-43000000D01*
X38476191Y-42952381D01*
X38571429Y-42952381D01*
X38714286Y-43000000D01*
X38761905Y-43047619D01*
X39761905Y-43952381D02*
X39428571Y-43476190D01*
X39190476Y-43952381D02*
X39190476Y-42952381D01*
X39571429Y-42952381D01*
X39666667Y-43000000D01*
X39714286Y-43047619D01*
X39761905Y-43142857D01*
X39761905Y-43285714D01*
X39714286Y-43380952D01*
X39666667Y-43428571D01*
X39571429Y-43476190D01*
X39190476Y-43476190D01*
X40190476Y-43428571D02*
X40523810Y-43428571D01*
X40666667Y-43952381D02*
X40190476Y-43952381D01*
X40190476Y-42952381D01*
X40666667Y-42952381D01*
X41000000Y-42952381D02*
X41238095Y-43952381D01*
X41428572Y-43238095D01*
X41619048Y-43952381D01*
X41857143Y-42952381D01*
X200190476Y-42404762D02*
X200333333Y-42452381D01*
X200571429Y-42452381D01*
X200666667Y-42404762D01*
X200714286Y-42357143D01*
X200761905Y-42261905D01*
X200761905Y-42166667D01*
X200714286Y-42071429D01*
X200666667Y-42023810D01*
X200571429Y-41976190D01*
X200380952Y-41928571D01*
X200285714Y-41880952D01*
X200238095Y-41833333D01*
X200190476Y-41738095D01*
X200190476Y-41642857D01*
X200238095Y-41547619D01*
X200285714Y-41500000D01*
X200380952Y-41452381D01*
X200619048Y-41452381D01*
X200761905Y-41500000D01*
X201761905Y-42357143D02*
X201714286Y-42404762D01*
X201571429Y-42452381D01*
X201476191Y-42452381D01*
X201333333Y-42404762D01*
X201238095Y-42309524D01*
X201190476Y-42214286D01*
X201142857Y-42023810D01*
X201142857Y-41880952D01*
X201190476Y-41690476D01*
X201238095Y-41595238D01*
X201333333Y-41500000D01*
X201476191Y-41452381D01*
X201571429Y-41452381D01*
X201714286Y-41500000D01*
X201761905Y-41547619D01*
X202761905Y-42452381D02*
X202428571Y-41976190D01*
X202190476Y-42452381D02*
X202190476Y-41452381D01*
X202571429Y-41452381D01*
X202666667Y-41500000D01*
X202714286Y-41547619D01*
X202761905Y-41642857D01*
X202761905Y-41785714D01*
X202714286Y-41880952D01*
X202666667Y-41928571D01*
X202571429Y-41976190D01*
X202190476Y-41976190D01*
X203190476Y-41928571D02*
X203523810Y-41928571D01*
X203666667Y-42452381D02*
X203190476Y-42452381D01*
X203190476Y-41452381D01*
X203666667Y-41452381D01*
X204000000Y-41452381D02*
X204238095Y-42452381D01*
X204428572Y-41738095D01*
X204619048Y-42452381D01*
X204857143Y-41452381D01*
X250690476Y-52904762D02*
X250833333Y-52952381D01*
X251071429Y-52952381D01*
X251166667Y-52904762D01*
X251214286Y-52857143D01*
X251261905Y-52761905D01*
X251261905Y-52666667D01*
X251214286Y-52571429D01*
X251166667Y-52523810D01*
X251071429Y-52476190D01*
X250880952Y-52428571D01*
X250785714Y-52380952D01*
X250738095Y-52333333D01*
X250690476Y-52238095D01*
X250690476Y-52142857D01*
X250738095Y-52047619D01*
X250785714Y-52000000D01*
X250880952Y-51952381D01*
X251119048Y-51952381D01*
X251261905Y-52000000D01*
X252261905Y-52857143D02*
X252214286Y-52904762D01*
X252071429Y-52952381D01*
X251976191Y-52952381D01*
X251833333Y-52904762D01*
X251738095Y-52809524D01*
X251690476Y-52714286D01*
X251642857Y-52523810D01*
X251642857Y-52380952D01*
X251690476Y-52190476D01*
X251738095Y-52095238D01*
X251833333Y-52000000D01*
X251976191Y-51952381D01*
X252071429Y-51952381D01*
X252214286Y-52000000D01*
X252261905Y-52047619D01*
X253261905Y-52952381D02*
X252928571Y-52476190D01*
X252690476Y-52952381D02*
X252690476Y-51952381D01*
X253071429Y-51952381D01*
X253166667Y-52000000D01*
X253214286Y-52047619D01*
X253261905Y-52142857D01*
X253261905Y-52285714D01*
X253214286Y-52380952D01*
X253166667Y-52428571D01*
X253071429Y-52476190D01*
X252690476Y-52476190D01*
X253690476Y-52428571D02*
X254023810Y-52428571D01*
X254166667Y-52952381D02*
X253690476Y-52952381D01*
X253690476Y-51952381D01*
X254166667Y-51952381D01*
X254500000Y-51952381D02*
X254738095Y-52952381D01*
X254928572Y-52238095D01*
X255119048Y-52952381D01*
X255357143Y-51952381D01*
X243421429Y-37878571D02*
X243564286Y-37926190D01*
X243611905Y-37973810D01*
X243659524Y-38069048D01*
X243659524Y-38211905D01*
X243611905Y-38307143D01*
X243564286Y-38354762D01*
X243469048Y-38402381D01*
X243088095Y-38402381D01*
X243088095Y-37402381D01*
X243421429Y-37402381D01*
X243516667Y-37450000D01*
X243564286Y-37497619D01*
X243611905Y-37592857D01*
X243611905Y-37688095D01*
X243564286Y-37783333D01*
X243516667Y-37830952D01*
X243421429Y-37878571D01*
X243088095Y-37878571D01*
X244088095Y-37402381D02*
X244088095Y-38211905D01*
X244135714Y-38307143D01*
X244183333Y-38354762D01*
X244278571Y-38402381D01*
X244469048Y-38402381D01*
X244564286Y-38354762D01*
X244611905Y-38307143D01*
X244659524Y-38211905D01*
X244659524Y-37402381D01*
X245135714Y-38402381D02*
X245135714Y-37402381D01*
X246088095Y-38402381D02*
X245611904Y-38402381D01*
X245611904Y-37402381D01*
X246278571Y-37402381D02*
X246850000Y-37402381D01*
X246564285Y-38402381D02*
X246564285Y-37402381D01*
X248278572Y-37878571D02*
X248421429Y-37926190D01*
X248469048Y-37973810D01*
X248516667Y-38069048D01*
X248516667Y-38211905D01*
X248469048Y-38307143D01*
X248421429Y-38354762D01*
X248326191Y-38402381D01*
X247945238Y-38402381D01*
X247945238Y-37402381D01*
X248278572Y-37402381D01*
X248373810Y-37450000D01*
X248421429Y-37497619D01*
X248469048Y-37592857D01*
X248469048Y-37688095D01*
X248421429Y-37783333D01*
X248373810Y-37830952D01*
X248278572Y-37878571D01*
X247945238Y-37878571D01*
X249135714Y-37926190D02*
X249135714Y-38402381D01*
X248802381Y-37402381D02*
X249135714Y-37926190D01*
X249469048Y-37402381D01*
X258373810Y-53952381D02*
X258373810Y-52952381D01*
X258802381Y-53047619D02*
X258850000Y-53000000D01*
X258945238Y-52952381D01*
X259183334Y-52952381D01*
X259278572Y-53000000D01*
X259326191Y-53047619D01*
X259373810Y-53142857D01*
X259373810Y-53238095D01*
X259326191Y-53380952D01*
X258754762Y-53952381D01*
X259373810Y-53952381D01*
X260373810Y-53857143D02*
X260326191Y-53904762D01*
X260183334Y-53952381D01*
X260088096Y-53952381D01*
X259945238Y-53904762D01*
X259850000Y-53809524D01*
X259802381Y-53714286D01*
X259754762Y-53523810D01*
X259754762Y-53380952D01*
X259802381Y-53190476D01*
X259850000Y-53095238D01*
X259945238Y-53000000D01*
X260088096Y-52952381D01*
X260183334Y-52952381D01*
X260326191Y-53000000D01*
X260373810Y-53047619D01*
X223573810Y-42102381D02*
X223573810Y-41102381D01*
X224002381Y-41197619D02*
X224050000Y-41150000D01*
X224145238Y-41102381D01*
X224383334Y-41102381D01*
X224478572Y-41150000D01*
X224526191Y-41197619D01*
X224573810Y-41292857D01*
X224573810Y-41388095D01*
X224526191Y-41530952D01*
X223954762Y-42102381D01*
X224573810Y-42102381D01*
X225573810Y-42007143D02*
X225526191Y-42054762D01*
X225383334Y-42102381D01*
X225288096Y-42102381D01*
X225145238Y-42054762D01*
X225050000Y-41959524D01*
X225002381Y-41864286D01*
X224954762Y-41673810D01*
X224954762Y-41530952D01*
X225002381Y-41340476D01*
X225050000Y-41245238D01*
X225145238Y-41150000D01*
X225288096Y-41102381D01*
X225383334Y-41102381D01*
X225526191Y-41150000D01*
X225573810Y-41197619D01*
X36723810Y-53952381D02*
X36723810Y-52952381D01*
X37152381Y-53047619D02*
X37200000Y-53000000D01*
X37295238Y-52952381D01*
X37533334Y-52952381D01*
X37628572Y-53000000D01*
X37676191Y-53047619D01*
X37723810Y-53142857D01*
X37723810Y-53238095D01*
X37676191Y-53380952D01*
X37104762Y-53952381D01*
X37723810Y-53952381D01*
X38723810Y-53857143D02*
X38676191Y-53904762D01*
X38533334Y-53952381D01*
X38438096Y-53952381D01*
X38295238Y-53904762D01*
X38200000Y-53809524D01*
X38152381Y-53714286D01*
X38104762Y-53523810D01*
X38104762Y-53380952D01*
X38152381Y-53190476D01*
X38200000Y-53095238D01*
X38295238Y-53000000D01*
X38438096Y-52952381D01*
X38533334Y-52952381D01*
X38676191Y-53000000D01*
X38723810Y-53047619D01*
X231928571Y-37928571D02*
X232261905Y-37928571D01*
X232404762Y-38452381D02*
X231928571Y-38452381D01*
X231928571Y-37452381D01*
X232404762Y-37452381D01*
X232833333Y-38452381D02*
X232833333Y-37452381D01*
X233404762Y-38452381D01*
X233404762Y-37452381D01*
X234452381Y-38357143D02*
X234404762Y-38404762D01*
X234261905Y-38452381D01*
X234166667Y-38452381D01*
X234023809Y-38404762D01*
X233928571Y-38309524D01*
X233880952Y-38214286D01*
X233833333Y-38023810D01*
X233833333Y-37880952D01*
X233880952Y-37690476D01*
X233928571Y-37595238D01*
X234023809Y-37500000D01*
X234166667Y-37452381D01*
X234261905Y-37452381D01*
X234404762Y-37500000D01*
X234452381Y-37547619D01*
X235071428Y-37452381D02*
X235261905Y-37452381D01*
X235357143Y-37500000D01*
X235452381Y-37595238D01*
X235500000Y-37785714D01*
X235500000Y-38119048D01*
X235452381Y-38309524D01*
X235357143Y-38404762D01*
X235261905Y-38452381D01*
X235071428Y-38452381D01*
X234976190Y-38404762D01*
X234880952Y-38309524D01*
X234833333Y-38119048D01*
X234833333Y-37785714D01*
X234880952Y-37595238D01*
X234976190Y-37500000D01*
X235071428Y-37452381D01*
X235928571Y-38452381D02*
X235928571Y-37452381D01*
X236166666Y-37452381D01*
X236309524Y-37500000D01*
X236404762Y-37595238D01*
X236452381Y-37690476D01*
X236500000Y-37880952D01*
X236500000Y-38023810D01*
X236452381Y-38214286D01*
X236404762Y-38309524D01*
X236309524Y-38404762D01*
X236166666Y-38452381D01*
X235928571Y-38452381D01*
X236928571Y-37928571D02*
X237261905Y-37928571D01*
X237404762Y-38452381D02*
X236928571Y-38452381D01*
X236928571Y-37452381D01*
X237404762Y-37452381D01*
X238404762Y-38452381D02*
X238071428Y-37976190D01*
X237833333Y-38452381D02*
X237833333Y-37452381D01*
X238214286Y-37452381D01*
X238309524Y-37500000D01*
X238357143Y-37547619D01*
X238404762Y-37642857D01*
X238404762Y-37785714D01*
X238357143Y-37880952D01*
X238309524Y-37928571D01*
X238214286Y-37976190D01*
X237833333Y-37976190D01*
X239547619Y-37547619D02*
X239595238Y-37500000D01*
X239690476Y-37452381D01*
X239928572Y-37452381D01*
X240023810Y-37500000D01*
X240071429Y-37547619D01*
X240119048Y-37642857D01*
X240119048Y-37738095D01*
X240071429Y-37880952D01*
X239500000Y-38452381D01*
X240119048Y-38452381D01*
X208928571Y-37928571D02*
X209261905Y-37928571D01*
X209404762Y-38452381D02*
X208928571Y-38452381D01*
X208928571Y-37452381D01*
X209404762Y-37452381D01*
X209833333Y-38452381D02*
X209833333Y-37452381D01*
X210404762Y-38452381D01*
X210404762Y-37452381D01*
X211452381Y-38357143D02*
X211404762Y-38404762D01*
X211261905Y-38452381D01*
X211166667Y-38452381D01*
X211023809Y-38404762D01*
X210928571Y-38309524D01*
X210880952Y-38214286D01*
X210833333Y-38023810D01*
X210833333Y-37880952D01*
X210880952Y-37690476D01*
X210928571Y-37595238D01*
X211023809Y-37500000D01*
X211166667Y-37452381D01*
X211261905Y-37452381D01*
X211404762Y-37500000D01*
X211452381Y-37547619D01*
X212071428Y-37452381D02*
X212261905Y-37452381D01*
X212357143Y-37500000D01*
X212452381Y-37595238D01*
X212500000Y-37785714D01*
X212500000Y-38119048D01*
X212452381Y-38309524D01*
X212357143Y-38404762D01*
X212261905Y-38452381D01*
X212071428Y-38452381D01*
X211976190Y-38404762D01*
X211880952Y-38309524D01*
X211833333Y-38119048D01*
X211833333Y-37785714D01*
X211880952Y-37595238D01*
X211976190Y-37500000D01*
X212071428Y-37452381D01*
X212928571Y-38452381D02*
X212928571Y-37452381D01*
X213166666Y-37452381D01*
X213309524Y-37500000D01*
X213404762Y-37595238D01*
X213452381Y-37690476D01*
X213500000Y-37880952D01*
X213500000Y-38023810D01*
X213452381Y-38214286D01*
X213404762Y-38309524D01*
X213309524Y-38404762D01*
X213166666Y-38452381D01*
X212928571Y-38452381D01*
X213928571Y-37928571D02*
X214261905Y-37928571D01*
X214404762Y-38452381D02*
X213928571Y-38452381D01*
X213928571Y-37452381D01*
X214404762Y-37452381D01*
X215404762Y-38452381D02*
X215071428Y-37976190D01*
X214833333Y-38452381D02*
X214833333Y-37452381D01*
X215214286Y-37452381D01*
X215309524Y-37500000D01*
X215357143Y-37547619D01*
X215404762Y-37642857D01*
X215404762Y-37785714D01*
X215357143Y-37880952D01*
X215309524Y-37928571D01*
X215214286Y-37976190D01*
X214833333Y-37976190D01*
X217119048Y-38452381D02*
X216547619Y-38452381D01*
X216833333Y-38452381D02*
X216833333Y-37452381D01*
X216738095Y-37595238D01*
X216642857Y-37690476D01*
X216547619Y-37738095D01*
X176578572Y-56452381D02*
X176578572Y-55452381D01*
X176816667Y-55452381D01*
X176959525Y-55500000D01*
X177054763Y-55595238D01*
X177102382Y-55690476D01*
X177150001Y-55880952D01*
X177150001Y-56023810D01*
X177102382Y-56214286D01*
X177054763Y-56309524D01*
X176959525Y-56404762D01*
X176816667Y-56452381D01*
X176578572Y-56452381D01*
X177578572Y-56452381D02*
X177578572Y-55452381D01*
X178054762Y-56452381D02*
X178054762Y-55452381D01*
X178435715Y-55452381D01*
X178530953Y-55500000D01*
X178578572Y-55547619D01*
X178626191Y-55642857D01*
X178626191Y-55785714D01*
X178578572Y-55880952D01*
X178530953Y-55928571D01*
X178435715Y-55976190D01*
X178054762Y-55976190D01*
X179769048Y-56404762D02*
X179911905Y-56452381D01*
X180150001Y-56452381D01*
X180245239Y-56404762D01*
X180292858Y-56357143D01*
X180340477Y-56261905D01*
X180340477Y-56166667D01*
X180292858Y-56071429D01*
X180245239Y-56023810D01*
X180150001Y-55976190D01*
X179959524Y-55928571D01*
X179864286Y-55880952D01*
X179816667Y-55833333D01*
X179769048Y-55738095D01*
X179769048Y-55642857D01*
X179816667Y-55547619D01*
X179864286Y-55500000D01*
X179959524Y-55452381D01*
X180197620Y-55452381D01*
X180340477Y-55500000D01*
X180673810Y-55452381D02*
X180911905Y-56452381D01*
X181102382Y-55738095D01*
X181292858Y-56452381D01*
X181530953Y-55452381D01*
X181911905Y-56452381D02*
X181911905Y-55452381D01*
X182245238Y-55452381D02*
X182816667Y-55452381D01*
X182530952Y-56452381D02*
X182530952Y-55452381D01*
X183721429Y-56357143D02*
X183673810Y-56404762D01*
X183530953Y-56452381D01*
X183435715Y-56452381D01*
X183292857Y-56404762D01*
X183197619Y-56309524D01*
X183150000Y-56214286D01*
X183102381Y-56023810D01*
X183102381Y-55880952D01*
X183150000Y-55690476D01*
X183197619Y-55595238D01*
X183292857Y-55500000D01*
X183435715Y-55452381D01*
X183530953Y-55452381D01*
X183673810Y-55500000D01*
X183721429Y-55547619D01*
X184150000Y-56452381D02*
X184150000Y-55452381D01*
X184150000Y-55928571D02*
X184721429Y-55928571D01*
X184721429Y-56452381D02*
X184721429Y-55452381D01*
X141940476Y-58702381D02*
X141940476Y-57702381D01*
X142273810Y-58416667D01*
X142607143Y-57702381D01*
X142607143Y-58702381D01*
X143083333Y-58702381D02*
X143083333Y-57702381D01*
X144130952Y-58607143D02*
X144083333Y-58654762D01*
X143940476Y-58702381D01*
X143845238Y-58702381D01*
X143702380Y-58654762D01*
X143607142Y-58559524D01*
X143559523Y-58464286D01*
X143511904Y-58273810D01*
X143511904Y-58130952D01*
X143559523Y-57940476D01*
X143607142Y-57845238D01*
X143702380Y-57750000D01*
X143845238Y-57702381D01*
X143940476Y-57702381D01*
X144083333Y-57750000D01*
X144130952Y-57797619D01*
X145130952Y-58702381D02*
X144797618Y-58226190D01*
X144559523Y-58702381D02*
X144559523Y-57702381D01*
X144940476Y-57702381D01*
X145035714Y-57750000D01*
X145083333Y-57797619D01*
X145130952Y-57892857D01*
X145130952Y-58035714D01*
X145083333Y-58130952D01*
X145035714Y-58178571D01*
X144940476Y-58226190D01*
X144559523Y-58226190D01*
X145749999Y-57702381D02*
X145940476Y-57702381D01*
X146035714Y-57750000D01*
X146130952Y-57845238D01*
X146178571Y-58035714D01*
X146178571Y-58369048D01*
X146130952Y-58559524D01*
X146035714Y-58654762D01*
X145940476Y-58702381D01*
X145749999Y-58702381D01*
X145654761Y-58654762D01*
X145559523Y-58559524D01*
X145511904Y-58369048D01*
X145511904Y-58035714D01*
X145559523Y-57845238D01*
X145654761Y-57750000D01*
X145749999Y-57702381D01*
X147178571Y-58607143D02*
X147130952Y-58654762D01*
X146988095Y-58702381D01*
X146892857Y-58702381D01*
X146749999Y-58654762D01*
X146654761Y-58559524D01*
X146607142Y-58464286D01*
X146559523Y-58273810D01*
X146559523Y-58130952D01*
X146607142Y-57940476D01*
X146654761Y-57845238D01*
X146749999Y-57750000D01*
X146892857Y-57702381D01*
X146988095Y-57702381D01*
X147130952Y-57750000D01*
X147178571Y-57797619D01*
X147797618Y-57702381D02*
X147988095Y-57702381D01*
X148083333Y-57750000D01*
X148178571Y-57845238D01*
X148226190Y-58035714D01*
X148226190Y-58369048D01*
X148178571Y-58559524D01*
X148083333Y-58654762D01*
X147988095Y-58702381D01*
X147797618Y-58702381D01*
X147702380Y-58654762D01*
X147607142Y-58559524D01*
X147559523Y-58369048D01*
X147559523Y-58035714D01*
X147607142Y-57845238D01*
X147702380Y-57750000D01*
X147797618Y-57702381D01*
X148654761Y-58702381D02*
X148654761Y-57702381D01*
X149226190Y-58702381D01*
X149226190Y-57702381D01*
X149559523Y-57702381D02*
X150130952Y-57702381D01*
X149845237Y-58702381D02*
X149845237Y-57702381D01*
X151035714Y-58702381D02*
X150702380Y-58226190D01*
X150464285Y-58702381D02*
X150464285Y-57702381D01*
X150845238Y-57702381D01*
X150940476Y-57750000D01*
X150988095Y-57797619D01*
X151035714Y-57892857D01*
X151035714Y-58035714D01*
X150988095Y-58130952D01*
X150940476Y-58178571D01*
X150845238Y-58226190D01*
X150464285Y-58226190D01*
X151654761Y-57702381D02*
X151845238Y-57702381D01*
X151940476Y-57750000D01*
X152035714Y-57845238D01*
X152083333Y-58035714D01*
X152083333Y-58369048D01*
X152035714Y-58559524D01*
X151940476Y-58654762D01*
X151845238Y-58702381D01*
X151654761Y-58702381D01*
X151559523Y-58654762D01*
X151464285Y-58559524D01*
X151416666Y-58369048D01*
X151416666Y-58035714D01*
X151464285Y-57845238D01*
X151559523Y-57750000D01*
X151654761Y-57702381D01*
X152988095Y-58702381D02*
X152511904Y-58702381D01*
X152511904Y-57702381D01*
X153797619Y-58702381D02*
X153321428Y-58702381D01*
X153321428Y-57702381D01*
X154130952Y-58178571D02*
X154464286Y-58178571D01*
X154607143Y-58702381D02*
X154130952Y-58702381D01*
X154130952Y-57702381D01*
X154607143Y-57702381D01*
X155607143Y-58702381D02*
X155273809Y-58226190D01*
X155035714Y-58702381D02*
X155035714Y-57702381D01*
X155416667Y-57702381D01*
X155511905Y-57750000D01*
X155559524Y-57797619D01*
X155607143Y-57892857D01*
X155607143Y-58035714D01*
X155559524Y-58130952D01*
X155511905Y-58178571D01*
X155416667Y-58226190D01*
X155035714Y-58226190D01*
X43445238Y-56852381D02*
X43445238Y-55852381D01*
X43826191Y-55852381D01*
X43921429Y-55900000D01*
X43969048Y-55947619D01*
X44016667Y-56042857D01*
X44016667Y-56185714D01*
X43969048Y-56280952D01*
X43921429Y-56328571D01*
X43826191Y-56376190D01*
X43445238Y-56376190D01*
X44635714Y-55852381D02*
X44826191Y-55852381D01*
X44921429Y-55900000D01*
X45016667Y-55995238D01*
X45064286Y-56185714D01*
X45064286Y-56519048D01*
X45016667Y-56709524D01*
X44921429Y-56804762D01*
X44826191Y-56852381D01*
X44635714Y-56852381D01*
X44540476Y-56804762D01*
X44445238Y-56709524D01*
X44397619Y-56519048D01*
X44397619Y-56185714D01*
X44445238Y-55995238D01*
X44540476Y-55900000D01*
X44635714Y-55852381D01*
X45397619Y-55852381D02*
X45635714Y-56852381D01*
X45826191Y-56138095D01*
X46016667Y-56852381D01*
X46254762Y-55852381D01*
X46635714Y-56328571D02*
X46969048Y-56328571D01*
X47111905Y-56852381D02*
X46635714Y-56852381D01*
X46635714Y-55852381D01*
X47111905Y-55852381D01*
X48111905Y-56852381D02*
X47778571Y-56376190D01*
X47540476Y-56852381D02*
X47540476Y-55852381D01*
X47921429Y-55852381D01*
X48016667Y-55900000D01*
X48064286Y-55947619D01*
X48111905Y-56042857D01*
X48111905Y-56185714D01*
X48064286Y-56280952D01*
X48016667Y-56328571D01*
X47921429Y-56376190D01*
X47540476Y-56376190D01*
X49873810Y-56852381D02*
X49540476Y-56376190D01*
X49302381Y-56852381D02*
X49302381Y-55852381D01*
X49683334Y-55852381D01*
X49778572Y-55900000D01*
X49826191Y-55947619D01*
X49873810Y-56042857D01*
X49873810Y-56185714D01*
X49826191Y-56280952D01*
X49778572Y-56328571D01*
X49683334Y-56376190D01*
X49302381Y-56376190D01*
X50302381Y-56328571D02*
X50635715Y-56328571D01*
X50778572Y-56852381D02*
X50302381Y-56852381D01*
X50302381Y-55852381D01*
X50778572Y-55852381D01*
X51730953Y-55900000D02*
X51635715Y-55852381D01*
X51492858Y-55852381D01*
X51350000Y-55900000D01*
X51254762Y-55995238D01*
X51207143Y-56090476D01*
X51159524Y-56280952D01*
X51159524Y-56423810D01*
X51207143Y-56614286D01*
X51254762Y-56709524D01*
X51350000Y-56804762D01*
X51492858Y-56852381D01*
X51588096Y-56852381D01*
X51730953Y-56804762D01*
X51778572Y-56757143D01*
X51778572Y-56423810D01*
X51588096Y-56423810D01*
X52207143Y-55852381D02*
X52207143Y-56661905D01*
X52254762Y-56757143D01*
X52302381Y-56804762D01*
X52397619Y-56852381D01*
X52588096Y-56852381D01*
X52683334Y-56804762D01*
X52730953Y-56757143D01*
X52778572Y-56661905D01*
X52778572Y-55852381D01*
X53730953Y-56852381D02*
X53254762Y-56852381D01*
X53254762Y-55852381D01*
X54016667Y-56566667D02*
X54492858Y-56566667D01*
X53921429Y-56852381D02*
X54254762Y-55852381D01*
X54588096Y-56852381D01*
X54778572Y-55852381D02*
X55350001Y-55852381D01*
X55064286Y-56852381D02*
X55064286Y-55852381D01*
X55873810Y-55852381D02*
X56064287Y-55852381D01*
X56159525Y-55900000D01*
X56254763Y-55995238D01*
X56302382Y-56185714D01*
X56302382Y-56519048D01*
X56254763Y-56709524D01*
X56159525Y-56804762D01*
X56064287Y-56852381D01*
X55873810Y-56852381D01*
X55778572Y-56804762D01*
X55683334Y-56709524D01*
X55635715Y-56519048D01*
X55635715Y-56185714D01*
X55683334Y-55995238D01*
X55778572Y-55900000D01*
X55873810Y-55852381D01*
X57302382Y-56852381D02*
X56969048Y-56376190D01*
X56730953Y-56852381D02*
X56730953Y-55852381D01*
X57111906Y-55852381D01*
X57207144Y-55900000D01*
X57254763Y-55947619D01*
X57302382Y-56042857D01*
X57302382Y-56185714D01*
X57254763Y-56280952D01*
X57207144Y-56328571D01*
X57111906Y-56376190D01*
X56730953Y-56376190D01*
X74619048Y-45671429D02*
X75380953Y-45671429D01*
X75000001Y-46052381D02*
X75000001Y-45290476D01*
X69619048Y-45671429D02*
X70380953Y-45671429D01*
X70000001Y-46052381D02*
X70000001Y-45290476D01*
X73880952Y-52266667D02*
X74357143Y-52266667D01*
X73785714Y-52552381D02*
X74119047Y-51552381D01*
X74452381Y-52552381D01*
X75357143Y-52457143D02*
X75309524Y-52504762D01*
X75166667Y-52552381D01*
X75071429Y-52552381D01*
X74928571Y-52504762D01*
X74833333Y-52409524D01*
X74785714Y-52314286D01*
X74738095Y-52123810D01*
X74738095Y-51980952D01*
X74785714Y-51790476D01*
X74833333Y-51695238D01*
X74928571Y-51600000D01*
X75071429Y-51552381D01*
X75166667Y-51552381D01*
X75309524Y-51600000D01*
X75357143Y-51647619D01*
X75642857Y-51552381D02*
X76214286Y-51552381D01*
X75928571Y-52552381D02*
X75928571Y-51552381D01*
X68666667Y-52552381D02*
X68666667Y-51552381D01*
X69047620Y-51552381D01*
X69142858Y-51600000D01*
X69190477Y-51647619D01*
X69238096Y-51742857D01*
X69238096Y-51885714D01*
X69190477Y-51980952D01*
X69142858Y-52028571D01*
X69047620Y-52076190D01*
X68666667Y-52076190D01*
X69571429Y-51552381D02*
X69809524Y-52552381D01*
X70000001Y-51838095D01*
X70190477Y-52552381D01*
X70428572Y-51552381D01*
X71380953Y-52552381D02*
X71047619Y-52076190D01*
X70809524Y-52552381D02*
X70809524Y-51552381D01*
X71190477Y-51552381D01*
X71285715Y-51600000D01*
X71333334Y-51647619D01*
X71380953Y-51742857D01*
X71380953Y-51885714D01*
X71333334Y-51980952D01*
X71285715Y-52028571D01*
X71190477Y-52076190D01*
X70809524Y-52076190D01*
X84580952Y-55904762D02*
X84723809Y-55952381D01*
X84961905Y-55952381D01*
X85057143Y-55904762D01*
X85104762Y-55857143D01*
X85152381Y-55761905D01*
X85152381Y-55666667D01*
X85104762Y-55571429D01*
X85057143Y-55523810D01*
X84961905Y-55476190D01*
X84771428Y-55428571D01*
X84676190Y-55380952D01*
X84628571Y-55333333D01*
X84580952Y-55238095D01*
X84580952Y-55142857D01*
X84628571Y-55047619D01*
X84676190Y-55000000D01*
X84771428Y-54952381D01*
X85009524Y-54952381D01*
X85152381Y-55000000D01*
X85580952Y-55952381D02*
X85580952Y-54952381D01*
X85961905Y-54952381D01*
X86057143Y-55000000D01*
X86104762Y-55047619D01*
X86152381Y-55142857D01*
X86152381Y-55285714D01*
X86104762Y-55380952D01*
X86057143Y-55428571D01*
X85961905Y-55476190D01*
X85580952Y-55476190D01*
X86580952Y-55428571D02*
X86914286Y-55428571D01*
X87057143Y-55952381D02*
X86580952Y-55952381D01*
X86580952Y-54952381D01*
X87057143Y-54952381D01*
X87438095Y-55666667D02*
X87914286Y-55666667D01*
X87342857Y-55952381D02*
X87676190Y-54952381D01*
X88009524Y-55952381D01*
X88342857Y-55952381D02*
X88342857Y-54952381D01*
X88914286Y-55952381D02*
X88485714Y-55380952D01*
X88914286Y-54952381D02*
X88342857Y-55523810D01*
X89342857Y-55428571D02*
X89676191Y-55428571D01*
X89819048Y-55952381D02*
X89342857Y-55952381D01*
X89342857Y-54952381D01*
X89819048Y-54952381D01*
X90819048Y-55952381D02*
X90485714Y-55476190D01*
X90247619Y-55952381D02*
X90247619Y-54952381D01*
X90628572Y-54952381D01*
X90723810Y-55000000D01*
X90771429Y-55047619D01*
X90819048Y-55142857D01*
X90819048Y-55285714D01*
X90771429Y-55380952D01*
X90723810Y-55428571D01*
X90628572Y-55476190D01*
X90247619Y-55476190D01*
X114947619Y-55952381D02*
X114614285Y-55476190D01*
X114376190Y-55952381D02*
X114376190Y-54952381D01*
X114757143Y-54952381D01*
X114852381Y-55000000D01*
X114900000Y-55047619D01*
X114947619Y-55142857D01*
X114947619Y-55285714D01*
X114900000Y-55380952D01*
X114852381Y-55428571D01*
X114757143Y-55476190D01*
X114376190Y-55476190D01*
X115376190Y-55428571D02*
X115709524Y-55428571D01*
X115852381Y-55952381D02*
X115376190Y-55952381D01*
X115376190Y-54952381D01*
X115852381Y-54952381D01*
X116233333Y-55904762D02*
X116376190Y-55952381D01*
X116614286Y-55952381D01*
X116709524Y-55904762D01*
X116757143Y-55857143D01*
X116804762Y-55761905D01*
X116804762Y-55666667D01*
X116757143Y-55571429D01*
X116709524Y-55523810D01*
X116614286Y-55476190D01*
X116423809Y-55428571D01*
X116328571Y-55380952D01*
X116280952Y-55333333D01*
X116233333Y-55238095D01*
X116233333Y-55142857D01*
X116280952Y-55047619D01*
X116328571Y-55000000D01*
X116423809Y-54952381D01*
X116661905Y-54952381D01*
X116804762Y-55000000D01*
X117233333Y-55428571D02*
X117566667Y-55428571D01*
X117709524Y-55952381D02*
X117233333Y-55952381D01*
X117233333Y-54952381D01*
X117709524Y-54952381D01*
X117995238Y-54952381D02*
X118566667Y-54952381D01*
X118280952Y-55952381D02*
X118280952Y-54952381D01*
X100385714Y-55952381D02*
X100385714Y-54952381D01*
X100814285Y-55904762D02*
X100957142Y-55952381D01*
X101195238Y-55952381D01*
X101290476Y-55904762D01*
X101338095Y-55857143D01*
X101385714Y-55761905D01*
X101385714Y-55666667D01*
X101338095Y-55571429D01*
X101290476Y-55523810D01*
X101195238Y-55476190D01*
X101004761Y-55428571D01*
X100909523Y-55380952D01*
X100861904Y-55333333D01*
X100814285Y-55238095D01*
X100814285Y-55142857D01*
X100861904Y-55047619D01*
X100909523Y-55000000D01*
X101004761Y-54952381D01*
X101242857Y-54952381D01*
X101385714Y-55000000D01*
X101814285Y-55952381D02*
X101814285Y-54952381D01*
X102195238Y-54952381D01*
X102290476Y-55000000D01*
X102338095Y-55047619D01*
X102385714Y-55142857D01*
X102385714Y-55285714D01*
X102338095Y-55380952D01*
X102290476Y-55428571D01*
X102195238Y-55476190D01*
X101814285Y-55476190D01*
X103576190Y-55952381D02*
X103576190Y-54952381D01*
X103576190Y-55428571D02*
X104147619Y-55428571D01*
X104147619Y-55952381D02*
X104147619Y-54952381D01*
X104623809Y-55428571D02*
X104957143Y-55428571D01*
X105100000Y-55952381D02*
X104623809Y-55952381D01*
X104623809Y-54952381D01*
X105100000Y-54952381D01*
X105480952Y-55666667D02*
X105957143Y-55666667D01*
X105385714Y-55952381D02*
X105719047Y-54952381D01*
X106052381Y-55952381D01*
X106385714Y-55952381D02*
X106385714Y-54952381D01*
X106623809Y-54952381D01*
X106766667Y-55000000D01*
X106861905Y-55095238D01*
X106909524Y-55190476D01*
X106957143Y-55380952D01*
X106957143Y-55523810D01*
X106909524Y-55714286D01*
X106861905Y-55809524D01*
X106766667Y-55904762D01*
X106623809Y-55952381D01*
X106385714Y-55952381D01*
X107385714Y-55428571D02*
X107719048Y-55428571D01*
X107861905Y-55952381D02*
X107385714Y-55952381D01*
X107385714Y-54952381D01*
X107861905Y-54952381D01*
X108861905Y-55952381D02*
X108528571Y-55476190D01*
X108290476Y-55952381D02*
X108290476Y-54952381D01*
X108671429Y-54952381D01*
X108766667Y-55000000D01*
X108814286Y-55047619D01*
X108861905Y-55142857D01*
X108861905Y-55285714D01*
X108814286Y-55380952D01*
X108766667Y-55428571D01*
X108671429Y-55476190D01*
X108290476Y-55476190D01*
X100195238Y-46752381D02*
X100195238Y-47466667D01*
X100147618Y-47609524D01*
X100052380Y-47704762D01*
X99909523Y-47752381D01*
X99814285Y-47752381D01*
X100528571Y-46752381D02*
X101100000Y-46752381D01*
X100814285Y-47752381D02*
X100814285Y-46752381D01*
X101385714Y-47466667D02*
X101861905Y-47466667D01*
X101290476Y-47752381D02*
X101623809Y-46752381D01*
X101957143Y-47752381D01*
X102814286Y-46800000D02*
X102719048Y-46752381D01*
X102576191Y-46752381D01*
X102433333Y-46800000D01*
X102338095Y-46895238D01*
X102290476Y-46990476D01*
X102242857Y-47180952D01*
X102242857Y-47323810D01*
X102290476Y-47514286D01*
X102338095Y-47609524D01*
X102433333Y-47704762D01*
X102576191Y-47752381D01*
X102671429Y-47752381D01*
X102814286Y-47704762D01*
X102861905Y-47657143D01*
X102861905Y-47323810D01*
X102671429Y-47323810D01*
X104052381Y-47752381D02*
X104052381Y-46752381D01*
X104052381Y-47228571D02*
X104623810Y-47228571D01*
X104623810Y-47752381D02*
X104623810Y-46752381D01*
X105100000Y-47228571D02*
X105433334Y-47228571D01*
X105576191Y-47752381D02*
X105100000Y-47752381D01*
X105100000Y-46752381D01*
X105576191Y-46752381D01*
X105957143Y-47466667D02*
X106433334Y-47466667D01*
X105861905Y-47752381D02*
X106195238Y-46752381D01*
X106528572Y-47752381D01*
X106861905Y-47752381D02*
X106861905Y-46752381D01*
X107100000Y-46752381D01*
X107242858Y-46800000D01*
X107338096Y-46895238D01*
X107385715Y-46990476D01*
X107433334Y-47180952D01*
X107433334Y-47323810D01*
X107385715Y-47514286D01*
X107338096Y-47609524D01*
X107242858Y-47704762D01*
X107100000Y-47752381D01*
X106861905Y-47752381D01*
X107861905Y-47228571D02*
X108195239Y-47228571D01*
X108338096Y-47752381D02*
X107861905Y-47752381D01*
X107861905Y-46752381D01*
X108338096Y-46752381D01*
X109338096Y-47752381D02*
X109004762Y-47276190D01*
X108766667Y-47752381D02*
X108766667Y-46752381D01*
X109147620Y-46752381D01*
X109242858Y-46800000D01*
X109290477Y-46847619D01*
X109338096Y-46942857D01*
X109338096Y-47085714D01*
X109290477Y-47180952D01*
X109242858Y-47228571D01*
X109147620Y-47276190D01*
X108766667Y-47276190D01*
X178424000Y-44174000D02*
X177916000Y-43666000D01*
X178424000Y-43666000D02*
X177916000Y-44174000D01*
X178170000Y-43666000D02*
X178170000Y-44174000D01*
X177916000Y-43920000D02*
X177916000Y-43666000D01*
X177916000Y-43666000D02*
X178424000Y-43666000D01*
X178424000Y-43666000D02*
X178424000Y-44174000D01*
X178424000Y-44174000D02*
X177916000Y-44174000D01*
X177916000Y-44174000D02*
X177916000Y-43920000D01*
X178424000Y-43920000D02*
X177916000Y-43920000D01*
X177916000Y-43920000D02*
X178170000Y-43920000D01*
X184070000Y-43170000D02*
X184070000Y-54810000D01*
X184070000Y-54810000D02*
X177370000Y-54810000D01*
X177370000Y-54810000D02*
X177370000Y-43170000D01*
X177370000Y-43170000D02*
X184070000Y-43170000D01*
D12*
X66860000Y-46950000D02*
X65140000Y-46950000D01*
X65140000Y-46950000D02*
X65140000Y-50670000D01*
X65140000Y-50670000D02*
X66860000Y-50670000D01*
X66860000Y-50670000D02*
X66860000Y-46950000D01*
X66000000Y-45880000D02*
X66000000Y-46950000D01*
X66000000Y-51740000D02*
X66000000Y-50670000D01*
X79860000Y-46950000D02*
X78140000Y-46950000D01*
X78140000Y-46950000D02*
X78140000Y-50670000D01*
X78140000Y-50670000D02*
X79860000Y-50670000D01*
X79860000Y-50670000D02*
X79860000Y-46950000D01*
X79000000Y-45880000D02*
X79000000Y-46950000D01*
X79000000Y-51740000D02*
X79000000Y-50670000D01*
D10*
X76250000Y-35500000D02*
X68750000Y-35500000D01*
X76250000Y-44500000D02*
X76250000Y-35500000D01*
X68750000Y-44500000D02*
X76250000Y-44500000D01*
X68750000Y-35500000D02*
X68750000Y-44500000D01*
D12*
X174090000Y-48880000D02*
G75*
G02X174090000Y-46880000I0J1000000D01*
G01*
X174090000Y-46880000D02*
X174090000Y-41820000D01*
X174090000Y-41820000D02*
X123170000Y-41820000D01*
X123170000Y-41820000D02*
X123170000Y-53940000D01*
X123170000Y-53940000D02*
X174090000Y-53940000D01*
X174090000Y-53940000D02*
X174090000Y-48880000D01*
X174150000Y-38820000D02*
X123110000Y-38820000D01*
X123110000Y-38820000D02*
X123110000Y-56940000D01*
X123110000Y-56940000D02*
X174150000Y-56940000D01*
X174150000Y-56940000D02*
X174150000Y-38820000D01*
D11*
X229800000Y-39300000D02*
X242200000Y-39300000D01*
X242200000Y-39300000D02*
X242200000Y-52700000D01*
X242200000Y-52700000D02*
X229800000Y-52700000D01*
X229800000Y-52700000D02*
X229800000Y-39300000D01*
X239000000Y-46000000D02*
G75*
G03X239000000Y-46000000I-3000000J0D01*
G01*
D12*
X58310000Y-55160000D02*
X58310000Y-44920000D01*
X42420000Y-55160000D02*
X42420000Y-44920000D01*
X42420000Y-55160000D02*
X58310000Y-55160000D01*
X42420000Y-44920000D02*
X58310000Y-44920000D01*
X58310000Y-52580000D02*
X60950000Y-52580000D01*
X58310000Y-50040000D02*
X60934000Y-50040000D01*
X58310000Y-47500000D02*
X60934000Y-47500000D01*
X179710000Y-40360000D02*
X175790000Y-40360000D01*
X179710000Y-37640000D02*
X175790000Y-37640000D01*
X179710000Y-40360000D02*
X179710000Y-39750000D01*
X179710000Y-38250000D02*
X179710000Y-37640000D01*
X175790000Y-40360000D02*
X175790000Y-39750000D01*
X175790000Y-38250000D02*
X175790000Y-37640000D01*
X193790000Y-37640000D02*
X197710000Y-37640000D01*
X193790000Y-40360000D02*
X197710000Y-40360000D01*
X193790000Y-37640000D02*
X193790000Y-38250000D01*
X193790000Y-39750000D02*
X193790000Y-40360000D01*
X197710000Y-37640000D02*
X197710000Y-38250000D01*
X197710000Y-39750000D02*
X197710000Y-40360000D01*
X85950000Y-36140000D02*
X85950000Y-37860000D01*
X85950000Y-37860000D02*
X89670000Y-37860000D01*
X89670000Y-37860000D02*
X89670000Y-36140000D01*
X89670000Y-36140000D02*
X85950000Y-36140000D01*
X84880000Y-37000000D02*
X85950000Y-37000000D01*
X90740000Y-37000000D02*
X89670000Y-37000000D01*
X85950000Y-38640000D02*
X85950000Y-40360000D01*
X85950000Y-40360000D02*
X89670000Y-40360000D01*
X89670000Y-40360000D02*
X89670000Y-38640000D01*
X89670000Y-38640000D02*
X85950000Y-38640000D01*
X84880000Y-39500000D02*
X85950000Y-39500000D01*
X90740000Y-39500000D02*
X89670000Y-39500000D01*
X183315000Y-36475000D02*
X189565000Y-36475000D01*
X183315000Y-41525000D02*
X189565000Y-41525000D01*
X183315000Y-41525000D02*
G75*
G02X183315000Y-36475000I0J2525000D01*
G01*
X189565000Y-41525000D02*
G75*
G03X189565000Y-36475000I0J2525000D01*
G01*
X117240000Y-45210000D02*
X117240000Y-41290000D01*
X119960000Y-45210000D02*
X119960000Y-41290000D01*
X117240000Y-45210000D02*
X117850000Y-45210000D01*
X119350000Y-45210000D02*
X119960000Y-45210000D01*
X117240000Y-41290000D02*
X117850000Y-41290000D01*
X119350000Y-41290000D02*
X119960000Y-41290000D01*
X113140000Y-45210000D02*
X113140000Y-41290000D01*
X115860000Y-45210000D02*
X115860000Y-41290000D01*
X113140000Y-45210000D02*
X113750000Y-45210000D01*
X115250000Y-45210000D02*
X115860000Y-45210000D01*
X113140000Y-41290000D02*
X113750000Y-41290000D01*
X115250000Y-41290000D02*
X115860000Y-41290000D01*
X57000000Y-35650000D02*
X57000000Y-40000000D01*
X57000000Y-40000000D02*
X50000000Y-40000000D01*
X50000000Y-40000000D02*
X50000000Y-35650000D01*
X58300000Y-41850000D02*
X58650000Y-41850000D01*
X58650000Y-41850000D02*
X58650000Y-43450000D01*
X58650000Y-43450000D02*
X59550000Y-43450000D01*
X59550000Y-43450000D02*
X59550000Y-35650000D01*
X59550000Y-35650000D02*
X47450000Y-35650000D01*
X47450000Y-35650000D02*
X47450000Y-43450000D01*
X47450000Y-43450000D02*
X48350000Y-43450000D01*
X48350000Y-43450000D02*
X48350000Y-41850000D01*
X48350000Y-41850000D02*
X48700000Y-41850000D01*
X59550000Y-41850000D02*
X58650000Y-41850000D01*
X47450000Y-41850000D02*
X48350000Y-41850000D01*
X58800000Y-39500000D02*
X58800000Y-37900000D01*
X58800000Y-37900000D02*
X57800000Y-37900000D01*
X57800000Y-37900000D02*
X57800000Y-39500000D01*
X57800000Y-39500000D02*
X58800000Y-39500000D01*
X48200000Y-39500000D02*
X48200000Y-37900000D01*
X48200000Y-37900000D02*
X49200000Y-37900000D01*
X49200000Y-37900000D02*
X49200000Y-39500000D01*
X49200000Y-39500000D02*
X48200000Y-39500000D01*
X57800000Y-37900000D02*
X57800000Y-35650000D01*
X58300000Y-37900000D02*
X58300000Y-35650000D01*
X58300000Y-41850000D02*
X58300000Y-43050000D01*
X96860000Y-41330000D02*
X95140000Y-41330000D01*
X95140000Y-41330000D02*
X95140000Y-45050000D01*
X95140000Y-45050000D02*
X96860000Y-45050000D01*
X96860000Y-45050000D02*
X96860000Y-41330000D01*
X96000000Y-40260000D02*
X96000000Y-41330000D01*
X96000000Y-46120000D02*
X96000000Y-45050000D01*
X39060000Y-62250000D02*
X36940000Y-62250000D01*
X36940000Y-62250000D02*
X36940000Y-66370000D01*
X36940000Y-66370000D02*
X39060000Y-66370000D01*
X39060000Y-66370000D02*
X39060000Y-62250000D01*
X38000000Y-61480000D02*
X38000000Y-62250000D01*
X38000000Y-67140000D02*
X38000000Y-66370000D01*
X39060000Y-62910000D02*
X36940000Y-62910000D01*
X58060000Y-62250000D02*
X55940000Y-62250000D01*
X55940000Y-62250000D02*
X55940000Y-66370000D01*
X55940000Y-66370000D02*
X58060000Y-66370000D01*
X58060000Y-66370000D02*
X58060000Y-62250000D01*
X57000000Y-61480000D02*
X57000000Y-62250000D01*
X57000000Y-67140000D02*
X57000000Y-66370000D01*
X58060000Y-62910000D02*
X55940000Y-62910000D01*
X77060000Y-62250000D02*
X74940000Y-62250000D01*
X74940000Y-62250000D02*
X74940000Y-66370000D01*
X74940000Y-66370000D02*
X77060000Y-66370000D01*
X77060000Y-66370000D02*
X77060000Y-62250000D01*
X76000000Y-61480000D02*
X76000000Y-62250000D01*
X76000000Y-67140000D02*
X76000000Y-66370000D01*
X77060000Y-62910000D02*
X74940000Y-62910000D01*
X96060000Y-62250000D02*
X93940000Y-62250000D01*
X93940000Y-62250000D02*
X93940000Y-66370000D01*
X93940000Y-66370000D02*
X96060000Y-66370000D01*
X96060000Y-66370000D02*
X96060000Y-62250000D01*
X95000000Y-61480000D02*
X95000000Y-62250000D01*
X95000000Y-67140000D02*
X95000000Y-66370000D01*
X96060000Y-62910000D02*
X93940000Y-62910000D01*
X115060000Y-62250000D02*
X112940000Y-62250000D01*
X112940000Y-62250000D02*
X112940000Y-66370000D01*
X112940000Y-66370000D02*
X115060000Y-66370000D01*
X115060000Y-66370000D02*
X115060000Y-62250000D01*
X114000000Y-61480000D02*
X114000000Y-62250000D01*
X114000000Y-67140000D02*
X114000000Y-66370000D01*
X115060000Y-62910000D02*
X112940000Y-62910000D01*
X134060000Y-62250000D02*
X131940000Y-62250000D01*
X131940000Y-62250000D02*
X131940000Y-66370000D01*
X131940000Y-66370000D02*
X134060000Y-66370000D01*
X134060000Y-66370000D02*
X134060000Y-62250000D01*
X133000000Y-61480000D02*
X133000000Y-62250000D01*
X133000000Y-67140000D02*
X133000000Y-66370000D01*
X134060000Y-62910000D02*
X131940000Y-62910000D01*
X153060000Y-62250000D02*
X150940000Y-62250000D01*
X150940000Y-62250000D02*
X150940000Y-66370000D01*
X150940000Y-66370000D02*
X153060000Y-66370000D01*
X153060000Y-66370000D02*
X153060000Y-62250000D01*
X152000000Y-61480000D02*
X152000000Y-62250000D01*
X152000000Y-67140000D02*
X152000000Y-66370000D01*
X153060000Y-62910000D02*
X150940000Y-62910000D01*
X172060000Y-62250000D02*
X169940000Y-62250000D01*
X169940000Y-62250000D02*
X169940000Y-66370000D01*
X169940000Y-66370000D02*
X172060000Y-66370000D01*
X172060000Y-66370000D02*
X172060000Y-62250000D01*
X171000000Y-61480000D02*
X171000000Y-62250000D01*
X171000000Y-67140000D02*
X171000000Y-66370000D01*
X172060000Y-62910000D02*
X169940000Y-62910000D01*
X191060000Y-62250000D02*
X188940000Y-62250000D01*
X188940000Y-62250000D02*
X188940000Y-66370000D01*
X188940000Y-66370000D02*
X191060000Y-66370000D01*
X191060000Y-66370000D02*
X191060000Y-62250000D01*
X190000000Y-61480000D02*
X190000000Y-62250000D01*
X190000000Y-67140000D02*
X190000000Y-66370000D01*
X191060000Y-62910000D02*
X188940000Y-62910000D01*
X210060000Y-62250000D02*
X207940000Y-62250000D01*
X207940000Y-62250000D02*
X207940000Y-66370000D01*
X207940000Y-66370000D02*
X210060000Y-66370000D01*
X210060000Y-66370000D02*
X210060000Y-62250000D01*
X209000000Y-61480000D02*
X209000000Y-62250000D01*
X209000000Y-67140000D02*
X209000000Y-66370000D01*
X210060000Y-62910000D02*
X207940000Y-62910000D01*
X229060000Y-62250000D02*
X226940000Y-62250000D01*
X226940000Y-62250000D02*
X226940000Y-66370000D01*
X226940000Y-66370000D02*
X229060000Y-66370000D01*
X229060000Y-66370000D02*
X229060000Y-62250000D01*
X228000000Y-61480000D02*
X228000000Y-62250000D01*
X228000000Y-67140000D02*
X228000000Y-66370000D01*
X229060000Y-62910000D02*
X226940000Y-62910000D01*
X248060000Y-62250000D02*
X245940000Y-62250000D01*
X245940000Y-62250000D02*
X245940000Y-66370000D01*
X245940000Y-66370000D02*
X248060000Y-66370000D01*
X248060000Y-66370000D02*
X248060000Y-62250000D01*
X247000000Y-61480000D02*
X247000000Y-62250000D01*
X247000000Y-67140000D02*
X247000000Y-66370000D01*
X248060000Y-62910000D02*
X245940000Y-62910000D01*
X43060000Y-63750000D02*
X40940000Y-63750000D01*
X40940000Y-63750000D02*
X40940000Y-67870000D01*
X40940000Y-67870000D02*
X43060000Y-67870000D01*
X43060000Y-67870000D02*
X43060000Y-63750000D01*
X42000000Y-62980000D02*
X42000000Y-63750000D01*
X42000000Y-68640000D02*
X42000000Y-67870000D01*
X43060000Y-64410000D02*
X40940000Y-64410000D01*
X62060000Y-63750000D02*
X59940000Y-63750000D01*
X59940000Y-63750000D02*
X59940000Y-67870000D01*
X59940000Y-67870000D02*
X62060000Y-67870000D01*
X62060000Y-67870000D02*
X62060000Y-63750000D01*
X61000000Y-62980000D02*
X61000000Y-63750000D01*
X61000000Y-68640000D02*
X61000000Y-67870000D01*
X62060000Y-64410000D02*
X59940000Y-64410000D01*
X81060000Y-63750000D02*
X78940000Y-63750000D01*
X78940000Y-63750000D02*
X78940000Y-67870000D01*
X78940000Y-67870000D02*
X81060000Y-67870000D01*
X81060000Y-67870000D02*
X81060000Y-63750000D01*
X80000000Y-62980000D02*
X80000000Y-63750000D01*
X80000000Y-68640000D02*
X80000000Y-67870000D01*
X81060000Y-64410000D02*
X78940000Y-64410000D01*
X100060000Y-63750000D02*
X97940000Y-63750000D01*
X97940000Y-63750000D02*
X97940000Y-67870000D01*
X97940000Y-67870000D02*
X100060000Y-67870000D01*
X100060000Y-67870000D02*
X100060000Y-63750000D01*
X99000000Y-62980000D02*
X99000000Y-63750000D01*
X99000000Y-68640000D02*
X99000000Y-67870000D01*
X100060000Y-64410000D02*
X97940000Y-64410000D01*
X119060000Y-63750000D02*
X116940000Y-63750000D01*
X116940000Y-63750000D02*
X116940000Y-67870000D01*
X116940000Y-67870000D02*
X119060000Y-67870000D01*
X119060000Y-67870000D02*
X119060000Y-63750000D01*
X118000000Y-62980000D02*
X118000000Y-63750000D01*
X118000000Y-68640000D02*
X118000000Y-67870000D01*
X119060000Y-64410000D02*
X116940000Y-64410000D01*
X138060000Y-63750000D02*
X135940000Y-63750000D01*
X135940000Y-63750000D02*
X135940000Y-67870000D01*
X135940000Y-67870000D02*
X138060000Y-67870000D01*
X138060000Y-67870000D02*
X138060000Y-63750000D01*
X137000000Y-62980000D02*
X137000000Y-63750000D01*
X137000000Y-68640000D02*
X137000000Y-67870000D01*
X138060000Y-64410000D02*
X135940000Y-64410000D01*
X157060000Y-63750000D02*
X154940000Y-63750000D01*
X154940000Y-63750000D02*
X154940000Y-67870000D01*
X154940000Y-67870000D02*
X157060000Y-67870000D01*
X157060000Y-67870000D02*
X157060000Y-63750000D01*
X156000000Y-62980000D02*
X156000000Y-63750000D01*
X156000000Y-68640000D02*
X156000000Y-67870000D01*
X157060000Y-64410000D02*
X154940000Y-64410000D01*
X176060000Y-63750000D02*
X173940000Y-63750000D01*
X173940000Y-63750000D02*
X173940000Y-67870000D01*
X173940000Y-67870000D02*
X176060000Y-67870000D01*
X176060000Y-67870000D02*
X176060000Y-63750000D01*
X175000000Y-62980000D02*
X175000000Y-63750000D01*
X175000000Y-68640000D02*
X175000000Y-67870000D01*
X176060000Y-64410000D02*
X173940000Y-64410000D01*
X195060000Y-63750000D02*
X192940000Y-63750000D01*
X192940000Y-63750000D02*
X192940000Y-67870000D01*
X192940000Y-67870000D02*
X195060000Y-67870000D01*
X195060000Y-67870000D02*
X195060000Y-63750000D01*
X194000000Y-62980000D02*
X194000000Y-63750000D01*
X194000000Y-68640000D02*
X194000000Y-67870000D01*
X195060000Y-64410000D02*
X192940000Y-64410000D01*
X214060000Y-63750000D02*
X211940000Y-63750000D01*
X211940000Y-63750000D02*
X211940000Y-67870000D01*
X211940000Y-67870000D02*
X214060000Y-67870000D01*
X214060000Y-67870000D02*
X214060000Y-63750000D01*
X213000000Y-62980000D02*
X213000000Y-63750000D01*
X213000000Y-68640000D02*
X213000000Y-67870000D01*
X214060000Y-64410000D02*
X211940000Y-64410000D01*
X233060000Y-63750000D02*
X230940000Y-63750000D01*
X230940000Y-63750000D02*
X230940000Y-67870000D01*
X230940000Y-67870000D02*
X233060000Y-67870000D01*
X233060000Y-67870000D02*
X233060000Y-63750000D01*
X232000000Y-62980000D02*
X232000000Y-63750000D01*
X232000000Y-68640000D02*
X232000000Y-67870000D01*
X233060000Y-64410000D02*
X230940000Y-64410000D01*
X252060000Y-63750000D02*
X249940000Y-63750000D01*
X249940000Y-63750000D02*
X249940000Y-67870000D01*
X249940000Y-67870000D02*
X252060000Y-67870000D01*
X252060000Y-67870000D02*
X252060000Y-63750000D01*
X251000000Y-62980000D02*
X251000000Y-63750000D01*
X251000000Y-68640000D02*
X251000000Y-67870000D01*
X252060000Y-64410000D02*
X249940000Y-64410000D01*
X47060000Y-65250000D02*
X44940000Y-65250000D01*
X44940000Y-65250000D02*
X44940000Y-69370000D01*
X44940000Y-69370000D02*
X47060000Y-69370000D01*
X47060000Y-69370000D02*
X47060000Y-65250000D01*
X46000000Y-64480000D02*
X46000000Y-65250000D01*
X46000000Y-70140000D02*
X46000000Y-69370000D01*
X47060000Y-65910000D02*
X44940000Y-65910000D01*
X66060000Y-65250000D02*
X63940000Y-65250000D01*
X63940000Y-65250000D02*
X63940000Y-69370000D01*
X63940000Y-69370000D02*
X66060000Y-69370000D01*
X66060000Y-69370000D02*
X66060000Y-65250000D01*
X65000000Y-64480000D02*
X65000000Y-65250000D01*
X65000000Y-70140000D02*
X65000000Y-69370000D01*
X66060000Y-65910000D02*
X63940000Y-65910000D01*
X85060000Y-65250000D02*
X82940000Y-65250000D01*
X82940000Y-65250000D02*
X82940000Y-69370000D01*
X82940000Y-69370000D02*
X85060000Y-69370000D01*
X85060000Y-69370000D02*
X85060000Y-65250000D01*
X84000000Y-64480000D02*
X84000000Y-65250000D01*
X84000000Y-70140000D02*
X84000000Y-69370000D01*
X85060000Y-65910000D02*
X82940000Y-65910000D01*
X104060000Y-65250000D02*
X101940000Y-65250000D01*
X101940000Y-65250000D02*
X101940000Y-69370000D01*
X101940000Y-69370000D02*
X104060000Y-69370000D01*
X104060000Y-69370000D02*
X104060000Y-65250000D01*
X103000000Y-64480000D02*
X103000000Y-65250000D01*
X103000000Y-70140000D02*
X103000000Y-69370000D01*
X104060000Y-65910000D02*
X101940000Y-65910000D01*
X123060000Y-65250000D02*
X120940000Y-65250000D01*
X120940000Y-65250000D02*
X120940000Y-69370000D01*
X120940000Y-69370000D02*
X123060000Y-69370000D01*
X123060000Y-69370000D02*
X123060000Y-65250000D01*
X122000000Y-64480000D02*
X122000000Y-65250000D01*
X122000000Y-70140000D02*
X122000000Y-69370000D01*
X123060000Y-65910000D02*
X120940000Y-65910000D01*
X142060000Y-65250000D02*
X139940000Y-65250000D01*
X139940000Y-65250000D02*
X139940000Y-69370000D01*
X139940000Y-69370000D02*
X142060000Y-69370000D01*
X142060000Y-69370000D02*
X142060000Y-65250000D01*
X141000000Y-64480000D02*
X141000000Y-65250000D01*
X141000000Y-70140000D02*
X141000000Y-69370000D01*
X142060000Y-65910000D02*
X139940000Y-65910000D01*
X161060000Y-65250000D02*
X158940000Y-65250000D01*
X158940000Y-65250000D02*
X158940000Y-69370000D01*
X158940000Y-69370000D02*
X161060000Y-69370000D01*
X161060000Y-69370000D02*
X161060000Y-65250000D01*
X160000000Y-64480000D02*
X160000000Y-65250000D01*
X160000000Y-70140000D02*
X160000000Y-69370000D01*
X161060000Y-65910000D02*
X158940000Y-65910000D01*
X180060000Y-65250000D02*
X177940000Y-65250000D01*
X177940000Y-65250000D02*
X177940000Y-69370000D01*
X177940000Y-69370000D02*
X180060000Y-69370000D01*
X180060000Y-69370000D02*
X180060000Y-65250000D01*
X179000000Y-64480000D02*
X179000000Y-65250000D01*
X179000000Y-70140000D02*
X179000000Y-69370000D01*
X180060000Y-65910000D02*
X177940000Y-65910000D01*
X199060000Y-65250000D02*
X196940000Y-65250000D01*
X196940000Y-65250000D02*
X196940000Y-69370000D01*
X196940000Y-69370000D02*
X199060000Y-69370000D01*
X199060000Y-69370000D02*
X199060000Y-65250000D01*
X198000000Y-64480000D02*
X198000000Y-65250000D01*
X198000000Y-70140000D02*
X198000000Y-69370000D01*
X199060000Y-65910000D02*
X196940000Y-65910000D01*
X218060000Y-65250000D02*
X215940000Y-65250000D01*
X215940000Y-65250000D02*
X215940000Y-69370000D01*
X215940000Y-69370000D02*
X218060000Y-69370000D01*
X218060000Y-69370000D02*
X218060000Y-65250000D01*
X217000000Y-64480000D02*
X217000000Y-65250000D01*
X217000000Y-70140000D02*
X217000000Y-69370000D01*
X218060000Y-65910000D02*
X215940000Y-65910000D01*
X237060000Y-65250000D02*
X234940000Y-65250000D01*
X234940000Y-65250000D02*
X234940000Y-69370000D01*
X234940000Y-69370000D02*
X237060000Y-69370000D01*
X237060000Y-69370000D02*
X237060000Y-65250000D01*
X236000000Y-64480000D02*
X236000000Y-65250000D01*
X236000000Y-70140000D02*
X236000000Y-69370000D01*
X237060000Y-65910000D02*
X234940000Y-65910000D01*
X256060000Y-65250000D02*
X253940000Y-65250000D01*
X253940000Y-65250000D02*
X253940000Y-69370000D01*
X253940000Y-69370000D02*
X256060000Y-69370000D01*
X256060000Y-69370000D02*
X256060000Y-65250000D01*
X255000000Y-64480000D02*
X255000000Y-65250000D01*
X255000000Y-70140000D02*
X255000000Y-69370000D01*
X256060000Y-65910000D02*
X253940000Y-65910000D01*
X51060000Y-66750000D02*
X48940000Y-66750000D01*
X48940000Y-66750000D02*
X48940000Y-70870000D01*
X48940000Y-70870000D02*
X51060000Y-70870000D01*
X51060000Y-70870000D02*
X51060000Y-66750000D01*
X50000000Y-65980000D02*
X50000000Y-66750000D01*
X50000000Y-71640000D02*
X50000000Y-70870000D01*
X51060000Y-67410000D02*
X48940000Y-67410000D01*
X70060000Y-66750000D02*
X67940000Y-66750000D01*
X67940000Y-66750000D02*
X67940000Y-70870000D01*
X67940000Y-70870000D02*
X70060000Y-70870000D01*
X70060000Y-70870000D02*
X70060000Y-66750000D01*
X69000000Y-65980000D02*
X69000000Y-66750000D01*
X69000000Y-71640000D02*
X69000000Y-70870000D01*
X70060000Y-67410000D02*
X67940000Y-67410000D01*
X89060000Y-66750000D02*
X86940000Y-66750000D01*
X86940000Y-66750000D02*
X86940000Y-70870000D01*
X86940000Y-70870000D02*
X89060000Y-70870000D01*
X89060000Y-70870000D02*
X89060000Y-66750000D01*
X88000000Y-65980000D02*
X88000000Y-66750000D01*
X88000000Y-71640000D02*
X88000000Y-70870000D01*
X89060000Y-67410000D02*
X86940000Y-67410000D01*
X108060000Y-66750000D02*
X105940000Y-66750000D01*
X105940000Y-66750000D02*
X105940000Y-70870000D01*
X105940000Y-70870000D02*
X108060000Y-70870000D01*
X108060000Y-70870000D02*
X108060000Y-66750000D01*
X107000000Y-65980000D02*
X107000000Y-66750000D01*
X107000000Y-71640000D02*
X107000000Y-70870000D01*
X108060000Y-67410000D02*
X105940000Y-67410000D01*
X127060000Y-66750000D02*
X124940000Y-66750000D01*
X124940000Y-66750000D02*
X124940000Y-70870000D01*
X124940000Y-70870000D02*
X127060000Y-70870000D01*
X127060000Y-70870000D02*
X127060000Y-66750000D01*
X126000000Y-65980000D02*
X126000000Y-66750000D01*
X126000000Y-71640000D02*
X126000000Y-70870000D01*
X127060000Y-67410000D02*
X124940000Y-67410000D01*
X146060000Y-66750000D02*
X143940000Y-66750000D01*
X143940000Y-66750000D02*
X143940000Y-70870000D01*
X143940000Y-70870000D02*
X146060000Y-70870000D01*
X146060000Y-70870000D02*
X146060000Y-66750000D01*
X145000000Y-65980000D02*
X145000000Y-66750000D01*
X145000000Y-71640000D02*
X145000000Y-70870000D01*
X146060000Y-67410000D02*
X143940000Y-67410000D01*
X165060000Y-66750000D02*
X162940000Y-66750000D01*
X162940000Y-66750000D02*
X162940000Y-70870000D01*
X162940000Y-70870000D02*
X165060000Y-70870000D01*
X165060000Y-70870000D02*
X165060000Y-66750000D01*
X164000000Y-65980000D02*
X164000000Y-66750000D01*
X164000000Y-71640000D02*
X164000000Y-70870000D01*
X165060000Y-67410000D02*
X162940000Y-67410000D01*
X184060000Y-66750000D02*
X181940000Y-66750000D01*
X181940000Y-66750000D02*
X181940000Y-70870000D01*
X181940000Y-70870000D02*
X184060000Y-70870000D01*
X184060000Y-70870000D02*
X184060000Y-66750000D01*
X183000000Y-65980000D02*
X183000000Y-66750000D01*
X183000000Y-71640000D02*
X183000000Y-70870000D01*
X184060000Y-67410000D02*
X181940000Y-67410000D01*
X203060000Y-66750000D02*
X200940000Y-66750000D01*
X200940000Y-66750000D02*
X200940000Y-70870000D01*
X200940000Y-70870000D02*
X203060000Y-70870000D01*
X203060000Y-70870000D02*
X203060000Y-66750000D01*
X202000000Y-65980000D02*
X202000000Y-66750000D01*
X202000000Y-71640000D02*
X202000000Y-70870000D01*
X203060000Y-67410000D02*
X200940000Y-67410000D01*
X222060000Y-66750000D02*
X219940000Y-66750000D01*
X219940000Y-66750000D02*
X219940000Y-70870000D01*
X219940000Y-70870000D02*
X222060000Y-70870000D01*
X222060000Y-70870000D02*
X222060000Y-66750000D01*
X221000000Y-65980000D02*
X221000000Y-66750000D01*
X221000000Y-71640000D02*
X221000000Y-70870000D01*
X222060000Y-67410000D02*
X219940000Y-67410000D01*
X241060000Y-66750000D02*
X238940000Y-66750000D01*
X238940000Y-66750000D02*
X238940000Y-70870000D01*
X238940000Y-70870000D02*
X241060000Y-70870000D01*
X241060000Y-70870000D02*
X241060000Y-66750000D01*
X240000000Y-65980000D02*
X240000000Y-66750000D01*
X240000000Y-71640000D02*
X240000000Y-70870000D01*
X241060000Y-67410000D02*
X238940000Y-67410000D01*
X260060000Y-66750000D02*
X257940000Y-66750000D01*
X257940000Y-66750000D02*
X257940000Y-70870000D01*
X257940000Y-70870000D02*
X260060000Y-70870000D01*
X260060000Y-70870000D02*
X260060000Y-66750000D01*
X259000000Y-65980000D02*
X259000000Y-66750000D01*
X259000000Y-71640000D02*
X259000000Y-70870000D01*
X260060000Y-67410000D02*
X257940000Y-67410000D01*
X100770000Y-40670000D02*
X110990000Y-40670000D01*
X110990000Y-40670000D02*
X110990000Y-45870000D01*
X110990000Y-45870000D02*
X98170000Y-45870000D01*
X98170000Y-45870000D02*
X98170000Y-43270000D01*
X98170000Y-43270000D02*
X100770000Y-43270000D01*
X100770000Y-43270000D02*
X100770000Y-40670000D01*
X99500000Y-40670000D02*
X98170000Y-40670000D01*
X98170000Y-40670000D02*
X98170000Y-41940000D01*
X103270000Y-48870000D02*
X108410000Y-48870000D01*
X108410000Y-48870000D02*
X108410000Y-54070000D01*
X108410000Y-54070000D02*
X100670000Y-54070000D01*
X100670000Y-54070000D02*
X100670000Y-51470000D01*
X100670000Y-51470000D02*
X103270000Y-51470000D01*
X103270000Y-51470000D02*
X103270000Y-48870000D01*
X102000000Y-48870000D02*
X100670000Y-48870000D01*
X100670000Y-48870000D02*
X100670000Y-50140000D01*
D11*
X206800000Y-39300000D02*
X219200000Y-39300000D01*
X219200000Y-39300000D02*
X219200000Y-52700000D01*
X219200000Y-52700000D02*
X206800000Y-52700000D01*
X206800000Y-52700000D02*
X206800000Y-39300000D01*
X216000000Y-46000000D02*
G75*
G03X216000000Y-46000000I-3000000J0D01*
G01*
D10*
X116450000Y-51000000D02*
X116450000Y-50250000D01*
X116450000Y-52250000D02*
X116950000Y-51000000D01*
X116450000Y-52750000D02*
X116450000Y-52250000D01*
X117950000Y-52750000D02*
X119700000Y-53750000D01*
X114950000Y-52750000D02*
X117950000Y-52750000D01*
X113200000Y-53750000D02*
X114950000Y-52750000D01*
X117950000Y-50250000D02*
X119700000Y-49250000D01*
X116450000Y-50250000D02*
X117950000Y-50250000D01*
X114950000Y-50250000D02*
X116450000Y-50250000D01*
X113200000Y-49250000D02*
X114950000Y-50250000D01*
X113450000Y-54500000D02*
X113450000Y-48500000D01*
X119450000Y-54500000D02*
X113450000Y-54500000D01*
X119450000Y-48500000D02*
X119450000Y-54500000D01*
X113450000Y-48500000D02*
X119450000Y-48500000D01*
D12*
X71078608Y-50442335D02*
G75*
G03X71235516Y-47210000I-1078608J1672335D01*
G01*
X68921392Y-50442335D02*
G75*
G02X68764484Y-47210000I1078608J1672335D01*
G01*
X71079837Y-49811130D02*
G75*
G03X71080000Y-47729039I-1079837J1041130D01*
G01*
X68920163Y-49811130D02*
G75*
G02X68920000Y-47729039I1079837J1041130D01*
G01*
X71236000Y-47210000D02*
X71080000Y-47210000D01*
X68920000Y-47210000D02*
X68764000Y-47210000D01*
X76078608Y-50402335D02*
G75*
G03X76235516Y-47170000I-1078608J1672335D01*
G01*
X73921392Y-50402335D02*
G75*
G02X73764484Y-47170000I1078608J1672335D01*
G01*
X76079837Y-49771130D02*
G75*
G03X76080000Y-47689039I-1079837J1041130D01*
G01*
X73920163Y-49771130D02*
G75*
G02X73920000Y-47689039I1079837J1041130D01*
G01*
X76236000Y-47170000D02*
X76080000Y-47170000D01*
X73920000Y-47170000D02*
X73764000Y-47170000D01*
X39687500Y-46500000D02*
G75*
G03X39687500Y-46500000I-250000J0D01*
G01*
X34612500Y-47100000D02*
X34612500Y-50900000D01*
X36512500Y-46000000D02*
X38862500Y-46000000D01*
X38862500Y-46000000D02*
X38862500Y-46900000D01*
X38862500Y-46500000D02*
X37662500Y-46500000D01*
X37662500Y-46500000D02*
X37662500Y-46500000D01*
X37662500Y-46500000D02*
X38862500Y-46500000D01*
X38862500Y-46500000D02*
X38862500Y-46500000D01*
X38362500Y-46500000D02*
X38362500Y-46500000D01*
X38362500Y-46500000D02*
X38362500Y-46000000D01*
X38362500Y-46000000D02*
X38362500Y-46000000D01*
X38362500Y-46000000D02*
X38362500Y-46500000D01*
X37662500Y-46500000D02*
X37662500Y-46500000D01*
X37662500Y-46500000D02*
X37662500Y-46000000D01*
X37662500Y-46000000D02*
X37662500Y-46000000D01*
X37662500Y-46000000D02*
X37662500Y-46500000D01*
X36512500Y-52000000D02*
X38862500Y-52000000D01*
X38862500Y-52000000D02*
X38862500Y-51100000D01*
X38862500Y-51500000D02*
X37662500Y-51500000D01*
X37662500Y-51500000D02*
X37662500Y-51500000D01*
X37662500Y-51500000D02*
X38862500Y-51500000D01*
X38862500Y-51500000D02*
X38862500Y-51500000D01*
X38362500Y-51500000D02*
X38362500Y-51500000D01*
X38362500Y-51500000D02*
X38362500Y-52000000D01*
X38362500Y-52000000D02*
X38362500Y-52000000D01*
X38362500Y-52000000D02*
X38362500Y-51500000D01*
X37662500Y-51500000D02*
X37662500Y-51500000D01*
X37662500Y-51500000D02*
X37662500Y-52000000D01*
X37662500Y-52000000D02*
X37662500Y-52000000D01*
X37662500Y-52000000D02*
X37662500Y-51500000D01*
X257812500Y-51500000D02*
G75*
G03X257812500Y-51500000I-250000J0D01*
G01*
X262387500Y-50900000D02*
X262387500Y-47100000D01*
X260487500Y-52000000D02*
X258137500Y-52000000D01*
X258137500Y-52000000D02*
X258137500Y-51100000D01*
X258137500Y-51500000D02*
X259337500Y-51500000D01*
X259337500Y-51500000D02*
X259337500Y-51500000D01*
X259337500Y-51500000D02*
X258137500Y-51500000D01*
X258137500Y-51500000D02*
X258137500Y-51500000D01*
X258637500Y-51500000D02*
X258637500Y-51500000D01*
X258637500Y-51500000D02*
X258637500Y-52000000D01*
X258637500Y-52000000D02*
X258637500Y-52000000D01*
X258637500Y-52000000D02*
X258637500Y-51500000D01*
X259337500Y-51500000D02*
X259337500Y-51500000D01*
X259337500Y-51500000D02*
X259337500Y-52000000D01*
X259337500Y-52000000D02*
X259337500Y-52000000D01*
X259337500Y-52000000D02*
X259337500Y-51500000D01*
X260487500Y-46000000D02*
X258137500Y-46000000D01*
X258137500Y-46000000D02*
X258137500Y-46900000D01*
X258137500Y-46500000D02*
X259337500Y-46500000D01*
X259337500Y-46500000D02*
X259337500Y-46500000D01*
X259337500Y-46500000D02*
X258137500Y-46500000D01*
X258137500Y-46500000D02*
X258137500Y-46500000D01*
X258637500Y-46500000D02*
X258637500Y-46500000D01*
X258637500Y-46500000D02*
X258637500Y-46000000D01*
X258637500Y-46000000D02*
X258637500Y-46000000D01*
X258637500Y-46000000D02*
X258637500Y-46500000D01*
X259337500Y-46500000D02*
X259337500Y-46500000D01*
X259337500Y-46500000D02*
X259337500Y-46000000D01*
X259337500Y-46000000D02*
X259337500Y-46000000D01*
X259337500Y-46000000D02*
X259337500Y-46500000D01*
X227250000Y-40500000D02*
G75*
G03X227250000Y-40500000I-250000J0D01*
G01*
X226400000Y-35675000D02*
X222600000Y-35675000D01*
X227500000Y-37575000D02*
X227500000Y-39925000D01*
X227500000Y-39925000D02*
X226600000Y-39925000D01*
X227000000Y-39925000D02*
X227000000Y-38725000D01*
X227000000Y-38725000D02*
X227000000Y-38725000D01*
X227000000Y-38725000D02*
X227000000Y-39925000D01*
X227000000Y-39925000D02*
X227000000Y-39925000D01*
X227000000Y-39425000D02*
X227000000Y-39425000D01*
X227000000Y-39425000D02*
X227500000Y-39425000D01*
X227500000Y-39425000D02*
X227500000Y-39425000D01*
X227500000Y-39425000D02*
X227000000Y-39425000D01*
X227000000Y-38725000D02*
X227000000Y-38725000D01*
X227000000Y-38725000D02*
X227500000Y-38725000D01*
X227500000Y-38725000D02*
X227500000Y-38725000D01*
X227500000Y-38725000D02*
X227000000Y-38725000D01*
X221500000Y-37575000D02*
X221500000Y-39925000D01*
X221500000Y-39925000D02*
X222400000Y-39925000D01*
X222000000Y-39925000D02*
X222000000Y-38725000D01*
X222000000Y-38725000D02*
X222000000Y-38725000D01*
X222000000Y-38725000D02*
X222000000Y-39925000D01*
X222000000Y-39925000D02*
X222000000Y-39925000D01*
X222000000Y-39425000D02*
X222000000Y-39425000D01*
X222000000Y-39425000D02*
X221500000Y-39425000D01*
X221500000Y-39425000D02*
X221500000Y-39425000D01*
X221500000Y-39425000D02*
X222000000Y-39425000D01*
X222000000Y-38725000D02*
X222000000Y-38725000D01*
X222000000Y-38725000D02*
X221500000Y-38725000D01*
X221500000Y-38725000D02*
X221500000Y-38725000D01*
X221500000Y-38725000D02*
X222000000Y-38725000D01*
X93800000Y-48200000D02*
G75*
G03X93800000Y-48200000I-6100000J0D01*
G01*
D11*
X65833334Y-54852381D02*
X65500000Y-54376190D01*
X65261905Y-54852381D02*
X65261905Y-53852381D01*
X65642858Y-53852381D01*
X65738096Y-53900000D01*
X65785715Y-53947619D01*
X65833334Y-54042857D01*
X65833334Y-54185714D01*
X65785715Y-54280952D01*
X65738096Y-54328571D01*
X65642858Y-54376190D01*
X65261905Y-54376190D01*
X66690477Y-54185714D02*
X66690477Y-54852381D01*
X66452381Y-53804762D02*
X66214286Y-54519048D01*
X66833334Y-54519048D01*
X78833334Y-54852381D02*
X78500000Y-54376190D01*
X78261905Y-54852381D02*
X78261905Y-53852381D01*
X78642858Y-53852381D01*
X78738096Y-53900000D01*
X78785715Y-53947619D01*
X78833334Y-54042857D01*
X78833334Y-54185714D01*
X78785715Y-54280952D01*
X78738096Y-54328571D01*
X78642858Y-54376190D01*
X78261905Y-54376190D01*
X79738096Y-53852381D02*
X79261905Y-53852381D01*
X79214286Y-54328571D01*
X79261905Y-54280952D01*
X79357143Y-54233333D01*
X79595239Y-54233333D01*
X79690477Y-54280952D01*
X79738096Y-54328571D01*
X79785715Y-54423810D01*
X79785715Y-54661905D01*
X79738096Y-54757143D01*
X79690477Y-54804762D01*
X79595239Y-54852381D01*
X79357143Y-54852381D01*
X79261905Y-54804762D01*
X79214286Y-54757143D01*
X177633334Y-41757143D02*
X177585715Y-41804762D01*
X177442858Y-41852381D01*
X177347620Y-41852381D01*
X177204762Y-41804762D01*
X177109524Y-41709524D01*
X177061905Y-41614286D01*
X177014286Y-41423810D01*
X177014286Y-41280952D01*
X177061905Y-41090476D01*
X177109524Y-40995238D01*
X177204762Y-40900000D01*
X177347620Y-40852381D01*
X177442858Y-40852381D01*
X177585715Y-40900000D01*
X177633334Y-40947619D01*
X178585715Y-41852381D02*
X178014286Y-41852381D01*
X178300000Y-41852381D02*
X178300000Y-40852381D01*
X178204762Y-40995238D01*
X178109524Y-41090476D01*
X178014286Y-41138095D01*
X195533334Y-41857143D02*
X195485715Y-41904762D01*
X195342858Y-41952381D01*
X195247620Y-41952381D01*
X195104762Y-41904762D01*
X195009524Y-41809524D01*
X194961905Y-41714286D01*
X194914286Y-41523810D01*
X194914286Y-41380952D01*
X194961905Y-41190476D01*
X195009524Y-41095238D01*
X195104762Y-41000000D01*
X195247620Y-40952381D01*
X195342858Y-40952381D01*
X195485715Y-41000000D01*
X195533334Y-41047619D01*
X195914286Y-41047619D02*
X195961905Y-41000000D01*
X196057143Y-40952381D01*
X196295239Y-40952381D01*
X196390477Y-41000000D01*
X196438096Y-41047619D01*
X196485715Y-41142857D01*
X196485715Y-41238095D01*
X196438096Y-41380952D01*
X195866667Y-41952381D01*
X196485715Y-41952381D01*
X81633334Y-37452381D02*
X81300000Y-36976190D01*
X81061905Y-37452381D02*
X81061905Y-36452381D01*
X81442858Y-36452381D01*
X81538096Y-36500000D01*
X81585715Y-36547619D01*
X81633334Y-36642857D01*
X81633334Y-36785714D01*
X81585715Y-36880952D01*
X81538096Y-36928571D01*
X81442858Y-36976190D01*
X81061905Y-36976190D01*
X82585715Y-37452381D02*
X82014286Y-37452381D01*
X82300000Y-37452381D02*
X82300000Y-36452381D01*
X82204762Y-36595238D01*
X82109524Y-36690476D01*
X82014286Y-36738095D01*
X81633334Y-39952381D02*
X81300000Y-39476190D01*
X81061905Y-39952381D02*
X81061905Y-38952381D01*
X81442858Y-38952381D01*
X81538096Y-39000000D01*
X81585715Y-39047619D01*
X81633334Y-39142857D01*
X81633334Y-39285714D01*
X81585715Y-39380952D01*
X81538096Y-39428571D01*
X81442858Y-39476190D01*
X81061905Y-39476190D01*
X82014286Y-39047619D02*
X82061905Y-39000000D01*
X82157143Y-38952381D01*
X82395239Y-38952381D01*
X82490477Y-39000000D01*
X82538096Y-39047619D01*
X82585715Y-39142857D01*
X82585715Y-39238095D01*
X82538096Y-39380952D01*
X81966667Y-39952381D01*
X82585715Y-39952381D01*
X186023809Y-42476190D02*
X186023809Y-42952381D01*
X185690476Y-41952381D02*
X186023809Y-42476190D01*
X186357143Y-41952381D01*
X187214286Y-42952381D02*
X186642857Y-42952381D01*
X186928571Y-42952381D02*
X186928571Y-41952381D01*
X186833333Y-42095238D01*
X186738095Y-42190476D01*
X186642857Y-42238095D01*
X118433334Y-46857143D02*
X118385715Y-46904762D01*
X118242858Y-46952381D01*
X118147620Y-46952381D01*
X118004762Y-46904762D01*
X117909524Y-46809524D01*
X117861905Y-46714286D01*
X117814286Y-46523810D01*
X117814286Y-46380952D01*
X117861905Y-46190476D01*
X117909524Y-46095238D01*
X118004762Y-46000000D01*
X118147620Y-45952381D01*
X118242858Y-45952381D01*
X118385715Y-46000000D01*
X118433334Y-46047619D01*
X118766667Y-45952381D02*
X119385715Y-45952381D01*
X119052381Y-46333333D01*
X119195239Y-46333333D01*
X119290477Y-46380952D01*
X119338096Y-46428571D01*
X119385715Y-46523810D01*
X119385715Y-46761905D01*
X119338096Y-46857143D01*
X119290477Y-46904762D01*
X119195239Y-46952381D01*
X118909524Y-46952381D01*
X118814286Y-46904762D01*
X118766667Y-46857143D01*
X114333334Y-46857143D02*
X114285715Y-46904762D01*
X114142858Y-46952381D01*
X114047620Y-46952381D01*
X113904762Y-46904762D01*
X113809524Y-46809524D01*
X113761905Y-46714286D01*
X113714286Y-46523810D01*
X113714286Y-46380952D01*
X113761905Y-46190476D01*
X113809524Y-46095238D01*
X113904762Y-46000000D01*
X114047620Y-45952381D01*
X114142858Y-45952381D01*
X114285715Y-46000000D01*
X114333334Y-46047619D01*
X115190477Y-46285714D02*
X115190477Y-46952381D01*
X114952381Y-45904762D02*
X114714286Y-46619048D01*
X115333334Y-46619048D01*
X95833334Y-49252381D02*
X95500000Y-48776190D01*
X95261905Y-49252381D02*
X95261905Y-48252381D01*
X95642858Y-48252381D01*
X95738096Y-48300000D01*
X95785715Y-48347619D01*
X95833334Y-48442857D01*
X95833334Y-48585714D01*
X95785715Y-48680952D01*
X95738096Y-48728571D01*
X95642858Y-48776190D01*
X95261905Y-48776190D01*
X96166667Y-48252381D02*
X96785715Y-48252381D01*
X96452381Y-48633333D01*
X96595239Y-48633333D01*
X96690477Y-48680952D01*
X96738096Y-48728571D01*
X96785715Y-48823810D01*
X96785715Y-49061905D01*
X96738096Y-49157143D01*
X96690477Y-49204762D01*
X96595239Y-49252381D01*
X96309524Y-49252381D01*
X96214286Y-49204762D01*
X96166667Y-49157143D01*
X40512381Y-65048095D02*
X39512381Y-65048095D01*
X39512381Y-64810000D01*
X39560000Y-64667142D01*
X39655238Y-64571904D01*
X39750476Y-64524285D01*
X39940952Y-64476666D01*
X40083810Y-64476666D01*
X40274286Y-64524285D01*
X40369524Y-64571904D01*
X40464762Y-64667142D01*
X40512381Y-64810000D01*
X40512381Y-65048095D01*
X40512381Y-63524285D02*
X40512381Y-64095714D01*
X40512381Y-63810000D02*
X39512381Y-63810000D01*
X39655238Y-63905238D01*
X39750476Y-64000476D01*
X39798095Y-64095714D01*
X59512381Y-65048095D02*
X58512381Y-65048095D01*
X58512381Y-64810000D01*
X58560000Y-64667142D01*
X58655238Y-64571904D01*
X58750476Y-64524285D01*
X58940952Y-64476666D01*
X59083810Y-64476666D01*
X59274286Y-64524285D01*
X59369524Y-64571904D01*
X59464762Y-64667142D01*
X59512381Y-64810000D01*
X59512381Y-65048095D01*
X58607619Y-64095714D02*
X58560000Y-64048095D01*
X58512381Y-63952857D01*
X58512381Y-63714761D01*
X58560000Y-63619523D01*
X58607619Y-63571904D01*
X58702857Y-63524285D01*
X58798095Y-63524285D01*
X58940952Y-63571904D01*
X59512381Y-64143333D01*
X59512381Y-63524285D01*
X78512381Y-65048095D02*
X77512381Y-65048095D01*
X77512381Y-64810000D01*
X77560000Y-64667142D01*
X77655238Y-64571904D01*
X77750476Y-64524285D01*
X77940952Y-64476666D01*
X78083810Y-64476666D01*
X78274286Y-64524285D01*
X78369524Y-64571904D01*
X78464762Y-64667142D01*
X78512381Y-64810000D01*
X78512381Y-65048095D01*
X77512381Y-64143333D02*
X77512381Y-63524285D01*
X77893333Y-63857619D01*
X77893333Y-63714761D01*
X77940952Y-63619523D01*
X77988571Y-63571904D01*
X78083810Y-63524285D01*
X78321905Y-63524285D01*
X78417143Y-63571904D01*
X78464762Y-63619523D01*
X78512381Y-63714761D01*
X78512381Y-64000476D01*
X78464762Y-64095714D01*
X78417143Y-64143333D01*
X97512381Y-65048095D02*
X96512381Y-65048095D01*
X96512381Y-64810000D01*
X96560000Y-64667142D01*
X96655238Y-64571904D01*
X96750476Y-64524285D01*
X96940952Y-64476666D01*
X97083810Y-64476666D01*
X97274286Y-64524285D01*
X97369524Y-64571904D01*
X97464762Y-64667142D01*
X97512381Y-64810000D01*
X97512381Y-65048095D01*
X96845714Y-63619523D02*
X97512381Y-63619523D01*
X96464762Y-63857619D02*
X97179048Y-64095714D01*
X97179048Y-63476666D01*
X116512381Y-65048095D02*
X115512381Y-65048095D01*
X115512381Y-64810000D01*
X115560000Y-64667142D01*
X115655238Y-64571904D01*
X115750476Y-64524285D01*
X115940952Y-64476666D01*
X116083810Y-64476666D01*
X116274286Y-64524285D01*
X116369524Y-64571904D01*
X116464762Y-64667142D01*
X116512381Y-64810000D01*
X116512381Y-65048095D01*
X115512381Y-63571904D02*
X115512381Y-64048095D01*
X115988571Y-64095714D01*
X115940952Y-64048095D01*
X115893333Y-63952857D01*
X115893333Y-63714761D01*
X115940952Y-63619523D01*
X115988571Y-63571904D01*
X116083810Y-63524285D01*
X116321905Y-63524285D01*
X116417143Y-63571904D01*
X116464762Y-63619523D01*
X116512381Y-63714761D01*
X116512381Y-63952857D01*
X116464762Y-64048095D01*
X116417143Y-64095714D01*
X135512381Y-65048095D02*
X134512381Y-65048095D01*
X134512381Y-64810000D01*
X134560000Y-64667142D01*
X134655238Y-64571904D01*
X134750476Y-64524285D01*
X134940952Y-64476666D01*
X135083810Y-64476666D01*
X135274286Y-64524285D01*
X135369524Y-64571904D01*
X135464762Y-64667142D01*
X135512381Y-64810000D01*
X135512381Y-65048095D01*
X134512381Y-63619523D02*
X134512381Y-63810000D01*
X134560000Y-63905238D01*
X134607619Y-63952857D01*
X134750476Y-64048095D01*
X134940952Y-64095714D01*
X135321905Y-64095714D01*
X135417143Y-64048095D01*
X135464762Y-64000476D01*
X135512381Y-63905238D01*
X135512381Y-63714761D01*
X135464762Y-63619523D01*
X135417143Y-63571904D01*
X135321905Y-63524285D01*
X135083810Y-63524285D01*
X134988571Y-63571904D01*
X134940952Y-63619523D01*
X134893333Y-63714761D01*
X134893333Y-63905238D01*
X134940952Y-64000476D01*
X134988571Y-64048095D01*
X135083810Y-64095714D01*
X154512381Y-65048095D02*
X153512381Y-65048095D01*
X153512381Y-64810000D01*
X153560000Y-64667142D01*
X153655238Y-64571904D01*
X153750476Y-64524285D01*
X153940952Y-64476666D01*
X154083810Y-64476666D01*
X154274286Y-64524285D01*
X154369524Y-64571904D01*
X154464762Y-64667142D01*
X154512381Y-64810000D01*
X154512381Y-65048095D01*
X153512381Y-64143333D02*
X153512381Y-63476666D01*
X154512381Y-63905238D01*
X173512381Y-65048095D02*
X172512381Y-65048095D01*
X172512381Y-64810000D01*
X172560000Y-64667142D01*
X172655238Y-64571904D01*
X172750476Y-64524285D01*
X172940952Y-64476666D01*
X173083810Y-64476666D01*
X173274286Y-64524285D01*
X173369524Y-64571904D01*
X173464762Y-64667142D01*
X173512381Y-64810000D01*
X173512381Y-65048095D01*
X172940952Y-63905238D02*
X172893333Y-64000476D01*
X172845714Y-64048095D01*
X172750476Y-64095714D01*
X172702857Y-64095714D01*
X172607619Y-64048095D01*
X172560000Y-64000476D01*
X172512381Y-63905238D01*
X172512381Y-63714761D01*
X172560000Y-63619523D01*
X172607619Y-63571904D01*
X172702857Y-63524285D01*
X172750476Y-63524285D01*
X172845714Y-63571904D01*
X172893333Y-63619523D01*
X172940952Y-63714761D01*
X172940952Y-63905238D01*
X172988571Y-64000476D01*
X173036190Y-64048095D01*
X173131429Y-64095714D01*
X173321905Y-64095714D01*
X173417143Y-64048095D01*
X173464762Y-64000476D01*
X173512381Y-63905238D01*
X173512381Y-63714761D01*
X173464762Y-63619523D01*
X173417143Y-63571904D01*
X173321905Y-63524285D01*
X173131429Y-63524285D01*
X173036190Y-63571904D01*
X172988571Y-63619523D01*
X172940952Y-63714761D01*
X192512381Y-65048095D02*
X191512381Y-65048095D01*
X191512381Y-64810000D01*
X191560000Y-64667142D01*
X191655238Y-64571904D01*
X191750476Y-64524285D01*
X191940952Y-64476666D01*
X192083810Y-64476666D01*
X192274286Y-64524285D01*
X192369524Y-64571904D01*
X192464762Y-64667142D01*
X192512381Y-64810000D01*
X192512381Y-65048095D01*
X192512381Y-64000476D02*
X192512381Y-63810000D01*
X192464762Y-63714761D01*
X192417143Y-63667142D01*
X192274286Y-63571904D01*
X192083810Y-63524285D01*
X191702857Y-63524285D01*
X191607619Y-63571904D01*
X191560000Y-63619523D01*
X191512381Y-63714761D01*
X191512381Y-63905238D01*
X191560000Y-64000476D01*
X191607619Y-64048095D01*
X191702857Y-64095714D01*
X191940952Y-64095714D01*
X192036190Y-64048095D01*
X192083810Y-64000476D01*
X192131429Y-63905238D01*
X192131429Y-63714761D01*
X192083810Y-63619523D01*
X192036190Y-63571904D01*
X191940952Y-63524285D01*
X211512381Y-65524286D02*
X210512381Y-65524286D01*
X210512381Y-65286191D01*
X210560000Y-65143333D01*
X210655238Y-65048095D01*
X210750476Y-65000476D01*
X210940952Y-64952857D01*
X211083810Y-64952857D01*
X211274286Y-65000476D01*
X211369524Y-65048095D01*
X211464762Y-65143333D01*
X211512381Y-65286191D01*
X211512381Y-65524286D01*
X211512381Y-64000476D02*
X211512381Y-64571905D01*
X211512381Y-64286191D02*
X210512381Y-64286191D01*
X210655238Y-64381429D01*
X210750476Y-64476667D01*
X210798095Y-64571905D01*
X210512381Y-63381429D02*
X210512381Y-63286190D01*
X210560000Y-63190952D01*
X210607619Y-63143333D01*
X210702857Y-63095714D01*
X210893333Y-63048095D01*
X211131429Y-63048095D01*
X211321905Y-63095714D01*
X211417143Y-63143333D01*
X211464762Y-63190952D01*
X211512381Y-63286190D01*
X211512381Y-63381429D01*
X211464762Y-63476667D01*
X211417143Y-63524286D01*
X211321905Y-63571905D01*
X211131429Y-63619524D01*
X210893333Y-63619524D01*
X210702857Y-63571905D01*
X210607619Y-63524286D01*
X210560000Y-63476667D01*
X210512381Y-63381429D01*
X230512381Y-65524286D02*
X229512381Y-65524286D01*
X229512381Y-65286191D01*
X229560000Y-65143333D01*
X229655238Y-65048095D01*
X229750476Y-65000476D01*
X229940952Y-64952857D01*
X230083810Y-64952857D01*
X230274286Y-65000476D01*
X230369524Y-65048095D01*
X230464762Y-65143333D01*
X230512381Y-65286191D01*
X230512381Y-65524286D01*
X230512381Y-64000476D02*
X230512381Y-64571905D01*
X230512381Y-64286191D02*
X229512381Y-64286191D01*
X229655238Y-64381429D01*
X229750476Y-64476667D01*
X229798095Y-64571905D01*
X230512381Y-63048095D02*
X230512381Y-63619524D01*
X230512381Y-63333810D02*
X229512381Y-63333810D01*
X229655238Y-63429048D01*
X229750476Y-63524286D01*
X229798095Y-63619524D01*
X249512381Y-65524286D02*
X248512381Y-65524286D01*
X248512381Y-65286191D01*
X248560000Y-65143333D01*
X248655238Y-65048095D01*
X248750476Y-65000476D01*
X248940952Y-64952857D01*
X249083810Y-64952857D01*
X249274286Y-65000476D01*
X249369524Y-65048095D01*
X249464762Y-65143333D01*
X249512381Y-65286191D01*
X249512381Y-65524286D01*
X249512381Y-64000476D02*
X249512381Y-64571905D01*
X249512381Y-64286191D02*
X248512381Y-64286191D01*
X248655238Y-64381429D01*
X248750476Y-64476667D01*
X248798095Y-64571905D01*
X248607619Y-63619524D02*
X248560000Y-63571905D01*
X248512381Y-63476667D01*
X248512381Y-63238571D01*
X248560000Y-63143333D01*
X248607619Y-63095714D01*
X248702857Y-63048095D01*
X248798095Y-63048095D01*
X248940952Y-63095714D01*
X249512381Y-63667143D01*
X249512381Y-63048095D01*
X44512381Y-67024286D02*
X43512381Y-67024286D01*
X43512381Y-66786191D01*
X43560000Y-66643333D01*
X43655238Y-66548095D01*
X43750476Y-66500476D01*
X43940952Y-66452857D01*
X44083810Y-66452857D01*
X44274286Y-66500476D01*
X44369524Y-66548095D01*
X44464762Y-66643333D01*
X44512381Y-66786191D01*
X44512381Y-67024286D01*
X44512381Y-65500476D02*
X44512381Y-66071905D01*
X44512381Y-65786191D02*
X43512381Y-65786191D01*
X43655238Y-65881429D01*
X43750476Y-65976667D01*
X43798095Y-66071905D01*
X43512381Y-65167143D02*
X43512381Y-64548095D01*
X43893333Y-64881429D01*
X43893333Y-64738571D01*
X43940952Y-64643333D01*
X43988571Y-64595714D01*
X44083810Y-64548095D01*
X44321905Y-64548095D01*
X44417143Y-64595714D01*
X44464762Y-64643333D01*
X44512381Y-64738571D01*
X44512381Y-65024286D01*
X44464762Y-65119524D01*
X44417143Y-65167143D01*
X63512381Y-67024286D02*
X62512381Y-67024286D01*
X62512381Y-66786191D01*
X62560000Y-66643333D01*
X62655238Y-66548095D01*
X62750476Y-66500476D01*
X62940952Y-66452857D01*
X63083810Y-66452857D01*
X63274286Y-66500476D01*
X63369524Y-66548095D01*
X63464762Y-66643333D01*
X63512381Y-66786191D01*
X63512381Y-67024286D01*
X63512381Y-65500476D02*
X63512381Y-66071905D01*
X63512381Y-65786191D02*
X62512381Y-65786191D01*
X62655238Y-65881429D01*
X62750476Y-65976667D01*
X62798095Y-66071905D01*
X62845714Y-64643333D02*
X63512381Y-64643333D01*
X62464762Y-64881429D02*
X63179048Y-65119524D01*
X63179048Y-64500476D01*
X82512381Y-67024286D02*
X81512381Y-67024286D01*
X81512381Y-66786191D01*
X81560000Y-66643333D01*
X81655238Y-66548095D01*
X81750476Y-66500476D01*
X81940952Y-66452857D01*
X82083810Y-66452857D01*
X82274286Y-66500476D01*
X82369524Y-66548095D01*
X82464762Y-66643333D01*
X82512381Y-66786191D01*
X82512381Y-67024286D01*
X82512381Y-65500476D02*
X82512381Y-66071905D01*
X82512381Y-65786191D02*
X81512381Y-65786191D01*
X81655238Y-65881429D01*
X81750476Y-65976667D01*
X81798095Y-66071905D01*
X81512381Y-64595714D02*
X81512381Y-65071905D01*
X81988571Y-65119524D01*
X81940952Y-65071905D01*
X81893333Y-64976667D01*
X81893333Y-64738571D01*
X81940952Y-64643333D01*
X81988571Y-64595714D01*
X82083810Y-64548095D01*
X82321905Y-64548095D01*
X82417143Y-64595714D01*
X82464762Y-64643333D01*
X82512381Y-64738571D01*
X82512381Y-64976667D01*
X82464762Y-65071905D01*
X82417143Y-65119524D01*
X101512381Y-67024286D02*
X100512381Y-67024286D01*
X100512381Y-66786191D01*
X100560000Y-66643333D01*
X100655238Y-66548095D01*
X100750476Y-66500476D01*
X100940952Y-66452857D01*
X101083810Y-66452857D01*
X101274286Y-66500476D01*
X101369524Y-66548095D01*
X101464762Y-66643333D01*
X101512381Y-66786191D01*
X101512381Y-67024286D01*
X101512381Y-65500476D02*
X101512381Y-66071905D01*
X101512381Y-65786191D02*
X100512381Y-65786191D01*
X100655238Y-65881429D01*
X100750476Y-65976667D01*
X100798095Y-66071905D01*
X100512381Y-64643333D02*
X100512381Y-64833810D01*
X100560000Y-64929048D01*
X100607619Y-64976667D01*
X100750476Y-65071905D01*
X100940952Y-65119524D01*
X101321905Y-65119524D01*
X101417143Y-65071905D01*
X101464762Y-65024286D01*
X101512381Y-64929048D01*
X101512381Y-64738571D01*
X101464762Y-64643333D01*
X101417143Y-64595714D01*
X101321905Y-64548095D01*
X101083810Y-64548095D01*
X100988571Y-64595714D01*
X100940952Y-64643333D01*
X100893333Y-64738571D01*
X100893333Y-64929048D01*
X100940952Y-65024286D01*
X100988571Y-65071905D01*
X101083810Y-65119524D01*
X120512381Y-67024286D02*
X119512381Y-67024286D01*
X119512381Y-66786191D01*
X119560000Y-66643333D01*
X119655238Y-66548095D01*
X119750476Y-66500476D01*
X119940952Y-66452857D01*
X120083810Y-66452857D01*
X120274286Y-66500476D01*
X120369524Y-66548095D01*
X120464762Y-66643333D01*
X120512381Y-66786191D01*
X120512381Y-67024286D01*
X120512381Y-65500476D02*
X120512381Y-66071905D01*
X120512381Y-65786191D02*
X119512381Y-65786191D01*
X119655238Y-65881429D01*
X119750476Y-65976667D01*
X119798095Y-66071905D01*
X119512381Y-65167143D02*
X119512381Y-64500476D01*
X120512381Y-64929048D01*
X139512381Y-67024286D02*
X138512381Y-67024286D01*
X138512381Y-66786191D01*
X138560000Y-66643333D01*
X138655238Y-66548095D01*
X138750476Y-66500476D01*
X138940952Y-66452857D01*
X139083810Y-66452857D01*
X139274286Y-66500476D01*
X139369524Y-66548095D01*
X139464762Y-66643333D01*
X139512381Y-66786191D01*
X139512381Y-67024286D01*
X139512381Y-65500476D02*
X139512381Y-66071905D01*
X139512381Y-65786191D02*
X138512381Y-65786191D01*
X138655238Y-65881429D01*
X138750476Y-65976667D01*
X138798095Y-66071905D01*
X138940952Y-64929048D02*
X138893333Y-65024286D01*
X138845714Y-65071905D01*
X138750476Y-65119524D01*
X138702857Y-65119524D01*
X138607619Y-65071905D01*
X138560000Y-65024286D01*
X138512381Y-64929048D01*
X138512381Y-64738571D01*
X138560000Y-64643333D01*
X138607619Y-64595714D01*
X138702857Y-64548095D01*
X138750476Y-64548095D01*
X138845714Y-64595714D01*
X138893333Y-64643333D01*
X138940952Y-64738571D01*
X138940952Y-64929048D01*
X138988571Y-65024286D01*
X139036190Y-65071905D01*
X139131429Y-65119524D01*
X139321905Y-65119524D01*
X139417143Y-65071905D01*
X139464762Y-65024286D01*
X139512381Y-64929048D01*
X139512381Y-64738571D01*
X139464762Y-64643333D01*
X139417143Y-64595714D01*
X139321905Y-64548095D01*
X139131429Y-64548095D01*
X139036190Y-64595714D01*
X138988571Y-64643333D01*
X138940952Y-64738571D01*
X158512381Y-67024286D02*
X157512381Y-67024286D01*
X157512381Y-66786191D01*
X157560000Y-66643333D01*
X157655238Y-66548095D01*
X157750476Y-66500476D01*
X157940952Y-66452857D01*
X158083810Y-66452857D01*
X158274286Y-66500476D01*
X158369524Y-66548095D01*
X158464762Y-66643333D01*
X158512381Y-66786191D01*
X158512381Y-67024286D01*
X158512381Y-65500476D02*
X158512381Y-66071905D01*
X158512381Y-65786191D02*
X157512381Y-65786191D01*
X157655238Y-65881429D01*
X157750476Y-65976667D01*
X157798095Y-66071905D01*
X158512381Y-65024286D02*
X158512381Y-64833810D01*
X158464762Y-64738571D01*
X158417143Y-64690952D01*
X158274286Y-64595714D01*
X158083810Y-64548095D01*
X157702857Y-64548095D01*
X157607619Y-64595714D01*
X157560000Y-64643333D01*
X157512381Y-64738571D01*
X157512381Y-64929048D01*
X157560000Y-65024286D01*
X157607619Y-65071905D01*
X157702857Y-65119524D01*
X157940952Y-65119524D01*
X158036190Y-65071905D01*
X158083810Y-65024286D01*
X158131429Y-64929048D01*
X158131429Y-64738571D01*
X158083810Y-64643333D01*
X158036190Y-64595714D01*
X157940952Y-64548095D01*
X177512381Y-67024286D02*
X176512381Y-67024286D01*
X176512381Y-66786191D01*
X176560000Y-66643333D01*
X176655238Y-66548095D01*
X176750476Y-66500476D01*
X176940952Y-66452857D01*
X177083810Y-66452857D01*
X177274286Y-66500476D01*
X177369524Y-66548095D01*
X177464762Y-66643333D01*
X177512381Y-66786191D01*
X177512381Y-67024286D01*
X176607619Y-66071905D02*
X176560000Y-66024286D01*
X176512381Y-65929048D01*
X176512381Y-65690952D01*
X176560000Y-65595714D01*
X176607619Y-65548095D01*
X176702857Y-65500476D01*
X176798095Y-65500476D01*
X176940952Y-65548095D01*
X177512381Y-66119524D01*
X177512381Y-65500476D01*
X176512381Y-64881429D02*
X176512381Y-64786190D01*
X176560000Y-64690952D01*
X176607619Y-64643333D01*
X176702857Y-64595714D01*
X176893333Y-64548095D01*
X177131429Y-64548095D01*
X177321905Y-64595714D01*
X177417143Y-64643333D01*
X177464762Y-64690952D01*
X177512381Y-64786190D01*
X177512381Y-64881429D01*
X177464762Y-64976667D01*
X177417143Y-65024286D01*
X177321905Y-65071905D01*
X177131429Y-65119524D01*
X176893333Y-65119524D01*
X176702857Y-65071905D01*
X176607619Y-65024286D01*
X176560000Y-64976667D01*
X176512381Y-64881429D01*
X196512381Y-67024286D02*
X195512381Y-67024286D01*
X195512381Y-66786191D01*
X195560000Y-66643333D01*
X195655238Y-66548095D01*
X195750476Y-66500476D01*
X195940952Y-66452857D01*
X196083810Y-66452857D01*
X196274286Y-66500476D01*
X196369524Y-66548095D01*
X196464762Y-66643333D01*
X196512381Y-66786191D01*
X196512381Y-67024286D01*
X195607619Y-66071905D02*
X195560000Y-66024286D01*
X195512381Y-65929048D01*
X195512381Y-65690952D01*
X195560000Y-65595714D01*
X195607619Y-65548095D01*
X195702857Y-65500476D01*
X195798095Y-65500476D01*
X195940952Y-65548095D01*
X196512381Y-66119524D01*
X196512381Y-65500476D01*
X196512381Y-64548095D02*
X196512381Y-65119524D01*
X196512381Y-64833810D02*
X195512381Y-64833810D01*
X195655238Y-64929048D01*
X195750476Y-65024286D01*
X195798095Y-65119524D01*
X215512381Y-67024286D02*
X214512381Y-67024286D01*
X214512381Y-66786191D01*
X214560000Y-66643333D01*
X214655238Y-66548095D01*
X214750476Y-66500476D01*
X214940952Y-66452857D01*
X215083810Y-66452857D01*
X215274286Y-66500476D01*
X215369524Y-66548095D01*
X215464762Y-66643333D01*
X215512381Y-66786191D01*
X215512381Y-67024286D01*
X214607619Y-66071905D02*
X214560000Y-66024286D01*
X214512381Y-65929048D01*
X214512381Y-65690952D01*
X214560000Y-65595714D01*
X214607619Y-65548095D01*
X214702857Y-65500476D01*
X214798095Y-65500476D01*
X214940952Y-65548095D01*
X215512381Y-66119524D01*
X215512381Y-65500476D01*
X214607619Y-65119524D02*
X214560000Y-65071905D01*
X214512381Y-64976667D01*
X214512381Y-64738571D01*
X214560000Y-64643333D01*
X214607619Y-64595714D01*
X214702857Y-64548095D01*
X214798095Y-64548095D01*
X214940952Y-64595714D01*
X215512381Y-65167143D01*
X215512381Y-64548095D01*
X234512381Y-67024286D02*
X233512381Y-67024286D01*
X233512381Y-66786191D01*
X233560000Y-66643333D01*
X233655238Y-66548095D01*
X233750476Y-66500476D01*
X233940952Y-66452857D01*
X234083810Y-66452857D01*
X234274286Y-66500476D01*
X234369524Y-66548095D01*
X234464762Y-66643333D01*
X234512381Y-66786191D01*
X234512381Y-67024286D01*
X233607619Y-66071905D02*
X233560000Y-66024286D01*
X233512381Y-65929048D01*
X233512381Y-65690952D01*
X233560000Y-65595714D01*
X233607619Y-65548095D01*
X233702857Y-65500476D01*
X233798095Y-65500476D01*
X233940952Y-65548095D01*
X234512381Y-66119524D01*
X234512381Y-65500476D01*
X233512381Y-65167143D02*
X233512381Y-64548095D01*
X233893333Y-64881429D01*
X233893333Y-64738571D01*
X233940952Y-64643333D01*
X233988571Y-64595714D01*
X234083810Y-64548095D01*
X234321905Y-64548095D01*
X234417143Y-64595714D01*
X234464762Y-64643333D01*
X234512381Y-64738571D01*
X234512381Y-65024286D01*
X234464762Y-65119524D01*
X234417143Y-65167143D01*
X253512381Y-67024286D02*
X252512381Y-67024286D01*
X252512381Y-66786191D01*
X252560000Y-66643333D01*
X252655238Y-66548095D01*
X252750476Y-66500476D01*
X252940952Y-66452857D01*
X253083810Y-66452857D01*
X253274286Y-66500476D01*
X253369524Y-66548095D01*
X253464762Y-66643333D01*
X253512381Y-66786191D01*
X253512381Y-67024286D01*
X252607619Y-66071905D02*
X252560000Y-66024286D01*
X252512381Y-65929048D01*
X252512381Y-65690952D01*
X252560000Y-65595714D01*
X252607619Y-65548095D01*
X252702857Y-65500476D01*
X252798095Y-65500476D01*
X252940952Y-65548095D01*
X253512381Y-66119524D01*
X253512381Y-65500476D01*
X252845714Y-64643333D02*
X253512381Y-64643333D01*
X252464762Y-64881429D02*
X253179048Y-65119524D01*
X253179048Y-64500476D01*
X48512381Y-68524286D02*
X47512381Y-68524286D01*
X47512381Y-68286191D01*
X47560000Y-68143333D01*
X47655238Y-68048095D01*
X47750476Y-68000476D01*
X47940952Y-67952857D01*
X48083810Y-67952857D01*
X48274286Y-68000476D01*
X48369524Y-68048095D01*
X48464762Y-68143333D01*
X48512381Y-68286191D01*
X48512381Y-68524286D01*
X47607619Y-67571905D02*
X47560000Y-67524286D01*
X47512381Y-67429048D01*
X47512381Y-67190952D01*
X47560000Y-67095714D01*
X47607619Y-67048095D01*
X47702857Y-67000476D01*
X47798095Y-67000476D01*
X47940952Y-67048095D01*
X48512381Y-67619524D01*
X48512381Y-67000476D01*
X47512381Y-66095714D02*
X47512381Y-66571905D01*
X47988571Y-66619524D01*
X47940952Y-66571905D01*
X47893333Y-66476667D01*
X47893333Y-66238571D01*
X47940952Y-66143333D01*
X47988571Y-66095714D01*
X48083810Y-66048095D01*
X48321905Y-66048095D01*
X48417143Y-66095714D01*
X48464762Y-66143333D01*
X48512381Y-66238571D01*
X48512381Y-66476667D01*
X48464762Y-66571905D01*
X48417143Y-66619524D01*
X67512381Y-68524286D02*
X66512381Y-68524286D01*
X66512381Y-68286191D01*
X66560000Y-68143333D01*
X66655238Y-68048095D01*
X66750476Y-68000476D01*
X66940952Y-67952857D01*
X67083810Y-67952857D01*
X67274286Y-68000476D01*
X67369524Y-68048095D01*
X67464762Y-68143333D01*
X67512381Y-68286191D01*
X67512381Y-68524286D01*
X66607619Y-67571905D02*
X66560000Y-67524286D01*
X66512381Y-67429048D01*
X66512381Y-67190952D01*
X66560000Y-67095714D01*
X66607619Y-67048095D01*
X66702857Y-67000476D01*
X66798095Y-67000476D01*
X66940952Y-67048095D01*
X67512381Y-67619524D01*
X67512381Y-67000476D01*
X66512381Y-66143333D02*
X66512381Y-66333810D01*
X66560000Y-66429048D01*
X66607619Y-66476667D01*
X66750476Y-66571905D01*
X66940952Y-66619524D01*
X67321905Y-66619524D01*
X67417143Y-66571905D01*
X67464762Y-66524286D01*
X67512381Y-66429048D01*
X67512381Y-66238571D01*
X67464762Y-66143333D01*
X67417143Y-66095714D01*
X67321905Y-66048095D01*
X67083810Y-66048095D01*
X66988571Y-66095714D01*
X66940952Y-66143333D01*
X66893333Y-66238571D01*
X66893333Y-66429048D01*
X66940952Y-66524286D01*
X66988571Y-66571905D01*
X67083810Y-66619524D01*
X86512381Y-68524286D02*
X85512381Y-68524286D01*
X85512381Y-68286191D01*
X85560000Y-68143333D01*
X85655238Y-68048095D01*
X85750476Y-68000476D01*
X85940952Y-67952857D01*
X86083810Y-67952857D01*
X86274286Y-68000476D01*
X86369524Y-68048095D01*
X86464762Y-68143333D01*
X86512381Y-68286191D01*
X86512381Y-68524286D01*
X85607619Y-67571905D02*
X85560000Y-67524286D01*
X85512381Y-67429048D01*
X85512381Y-67190952D01*
X85560000Y-67095714D01*
X85607619Y-67048095D01*
X85702857Y-67000476D01*
X85798095Y-67000476D01*
X85940952Y-67048095D01*
X86512381Y-67619524D01*
X86512381Y-67000476D01*
X85512381Y-66667143D02*
X85512381Y-66000476D01*
X86512381Y-66429048D01*
X105512381Y-68524286D02*
X104512381Y-68524286D01*
X104512381Y-68286191D01*
X104560000Y-68143333D01*
X104655238Y-68048095D01*
X104750476Y-68000476D01*
X104940952Y-67952857D01*
X105083810Y-67952857D01*
X105274286Y-68000476D01*
X105369524Y-68048095D01*
X105464762Y-68143333D01*
X105512381Y-68286191D01*
X105512381Y-68524286D01*
X104607619Y-67571905D02*
X104560000Y-67524286D01*
X104512381Y-67429048D01*
X104512381Y-67190952D01*
X104560000Y-67095714D01*
X104607619Y-67048095D01*
X104702857Y-67000476D01*
X104798095Y-67000476D01*
X104940952Y-67048095D01*
X105512381Y-67619524D01*
X105512381Y-67000476D01*
X104940952Y-66429048D02*
X104893333Y-66524286D01*
X104845714Y-66571905D01*
X104750476Y-66619524D01*
X104702857Y-66619524D01*
X104607619Y-66571905D01*
X104560000Y-66524286D01*
X104512381Y-66429048D01*
X104512381Y-66238571D01*
X104560000Y-66143333D01*
X104607619Y-66095714D01*
X104702857Y-66048095D01*
X104750476Y-66048095D01*
X104845714Y-66095714D01*
X104893333Y-66143333D01*
X104940952Y-66238571D01*
X104940952Y-66429048D01*
X104988571Y-66524286D01*
X105036190Y-66571905D01*
X105131429Y-66619524D01*
X105321905Y-66619524D01*
X105417143Y-66571905D01*
X105464762Y-66524286D01*
X105512381Y-66429048D01*
X105512381Y-66238571D01*
X105464762Y-66143333D01*
X105417143Y-66095714D01*
X105321905Y-66048095D01*
X105131429Y-66048095D01*
X105036190Y-66095714D01*
X104988571Y-66143333D01*
X104940952Y-66238571D01*
X124512381Y-68524286D02*
X123512381Y-68524286D01*
X123512381Y-68286191D01*
X123560000Y-68143333D01*
X123655238Y-68048095D01*
X123750476Y-68000476D01*
X123940952Y-67952857D01*
X124083810Y-67952857D01*
X124274286Y-68000476D01*
X124369524Y-68048095D01*
X124464762Y-68143333D01*
X124512381Y-68286191D01*
X124512381Y-68524286D01*
X123607619Y-67571905D02*
X123560000Y-67524286D01*
X123512381Y-67429048D01*
X123512381Y-67190952D01*
X123560000Y-67095714D01*
X123607619Y-67048095D01*
X123702857Y-67000476D01*
X123798095Y-67000476D01*
X123940952Y-67048095D01*
X124512381Y-67619524D01*
X124512381Y-67000476D01*
X124512381Y-66524286D02*
X124512381Y-66333810D01*
X124464762Y-66238571D01*
X124417143Y-66190952D01*
X124274286Y-66095714D01*
X124083810Y-66048095D01*
X123702857Y-66048095D01*
X123607619Y-66095714D01*
X123560000Y-66143333D01*
X123512381Y-66238571D01*
X123512381Y-66429048D01*
X123560000Y-66524286D01*
X123607619Y-66571905D01*
X123702857Y-66619524D01*
X123940952Y-66619524D01*
X124036190Y-66571905D01*
X124083810Y-66524286D01*
X124131429Y-66429048D01*
X124131429Y-66238571D01*
X124083810Y-66143333D01*
X124036190Y-66095714D01*
X123940952Y-66048095D01*
X143512381Y-68524286D02*
X142512381Y-68524286D01*
X142512381Y-68286191D01*
X142560000Y-68143333D01*
X142655238Y-68048095D01*
X142750476Y-68000476D01*
X142940952Y-67952857D01*
X143083810Y-67952857D01*
X143274286Y-68000476D01*
X143369524Y-68048095D01*
X143464762Y-68143333D01*
X143512381Y-68286191D01*
X143512381Y-68524286D01*
X142512381Y-67619524D02*
X142512381Y-67000476D01*
X142893333Y-67333810D01*
X142893333Y-67190952D01*
X142940952Y-67095714D01*
X142988571Y-67048095D01*
X143083810Y-67000476D01*
X143321905Y-67000476D01*
X143417143Y-67048095D01*
X143464762Y-67095714D01*
X143512381Y-67190952D01*
X143512381Y-67476667D01*
X143464762Y-67571905D01*
X143417143Y-67619524D01*
X142512381Y-66381429D02*
X142512381Y-66286190D01*
X142560000Y-66190952D01*
X142607619Y-66143333D01*
X142702857Y-66095714D01*
X142893333Y-66048095D01*
X143131429Y-66048095D01*
X143321905Y-66095714D01*
X143417143Y-66143333D01*
X143464762Y-66190952D01*
X143512381Y-66286190D01*
X143512381Y-66381429D01*
X143464762Y-66476667D01*
X143417143Y-66524286D01*
X143321905Y-66571905D01*
X143131429Y-66619524D01*
X142893333Y-66619524D01*
X142702857Y-66571905D01*
X142607619Y-66524286D01*
X142560000Y-66476667D01*
X142512381Y-66381429D01*
X162512381Y-68524286D02*
X161512381Y-68524286D01*
X161512381Y-68286191D01*
X161560000Y-68143333D01*
X161655238Y-68048095D01*
X161750476Y-68000476D01*
X161940952Y-67952857D01*
X162083810Y-67952857D01*
X162274286Y-68000476D01*
X162369524Y-68048095D01*
X162464762Y-68143333D01*
X162512381Y-68286191D01*
X162512381Y-68524286D01*
X161512381Y-67619524D02*
X161512381Y-67000476D01*
X161893333Y-67333810D01*
X161893333Y-67190952D01*
X161940952Y-67095714D01*
X161988571Y-67048095D01*
X162083810Y-67000476D01*
X162321905Y-67000476D01*
X162417143Y-67048095D01*
X162464762Y-67095714D01*
X162512381Y-67190952D01*
X162512381Y-67476667D01*
X162464762Y-67571905D01*
X162417143Y-67619524D01*
X162512381Y-66048095D02*
X162512381Y-66619524D01*
X162512381Y-66333810D02*
X161512381Y-66333810D01*
X161655238Y-66429048D01*
X161750476Y-66524286D01*
X161798095Y-66619524D01*
X181512381Y-68524286D02*
X180512381Y-68524286D01*
X180512381Y-68286191D01*
X180560000Y-68143333D01*
X180655238Y-68048095D01*
X180750476Y-68000476D01*
X180940952Y-67952857D01*
X181083810Y-67952857D01*
X181274286Y-68000476D01*
X181369524Y-68048095D01*
X181464762Y-68143333D01*
X181512381Y-68286191D01*
X181512381Y-68524286D01*
X180512381Y-67619524D02*
X180512381Y-67000476D01*
X180893333Y-67333810D01*
X180893333Y-67190952D01*
X180940952Y-67095714D01*
X180988571Y-67048095D01*
X181083810Y-67000476D01*
X181321905Y-67000476D01*
X181417143Y-67048095D01*
X181464762Y-67095714D01*
X181512381Y-67190952D01*
X181512381Y-67476667D01*
X181464762Y-67571905D01*
X181417143Y-67619524D01*
X180607619Y-66619524D02*
X180560000Y-66571905D01*
X180512381Y-66476667D01*
X180512381Y-66238571D01*
X180560000Y-66143333D01*
X180607619Y-66095714D01*
X180702857Y-66048095D01*
X180798095Y-66048095D01*
X180940952Y-66095714D01*
X181512381Y-66667143D01*
X181512381Y-66048095D01*
X200512381Y-68524286D02*
X199512381Y-68524286D01*
X199512381Y-68286191D01*
X199560000Y-68143333D01*
X199655238Y-68048095D01*
X199750476Y-68000476D01*
X199940952Y-67952857D01*
X200083810Y-67952857D01*
X200274286Y-68000476D01*
X200369524Y-68048095D01*
X200464762Y-68143333D01*
X200512381Y-68286191D01*
X200512381Y-68524286D01*
X199512381Y-67619524D02*
X199512381Y-67000476D01*
X199893333Y-67333810D01*
X199893333Y-67190952D01*
X199940952Y-67095714D01*
X199988571Y-67048095D01*
X200083810Y-67000476D01*
X200321905Y-67000476D01*
X200417143Y-67048095D01*
X200464762Y-67095714D01*
X200512381Y-67190952D01*
X200512381Y-67476667D01*
X200464762Y-67571905D01*
X200417143Y-67619524D01*
X199512381Y-66667143D02*
X199512381Y-66048095D01*
X199893333Y-66381429D01*
X199893333Y-66238571D01*
X199940952Y-66143333D01*
X199988571Y-66095714D01*
X200083810Y-66048095D01*
X200321905Y-66048095D01*
X200417143Y-66095714D01*
X200464762Y-66143333D01*
X200512381Y-66238571D01*
X200512381Y-66524286D01*
X200464762Y-66619524D01*
X200417143Y-66667143D01*
X219512381Y-68524286D02*
X218512381Y-68524286D01*
X218512381Y-68286191D01*
X218560000Y-68143333D01*
X218655238Y-68048095D01*
X218750476Y-68000476D01*
X218940952Y-67952857D01*
X219083810Y-67952857D01*
X219274286Y-68000476D01*
X219369524Y-68048095D01*
X219464762Y-68143333D01*
X219512381Y-68286191D01*
X219512381Y-68524286D01*
X218512381Y-67619524D02*
X218512381Y-67000476D01*
X218893333Y-67333810D01*
X218893333Y-67190952D01*
X218940952Y-67095714D01*
X218988571Y-67048095D01*
X219083810Y-67000476D01*
X219321905Y-67000476D01*
X219417143Y-67048095D01*
X219464762Y-67095714D01*
X219512381Y-67190952D01*
X219512381Y-67476667D01*
X219464762Y-67571905D01*
X219417143Y-67619524D01*
X218845714Y-66143333D02*
X219512381Y-66143333D01*
X218464762Y-66381429D02*
X219179048Y-66619524D01*
X219179048Y-66000476D01*
X238512381Y-68524286D02*
X237512381Y-68524286D01*
X237512381Y-68286191D01*
X237560000Y-68143333D01*
X237655238Y-68048095D01*
X237750476Y-68000476D01*
X237940952Y-67952857D01*
X238083810Y-67952857D01*
X238274286Y-68000476D01*
X238369524Y-68048095D01*
X238464762Y-68143333D01*
X238512381Y-68286191D01*
X238512381Y-68524286D01*
X237512381Y-67619524D02*
X237512381Y-67000476D01*
X237893333Y-67333810D01*
X237893333Y-67190952D01*
X237940952Y-67095714D01*
X237988571Y-67048095D01*
X238083810Y-67000476D01*
X238321905Y-67000476D01*
X238417143Y-67048095D01*
X238464762Y-67095714D01*
X238512381Y-67190952D01*
X238512381Y-67476667D01*
X238464762Y-67571905D01*
X238417143Y-67619524D01*
X237512381Y-66095714D02*
X237512381Y-66571905D01*
X237988571Y-66619524D01*
X237940952Y-66571905D01*
X237893333Y-66476667D01*
X237893333Y-66238571D01*
X237940952Y-66143333D01*
X237988571Y-66095714D01*
X238083810Y-66048095D01*
X238321905Y-66048095D01*
X238417143Y-66095714D01*
X238464762Y-66143333D01*
X238512381Y-66238571D01*
X238512381Y-66476667D01*
X238464762Y-66571905D01*
X238417143Y-66619524D01*
X257512381Y-68524286D02*
X256512381Y-68524286D01*
X256512381Y-68286191D01*
X256560000Y-68143333D01*
X256655238Y-68048095D01*
X256750476Y-68000476D01*
X256940952Y-67952857D01*
X257083810Y-67952857D01*
X257274286Y-68000476D01*
X257369524Y-68048095D01*
X257464762Y-68143333D01*
X257512381Y-68286191D01*
X257512381Y-68524286D01*
X256512381Y-67619524D02*
X256512381Y-67000476D01*
X256893333Y-67333810D01*
X256893333Y-67190952D01*
X256940952Y-67095714D01*
X256988571Y-67048095D01*
X257083810Y-67000476D01*
X257321905Y-67000476D01*
X257417143Y-67048095D01*
X257464762Y-67095714D01*
X257512381Y-67190952D01*
X257512381Y-67476667D01*
X257464762Y-67571905D01*
X257417143Y-67619524D01*
X256512381Y-66143333D02*
X256512381Y-66333810D01*
X256560000Y-66429048D01*
X256607619Y-66476667D01*
X256750476Y-66571905D01*
X256940952Y-66619524D01*
X257321905Y-66619524D01*
X257417143Y-66571905D01*
X257464762Y-66524286D01*
X257512381Y-66429048D01*
X257512381Y-66238571D01*
X257464762Y-66143333D01*
X257417143Y-66095714D01*
X257321905Y-66048095D01*
X257083810Y-66048095D01*
X256988571Y-66095714D01*
X256940952Y-66143333D01*
X256893333Y-66238571D01*
X256893333Y-66429048D01*
X256940952Y-66524286D01*
X256988571Y-66571905D01*
X257083810Y-66619524D01*
X52512381Y-70024286D02*
X51512381Y-70024286D01*
X51512381Y-69786191D01*
X51560000Y-69643333D01*
X51655238Y-69548095D01*
X51750476Y-69500476D01*
X51940952Y-69452857D01*
X52083810Y-69452857D01*
X52274286Y-69500476D01*
X52369524Y-69548095D01*
X52464762Y-69643333D01*
X52512381Y-69786191D01*
X52512381Y-70024286D01*
X51512381Y-69119524D02*
X51512381Y-68500476D01*
X51893333Y-68833810D01*
X51893333Y-68690952D01*
X51940952Y-68595714D01*
X51988571Y-68548095D01*
X52083810Y-68500476D01*
X52321905Y-68500476D01*
X52417143Y-68548095D01*
X52464762Y-68595714D01*
X52512381Y-68690952D01*
X52512381Y-68976667D01*
X52464762Y-69071905D01*
X52417143Y-69119524D01*
X51512381Y-68167143D02*
X51512381Y-67500476D01*
X52512381Y-67929048D01*
X71512381Y-70024286D02*
X70512381Y-70024286D01*
X70512381Y-69786191D01*
X70560000Y-69643333D01*
X70655238Y-69548095D01*
X70750476Y-69500476D01*
X70940952Y-69452857D01*
X71083810Y-69452857D01*
X71274286Y-69500476D01*
X71369524Y-69548095D01*
X71464762Y-69643333D01*
X71512381Y-69786191D01*
X71512381Y-70024286D01*
X70512381Y-69119524D02*
X70512381Y-68500476D01*
X70893333Y-68833810D01*
X70893333Y-68690952D01*
X70940952Y-68595714D01*
X70988571Y-68548095D01*
X71083810Y-68500476D01*
X71321905Y-68500476D01*
X71417143Y-68548095D01*
X71464762Y-68595714D01*
X71512381Y-68690952D01*
X71512381Y-68976667D01*
X71464762Y-69071905D01*
X71417143Y-69119524D01*
X70940952Y-67929048D02*
X70893333Y-68024286D01*
X70845714Y-68071905D01*
X70750476Y-68119524D01*
X70702857Y-68119524D01*
X70607619Y-68071905D01*
X70560000Y-68024286D01*
X70512381Y-67929048D01*
X70512381Y-67738571D01*
X70560000Y-67643333D01*
X70607619Y-67595714D01*
X70702857Y-67548095D01*
X70750476Y-67548095D01*
X70845714Y-67595714D01*
X70893333Y-67643333D01*
X70940952Y-67738571D01*
X70940952Y-67929048D01*
X70988571Y-68024286D01*
X71036190Y-68071905D01*
X71131429Y-68119524D01*
X71321905Y-68119524D01*
X71417143Y-68071905D01*
X71464762Y-68024286D01*
X71512381Y-67929048D01*
X71512381Y-67738571D01*
X71464762Y-67643333D01*
X71417143Y-67595714D01*
X71321905Y-67548095D01*
X71131429Y-67548095D01*
X71036190Y-67595714D01*
X70988571Y-67643333D01*
X70940952Y-67738571D01*
X90512381Y-70024286D02*
X89512381Y-70024286D01*
X89512381Y-69786191D01*
X89560000Y-69643333D01*
X89655238Y-69548095D01*
X89750476Y-69500476D01*
X89940952Y-69452857D01*
X90083810Y-69452857D01*
X90274286Y-69500476D01*
X90369524Y-69548095D01*
X90464762Y-69643333D01*
X90512381Y-69786191D01*
X90512381Y-70024286D01*
X89512381Y-69119524D02*
X89512381Y-68500476D01*
X89893333Y-68833810D01*
X89893333Y-68690952D01*
X89940952Y-68595714D01*
X89988571Y-68548095D01*
X90083810Y-68500476D01*
X90321905Y-68500476D01*
X90417143Y-68548095D01*
X90464762Y-68595714D01*
X90512381Y-68690952D01*
X90512381Y-68976667D01*
X90464762Y-69071905D01*
X90417143Y-69119524D01*
X90512381Y-68024286D02*
X90512381Y-67833810D01*
X90464762Y-67738571D01*
X90417143Y-67690952D01*
X90274286Y-67595714D01*
X90083810Y-67548095D01*
X89702857Y-67548095D01*
X89607619Y-67595714D01*
X89560000Y-67643333D01*
X89512381Y-67738571D01*
X89512381Y-67929048D01*
X89560000Y-68024286D01*
X89607619Y-68071905D01*
X89702857Y-68119524D01*
X89940952Y-68119524D01*
X90036190Y-68071905D01*
X90083810Y-68024286D01*
X90131429Y-67929048D01*
X90131429Y-67738571D01*
X90083810Y-67643333D01*
X90036190Y-67595714D01*
X89940952Y-67548095D01*
X109512381Y-70024286D02*
X108512381Y-70024286D01*
X108512381Y-69786191D01*
X108560000Y-69643333D01*
X108655238Y-69548095D01*
X108750476Y-69500476D01*
X108940952Y-69452857D01*
X109083810Y-69452857D01*
X109274286Y-69500476D01*
X109369524Y-69548095D01*
X109464762Y-69643333D01*
X109512381Y-69786191D01*
X109512381Y-70024286D01*
X108845714Y-68595714D02*
X109512381Y-68595714D01*
X108464762Y-68833810D02*
X109179048Y-69071905D01*
X109179048Y-68452857D01*
X108512381Y-67881429D02*
X108512381Y-67786190D01*
X108560000Y-67690952D01*
X108607619Y-67643333D01*
X108702857Y-67595714D01*
X108893333Y-67548095D01*
X109131429Y-67548095D01*
X109321905Y-67595714D01*
X109417143Y-67643333D01*
X109464762Y-67690952D01*
X109512381Y-67786190D01*
X109512381Y-67881429D01*
X109464762Y-67976667D01*
X109417143Y-68024286D01*
X109321905Y-68071905D01*
X109131429Y-68119524D01*
X108893333Y-68119524D01*
X108702857Y-68071905D01*
X108607619Y-68024286D01*
X108560000Y-67976667D01*
X108512381Y-67881429D01*
X128512381Y-70024286D02*
X127512381Y-70024286D01*
X127512381Y-69786191D01*
X127560000Y-69643333D01*
X127655238Y-69548095D01*
X127750476Y-69500476D01*
X127940952Y-69452857D01*
X128083810Y-69452857D01*
X128274286Y-69500476D01*
X128369524Y-69548095D01*
X128464762Y-69643333D01*
X128512381Y-69786191D01*
X128512381Y-70024286D01*
X127845714Y-68595714D02*
X128512381Y-68595714D01*
X127464762Y-68833810D02*
X128179048Y-69071905D01*
X128179048Y-68452857D01*
X128512381Y-67548095D02*
X128512381Y-68119524D01*
X128512381Y-67833810D02*
X127512381Y-67833810D01*
X127655238Y-67929048D01*
X127750476Y-68024286D01*
X127798095Y-68119524D01*
X147512381Y-70024286D02*
X146512381Y-70024286D01*
X146512381Y-69786191D01*
X146560000Y-69643333D01*
X146655238Y-69548095D01*
X146750476Y-69500476D01*
X146940952Y-69452857D01*
X147083810Y-69452857D01*
X147274286Y-69500476D01*
X147369524Y-69548095D01*
X147464762Y-69643333D01*
X147512381Y-69786191D01*
X147512381Y-70024286D01*
X146845714Y-68595714D02*
X147512381Y-68595714D01*
X146464762Y-68833810D02*
X147179048Y-69071905D01*
X147179048Y-68452857D01*
X146607619Y-68119524D02*
X146560000Y-68071905D01*
X146512381Y-67976667D01*
X146512381Y-67738571D01*
X146560000Y-67643333D01*
X146607619Y-67595714D01*
X146702857Y-67548095D01*
X146798095Y-67548095D01*
X146940952Y-67595714D01*
X147512381Y-68167143D01*
X147512381Y-67548095D01*
X166512381Y-70024286D02*
X165512381Y-70024286D01*
X165512381Y-69786191D01*
X165560000Y-69643333D01*
X165655238Y-69548095D01*
X165750476Y-69500476D01*
X165940952Y-69452857D01*
X166083810Y-69452857D01*
X166274286Y-69500476D01*
X166369524Y-69548095D01*
X166464762Y-69643333D01*
X166512381Y-69786191D01*
X166512381Y-70024286D01*
X165845714Y-68595714D02*
X166512381Y-68595714D01*
X165464762Y-68833810D02*
X166179048Y-69071905D01*
X166179048Y-68452857D01*
X165512381Y-68167143D02*
X165512381Y-67548095D01*
X165893333Y-67881429D01*
X165893333Y-67738571D01*
X165940952Y-67643333D01*
X165988571Y-67595714D01*
X166083810Y-67548095D01*
X166321905Y-67548095D01*
X166417143Y-67595714D01*
X166464762Y-67643333D01*
X166512381Y-67738571D01*
X166512381Y-68024286D01*
X166464762Y-68119524D01*
X166417143Y-68167143D01*
X185512381Y-70024286D02*
X184512381Y-70024286D01*
X184512381Y-69786191D01*
X184560000Y-69643333D01*
X184655238Y-69548095D01*
X184750476Y-69500476D01*
X184940952Y-69452857D01*
X185083810Y-69452857D01*
X185274286Y-69500476D01*
X185369524Y-69548095D01*
X185464762Y-69643333D01*
X185512381Y-69786191D01*
X185512381Y-70024286D01*
X184845714Y-68595714D02*
X185512381Y-68595714D01*
X184464762Y-68833810D02*
X185179048Y-69071905D01*
X185179048Y-68452857D01*
X184845714Y-67643333D02*
X185512381Y-67643333D01*
X184464762Y-67881429D02*
X185179048Y-68119524D01*
X185179048Y-67500476D01*
X204512381Y-70024286D02*
X203512381Y-70024286D01*
X203512381Y-69786191D01*
X203560000Y-69643333D01*
X203655238Y-69548095D01*
X203750476Y-69500476D01*
X203940952Y-69452857D01*
X204083810Y-69452857D01*
X204274286Y-69500476D01*
X204369524Y-69548095D01*
X204464762Y-69643333D01*
X204512381Y-69786191D01*
X204512381Y-70024286D01*
X203845714Y-68595714D02*
X204512381Y-68595714D01*
X203464762Y-68833810D02*
X204179048Y-69071905D01*
X204179048Y-68452857D01*
X203512381Y-67595714D02*
X203512381Y-68071905D01*
X203988571Y-68119524D01*
X203940952Y-68071905D01*
X203893333Y-67976667D01*
X203893333Y-67738571D01*
X203940952Y-67643333D01*
X203988571Y-67595714D01*
X204083810Y-67548095D01*
X204321905Y-67548095D01*
X204417143Y-67595714D01*
X204464762Y-67643333D01*
X204512381Y-67738571D01*
X204512381Y-67976667D01*
X204464762Y-68071905D01*
X204417143Y-68119524D01*
X223512381Y-70024286D02*
X222512381Y-70024286D01*
X222512381Y-69786191D01*
X222560000Y-69643333D01*
X222655238Y-69548095D01*
X222750476Y-69500476D01*
X222940952Y-69452857D01*
X223083810Y-69452857D01*
X223274286Y-69500476D01*
X223369524Y-69548095D01*
X223464762Y-69643333D01*
X223512381Y-69786191D01*
X223512381Y-70024286D01*
X222845714Y-68595714D02*
X223512381Y-68595714D01*
X222464762Y-68833810D02*
X223179048Y-69071905D01*
X223179048Y-68452857D01*
X222512381Y-67643333D02*
X222512381Y-67833810D01*
X222560000Y-67929048D01*
X222607619Y-67976667D01*
X222750476Y-68071905D01*
X222940952Y-68119524D01*
X223321905Y-68119524D01*
X223417143Y-68071905D01*
X223464762Y-68024286D01*
X223512381Y-67929048D01*
X223512381Y-67738571D01*
X223464762Y-67643333D01*
X223417143Y-67595714D01*
X223321905Y-67548095D01*
X223083810Y-67548095D01*
X222988571Y-67595714D01*
X222940952Y-67643333D01*
X222893333Y-67738571D01*
X222893333Y-67929048D01*
X222940952Y-68024286D01*
X222988571Y-68071905D01*
X223083810Y-68119524D01*
X242512381Y-70024286D02*
X241512381Y-70024286D01*
X241512381Y-69786191D01*
X241560000Y-69643333D01*
X241655238Y-69548095D01*
X241750476Y-69500476D01*
X241940952Y-69452857D01*
X242083810Y-69452857D01*
X242274286Y-69500476D01*
X242369524Y-69548095D01*
X242464762Y-69643333D01*
X242512381Y-69786191D01*
X242512381Y-70024286D01*
X241845714Y-68595714D02*
X242512381Y-68595714D01*
X241464762Y-68833810D02*
X242179048Y-69071905D01*
X242179048Y-68452857D01*
X241512381Y-68167143D02*
X241512381Y-67500476D01*
X242512381Y-67929048D01*
X261512381Y-70024286D02*
X260512381Y-70024286D01*
X260512381Y-69786191D01*
X260560000Y-69643333D01*
X260655238Y-69548095D01*
X260750476Y-69500476D01*
X260940952Y-69452857D01*
X261083810Y-69452857D01*
X261274286Y-69500476D01*
X261369524Y-69548095D01*
X261464762Y-69643333D01*
X261512381Y-69786191D01*
X261512381Y-70024286D01*
X260845714Y-68595714D02*
X261512381Y-68595714D01*
X260464762Y-68833810D02*
X261179048Y-69071905D01*
X261179048Y-68452857D01*
X260940952Y-67929048D02*
X260893333Y-68024286D01*
X260845714Y-68071905D01*
X260750476Y-68119524D01*
X260702857Y-68119524D01*
X260607619Y-68071905D01*
X260560000Y-68024286D01*
X260512381Y-67929048D01*
X260512381Y-67738571D01*
X260560000Y-67643333D01*
X260607619Y-67595714D01*
X260702857Y-67548095D01*
X260750476Y-67548095D01*
X260845714Y-67595714D01*
X260893333Y-67643333D01*
X260940952Y-67738571D01*
X260940952Y-67929048D01*
X260988571Y-68024286D01*
X261036190Y-68071905D01*
X261131429Y-68119524D01*
X261321905Y-68119524D01*
X261417143Y-68071905D01*
X261464762Y-68024286D01*
X261512381Y-67929048D01*
X261512381Y-67738571D01*
X261464762Y-67643333D01*
X261417143Y-67595714D01*
X261321905Y-67548095D01*
X261131429Y-67548095D01*
X261036190Y-67595714D01*
X260988571Y-67643333D01*
X260940952Y-67738571D01*
D13*
G36*
X203772283Y-46073000D02*
X186127000Y-46073000D01*
X186127000Y-44027000D01*
X203760757Y-44027000D01*
X203772283Y-46073000D01*
X203772283Y-46073000D01*
G37*
X203772283Y-46073000D02*
X186127000Y-46073000D01*
X186127000Y-44027000D01*
X203760757Y-44027000D01*
X203772283Y-46073000D01*
G36*
X203772283Y-48673000D02*
X186127000Y-48673000D01*
X186127000Y-46627000D01*
X203760757Y-46627000D01*
X203772283Y-48673000D01*
X203772283Y-48673000D01*
G37*
X203772283Y-48673000D02*
X186127000Y-48673000D01*
X186127000Y-46627000D01*
X203760757Y-46627000D01*
X203772283Y-48673000D01*
G36*
X203772283Y-51273000D02*
X186127000Y-51273000D01*
X186127000Y-49227000D01*
X203760757Y-49227000D01*
X203772283Y-51273000D01*
X203772283Y-51273000D01*
G37*
X203772283Y-51273000D02*
X186127000Y-51273000D01*
X186127000Y-49227000D01*
X203760757Y-49227000D01*
X203772283Y-51273000D01*
G36*
X203772283Y-53873000D02*
X186127000Y-53873000D01*
X186127000Y-51827000D01*
X203760757Y-51827000D01*
X203772283Y-53873000D01*
X203772283Y-53873000D01*
G37*
X203772283Y-53873000D02*
X186127000Y-53873000D01*
X186127000Y-51827000D01*
X203760757Y-51827000D01*
X203772283Y-53873000D01*
G36*
X260873000Y-43273000D02*
X243127000Y-43273000D01*
X243127000Y-39427000D01*
X260873000Y-39427000D01*
X260873000Y-43273000D01*
X260873000Y-43273000D01*
G37*
X260873000Y-43273000D02*
X243127000Y-43273000D01*
X243127000Y-39427000D01*
X260873000Y-39427000D01*
X260873000Y-43273000D01*
G36*
X242140741Y-58573000D02*
X229894741Y-58573000D01*
X229894741Y-55327000D01*
X242140741Y-55327000D01*
X242140741Y-58573000D01*
X242140741Y-58573000D01*
G37*
X242140741Y-58573000D02*
X229894741Y-58573000D01*
X229894741Y-55327000D01*
X242140741Y-55327000D01*
X242140741Y-58573000D01*
G36*
X219173000Y-58573000D02*
X206927000Y-58573000D01*
X206927000Y-55327000D01*
X219173000Y-55327000D01*
X219173000Y-58573000D01*
X219173000Y-58573000D01*
G37*
X219173000Y-58573000D02*
X206927000Y-58573000D01*
X206927000Y-55327000D01*
X219173000Y-55327000D01*
X219173000Y-58573000D01*
M02*
