G04 #@! TF.FileFunction,Copper,L1,Top,Signal*
%FSLAX46Y46*%
G04 Gerber Fmt 4.6, Leading zero omitted, Abs format (unit mm)*
G04 Created by KiCad (PCBNEW 4.0.7) date 09/10/18 23:50:29*
%MOMM*%
%LPD*%
G01*
G04 APERTURE LIST*
%ADD10C,0.100000*%
%ADD11C,3.800000*%
%ADD12C,0.254000*%
G04 APERTURE END LIST*
D10*
D11*
X243500000Y-111500000D03*
X202500000Y-39000000D03*
X96500000Y-54000000D03*
X39500000Y-40500000D03*
X205500000Y-92500000D03*
X91500000Y-92500000D03*
X53500000Y-111500000D03*
X91500000Y-130500000D03*
X205500000Y-130500000D03*
X253000000Y-49500000D03*
D12*
G36*
X268574697Y-30626793D02*
X270271286Y-156573578D01*
X26228204Y-157672421D01*
X27352768Y-38000000D01*
X33790000Y-38000000D01*
X33790000Y-147000000D01*
X33803642Y-147068584D01*
X33803642Y-147138514D01*
X33993943Y-148095223D01*
X34068907Y-148276200D01*
X34099958Y-148351164D01*
X34641889Y-149162222D01*
X34837778Y-149358110D01*
X35648836Y-149900042D01*
X35754851Y-149943955D01*
X35904777Y-150006057D01*
X36861486Y-150196358D01*
X36931416Y-150196358D01*
X37000000Y-150210000D01*
X260000000Y-150210000D01*
X260068584Y-150196358D01*
X260138514Y-150196358D01*
X261095223Y-150006057D01*
X261276200Y-149931093D01*
X261351164Y-149900042D01*
X262162222Y-149358111D01*
X262358110Y-149162222D01*
X262900042Y-148351164D01*
X262972008Y-148177424D01*
X263006057Y-148095223D01*
X263196358Y-147138514D01*
X263196358Y-147068584D01*
X263210000Y-147000000D01*
X263210000Y-38000000D01*
X263196358Y-37931416D01*
X263196358Y-37861486D01*
X263006057Y-36904777D01*
X262900042Y-36648837D01*
X262900042Y-36648836D01*
X262358110Y-35837778D01*
X262292037Y-35771705D01*
X262162222Y-35641889D01*
X261351164Y-35099958D01*
X261276200Y-35068907D01*
X261095223Y-34993943D01*
X260138514Y-34803642D01*
X260068584Y-34803642D01*
X260000000Y-34790000D01*
X37000000Y-34790000D01*
X36931416Y-34803642D01*
X35904777Y-34993943D01*
X35754851Y-35056045D01*
X35648836Y-35099958D01*
X34837778Y-35641890D01*
X34641889Y-35837778D01*
X34099958Y-36648836D01*
X34099958Y-36648837D01*
X33993943Y-36904777D01*
X33803642Y-37861486D01*
X33803642Y-37931416D01*
X33790000Y-38000000D01*
X27352768Y-38000000D01*
X27425810Y-30227209D01*
X268574697Y-30626793D01*
X268574697Y-30626793D01*
G37*
X268574697Y-30626793D02*
X270271286Y-156573578D01*
X26228204Y-157672421D01*
X27352768Y-38000000D01*
X33790000Y-38000000D01*
X33790000Y-147000000D01*
X33803642Y-147068584D01*
X33803642Y-147138514D01*
X33993943Y-148095223D01*
X34068907Y-148276200D01*
X34099958Y-148351164D01*
X34641889Y-149162222D01*
X34837778Y-149358110D01*
X35648836Y-149900042D01*
X35754851Y-149943955D01*
X35904777Y-150006057D01*
X36861486Y-150196358D01*
X36931416Y-150196358D01*
X37000000Y-150210000D01*
X260000000Y-150210000D01*
X260068584Y-150196358D01*
X260138514Y-150196358D01*
X261095223Y-150006057D01*
X261276200Y-149931093D01*
X261351164Y-149900042D01*
X262162222Y-149358111D01*
X262358110Y-149162222D01*
X262900042Y-148351164D01*
X262972008Y-148177424D01*
X263006057Y-148095223D01*
X263196358Y-147138514D01*
X263196358Y-147068584D01*
X263210000Y-147000000D01*
X263210000Y-38000000D01*
X263196358Y-37931416D01*
X263196358Y-37861486D01*
X263006057Y-36904777D01*
X262900042Y-36648837D01*
X262900042Y-36648836D01*
X262358110Y-35837778D01*
X262292037Y-35771705D01*
X262162222Y-35641889D01*
X261351164Y-35099958D01*
X261276200Y-35068907D01*
X261095223Y-34993943D01*
X260138514Y-34803642D01*
X260068584Y-34803642D01*
X260000000Y-34790000D01*
X37000000Y-34790000D01*
X36931416Y-34803642D01*
X35904777Y-34993943D01*
X35754851Y-35056045D01*
X35648836Y-35099958D01*
X34837778Y-35641890D01*
X34641889Y-35837778D01*
X34099958Y-36648836D01*
X34099958Y-36648837D01*
X33993943Y-36904777D01*
X33803642Y-37861486D01*
X33803642Y-37931416D01*
X33790000Y-38000000D01*
X27352768Y-38000000D01*
X27425810Y-30227209D01*
X268574697Y-30626793D01*
G36*
X260679682Y-36359107D02*
X261255885Y-36744114D01*
X261640893Y-37320319D01*
X261790000Y-38069931D01*
X261790000Y-146930069D01*
X261640893Y-147679681D01*
X261255885Y-148255886D01*
X260679682Y-148640893D01*
X259930069Y-148790000D01*
X37069931Y-148790000D01*
X36320319Y-148640893D01*
X35744114Y-148255885D01*
X35359107Y-147679682D01*
X35210000Y-146930069D01*
X35210000Y-130020843D01*
X88960138Y-130020843D01*
X88964989Y-130511510D01*
X88964561Y-131002031D01*
X88969968Y-131015117D01*
X88970108Y-131029279D01*
X89336839Y-131914647D01*
X89343157Y-131918304D01*
X89349678Y-131934086D01*
X90062163Y-132647816D01*
X90080998Y-132655637D01*
X90085353Y-132663161D01*
X90540500Y-132846438D01*
X90993545Y-133034559D01*
X91007704Y-133034571D01*
X91020843Y-133039862D01*
X91511510Y-133035011D01*
X92002031Y-133035439D01*
X92015117Y-133030032D01*
X92029279Y-133029892D01*
X92914647Y-132663161D01*
X92918304Y-132656843D01*
X92934086Y-132650322D01*
X93647816Y-131937837D01*
X93655637Y-131919002D01*
X93663161Y-131914647D01*
X93846438Y-131459500D01*
X94034559Y-131006455D01*
X94034571Y-130992296D01*
X94039862Y-130979157D01*
X94035011Y-130488490D01*
X94035419Y-130020843D01*
X202960138Y-130020843D01*
X202964989Y-130511510D01*
X202964561Y-131002031D01*
X202969968Y-131015117D01*
X202970108Y-131029279D01*
X203336839Y-131914647D01*
X203343157Y-131918304D01*
X203349678Y-131934086D01*
X204062163Y-132647816D01*
X204080998Y-132655637D01*
X204085353Y-132663161D01*
X204540500Y-132846438D01*
X204993545Y-133034559D01*
X205007704Y-133034571D01*
X205020843Y-133039862D01*
X205511510Y-133035011D01*
X206002031Y-133035439D01*
X206015117Y-133030032D01*
X206029279Y-133029892D01*
X206914647Y-132663161D01*
X206918304Y-132656843D01*
X206934086Y-132650322D01*
X207647816Y-131937837D01*
X207655637Y-131919002D01*
X207663161Y-131914647D01*
X207846438Y-131459500D01*
X208034559Y-131006455D01*
X208034571Y-130992296D01*
X208039862Y-130979157D01*
X208035011Y-130488490D01*
X208035439Y-129997969D01*
X208030032Y-129984883D01*
X208029892Y-129970721D01*
X207663161Y-129085353D01*
X207656843Y-129081696D01*
X207650322Y-129065914D01*
X206937837Y-128352184D01*
X206919002Y-128344363D01*
X206914647Y-128336839D01*
X206459500Y-128153562D01*
X206006455Y-127965441D01*
X205992296Y-127965429D01*
X205979157Y-127960138D01*
X205488490Y-127964989D01*
X204997969Y-127964561D01*
X204984883Y-127969968D01*
X204970721Y-127970108D01*
X204085353Y-128336839D01*
X204081696Y-128343157D01*
X204065914Y-128349678D01*
X203352184Y-129062163D01*
X203344363Y-129080998D01*
X203336839Y-129085353D01*
X203153562Y-129540500D01*
X202965441Y-129993545D01*
X202965429Y-130007704D01*
X202960138Y-130020843D01*
X94035419Y-130020843D01*
X94035439Y-129997969D01*
X94030032Y-129984883D01*
X94029892Y-129970721D01*
X93663161Y-129085353D01*
X93656843Y-129081696D01*
X93650322Y-129065914D01*
X92937837Y-128352184D01*
X92919002Y-128344363D01*
X92914647Y-128336839D01*
X92459500Y-128153562D01*
X92006455Y-127965441D01*
X91992296Y-127965429D01*
X91979157Y-127960138D01*
X91488490Y-127964989D01*
X90997969Y-127964561D01*
X90984883Y-127969968D01*
X90970721Y-127970108D01*
X90085353Y-128336839D01*
X90081696Y-128343157D01*
X90065914Y-128349678D01*
X89352184Y-129062163D01*
X89344363Y-129080998D01*
X89336839Y-129085353D01*
X89153562Y-129540500D01*
X88965441Y-129993545D01*
X88965429Y-130007704D01*
X88960138Y-130020843D01*
X35210000Y-130020843D01*
X35210000Y-111020843D01*
X50960138Y-111020843D01*
X50964989Y-111511510D01*
X50964561Y-112002031D01*
X50969968Y-112015117D01*
X50970108Y-112029279D01*
X51336839Y-112914647D01*
X51343157Y-112918304D01*
X51349678Y-112934086D01*
X52062163Y-113647816D01*
X52080998Y-113655637D01*
X52085353Y-113663161D01*
X52540500Y-113846438D01*
X52993545Y-114034559D01*
X53007704Y-114034571D01*
X53020843Y-114039862D01*
X53511510Y-114035011D01*
X54002031Y-114035439D01*
X54015117Y-114030032D01*
X54029279Y-114029892D01*
X54914647Y-113663161D01*
X54918304Y-113656843D01*
X54934086Y-113650322D01*
X55647816Y-112937837D01*
X55655637Y-112919002D01*
X55663161Y-112914647D01*
X55846438Y-112459500D01*
X56034559Y-112006455D01*
X56034571Y-111992296D01*
X56039862Y-111979157D01*
X56035011Y-111488490D01*
X56035419Y-111020843D01*
X240960138Y-111020843D01*
X240964989Y-111511510D01*
X240964561Y-112002031D01*
X240969968Y-112015117D01*
X240970108Y-112029279D01*
X241336839Y-112914647D01*
X241343157Y-112918304D01*
X241349678Y-112934086D01*
X242062163Y-113647816D01*
X242080998Y-113655637D01*
X242085353Y-113663161D01*
X242540500Y-113846438D01*
X242993545Y-114034559D01*
X243007704Y-114034571D01*
X243020843Y-114039862D01*
X243511510Y-114035011D01*
X244002031Y-114035439D01*
X244015117Y-114030032D01*
X244029279Y-114029892D01*
X244914647Y-113663161D01*
X244918304Y-113656843D01*
X244934086Y-113650322D01*
X245647816Y-112937837D01*
X245655637Y-112919002D01*
X245663161Y-112914647D01*
X245846438Y-112459500D01*
X246034559Y-112006455D01*
X246034571Y-111992296D01*
X246039862Y-111979157D01*
X246035011Y-111488490D01*
X246035439Y-110997969D01*
X246030032Y-110984883D01*
X246029892Y-110970721D01*
X245663161Y-110085353D01*
X245656843Y-110081696D01*
X245650322Y-110065914D01*
X244937837Y-109352184D01*
X244919002Y-109344363D01*
X244914647Y-109336839D01*
X244459500Y-109153562D01*
X244006455Y-108965441D01*
X243992296Y-108965429D01*
X243979157Y-108960138D01*
X243488490Y-108964989D01*
X242997969Y-108964561D01*
X242984883Y-108969968D01*
X242970721Y-108970108D01*
X242085353Y-109336839D01*
X242081696Y-109343157D01*
X242065914Y-109349678D01*
X241352184Y-110062163D01*
X241344363Y-110080998D01*
X241336839Y-110085353D01*
X241153562Y-110540500D01*
X240965441Y-110993545D01*
X240965429Y-111007704D01*
X240960138Y-111020843D01*
X56035419Y-111020843D01*
X56035439Y-110997969D01*
X56030032Y-110984883D01*
X56029892Y-110970721D01*
X55663161Y-110085353D01*
X55656843Y-110081696D01*
X55650322Y-110065914D01*
X54937837Y-109352184D01*
X54919002Y-109344363D01*
X54914647Y-109336839D01*
X54459500Y-109153562D01*
X54006455Y-108965441D01*
X53992296Y-108965429D01*
X53979157Y-108960138D01*
X53488490Y-108964989D01*
X52997969Y-108964561D01*
X52984883Y-108969968D01*
X52970721Y-108970108D01*
X52085353Y-109336839D01*
X52081696Y-109343157D01*
X52065914Y-109349678D01*
X51352184Y-110062163D01*
X51344363Y-110080998D01*
X51336839Y-110085353D01*
X51153562Y-110540500D01*
X50965441Y-110993545D01*
X50965429Y-111007704D01*
X50960138Y-111020843D01*
X35210000Y-111020843D01*
X35210000Y-92020843D01*
X88960138Y-92020843D01*
X88964989Y-92511510D01*
X88964561Y-93002031D01*
X88969968Y-93015117D01*
X88970108Y-93029279D01*
X89336839Y-93914647D01*
X89343157Y-93918304D01*
X89349678Y-93934086D01*
X90062163Y-94647816D01*
X90080998Y-94655637D01*
X90085353Y-94663161D01*
X90540500Y-94846438D01*
X90993545Y-95034559D01*
X91007704Y-95034571D01*
X91020843Y-95039862D01*
X91511510Y-95035011D01*
X92002031Y-95035439D01*
X92015117Y-95030032D01*
X92029279Y-95029892D01*
X92914647Y-94663161D01*
X92918304Y-94656843D01*
X92934086Y-94650322D01*
X93647816Y-93937837D01*
X93655637Y-93919002D01*
X93663161Y-93914647D01*
X93846438Y-93459500D01*
X94034559Y-93006455D01*
X94034571Y-92992296D01*
X94039862Y-92979157D01*
X94035011Y-92488490D01*
X94035419Y-92020843D01*
X202960138Y-92020843D01*
X202964989Y-92511510D01*
X202964561Y-93002031D01*
X202969968Y-93015117D01*
X202970108Y-93029279D01*
X203336839Y-93914647D01*
X203343157Y-93918304D01*
X203349678Y-93934086D01*
X204062163Y-94647816D01*
X204080998Y-94655637D01*
X204085353Y-94663161D01*
X204540500Y-94846438D01*
X204993545Y-95034559D01*
X205007704Y-95034571D01*
X205020843Y-95039862D01*
X205511510Y-95035011D01*
X206002031Y-95035439D01*
X206015117Y-95030032D01*
X206029279Y-95029892D01*
X206914647Y-94663161D01*
X206918304Y-94656843D01*
X206934086Y-94650322D01*
X207647816Y-93937837D01*
X207655637Y-93919002D01*
X207663161Y-93914647D01*
X207846438Y-93459500D01*
X208034559Y-93006455D01*
X208034571Y-92992296D01*
X208039862Y-92979157D01*
X208035011Y-92488490D01*
X208035439Y-91997969D01*
X208030032Y-91984883D01*
X208029892Y-91970721D01*
X207663161Y-91085353D01*
X207656843Y-91081696D01*
X207650322Y-91065914D01*
X206937837Y-90352184D01*
X206919002Y-90344363D01*
X206914647Y-90336839D01*
X206459500Y-90153562D01*
X206006455Y-89965441D01*
X205992296Y-89965429D01*
X205979157Y-89960138D01*
X205488490Y-89964989D01*
X204997969Y-89964561D01*
X204984883Y-89969968D01*
X204970721Y-89970108D01*
X204085353Y-90336839D01*
X204081696Y-90343157D01*
X204065914Y-90349678D01*
X203352184Y-91062163D01*
X203344363Y-91080998D01*
X203336839Y-91085353D01*
X203153562Y-91540500D01*
X202965441Y-91993545D01*
X202965429Y-92007704D01*
X202960138Y-92020843D01*
X94035419Y-92020843D01*
X94035439Y-91997969D01*
X94030032Y-91984883D01*
X94029892Y-91970721D01*
X93663161Y-91085353D01*
X93656843Y-91081696D01*
X93650322Y-91065914D01*
X92937837Y-90352184D01*
X92919002Y-90344363D01*
X92914647Y-90336839D01*
X92459500Y-90153562D01*
X92006455Y-89965441D01*
X91992296Y-89965429D01*
X91979157Y-89960138D01*
X91488490Y-89964989D01*
X90997969Y-89964561D01*
X90984883Y-89969968D01*
X90970721Y-89970108D01*
X90085353Y-90336839D01*
X90081696Y-90343157D01*
X90065914Y-90349678D01*
X89352184Y-91062163D01*
X89344363Y-91080998D01*
X89336839Y-91085353D01*
X89153562Y-91540500D01*
X88965441Y-91993545D01*
X88965429Y-92007704D01*
X88960138Y-92020843D01*
X35210000Y-92020843D01*
X35210000Y-53520843D01*
X93960138Y-53520843D01*
X93964989Y-54011510D01*
X93964561Y-54502031D01*
X93969968Y-54515117D01*
X93970108Y-54529279D01*
X94336839Y-55414647D01*
X94343157Y-55418304D01*
X94349678Y-55434086D01*
X95062163Y-56147816D01*
X95080998Y-56155637D01*
X95085353Y-56163161D01*
X95540500Y-56346438D01*
X95993545Y-56534559D01*
X96007704Y-56534571D01*
X96020843Y-56539862D01*
X96511510Y-56535011D01*
X97002031Y-56535439D01*
X97015117Y-56530032D01*
X97029279Y-56529892D01*
X97914647Y-56163161D01*
X97918304Y-56156843D01*
X97934086Y-56150322D01*
X98647816Y-55437837D01*
X98655637Y-55419002D01*
X98663161Y-55414647D01*
X98846438Y-54959500D01*
X99034559Y-54506455D01*
X99034571Y-54492296D01*
X99039862Y-54479157D01*
X99035011Y-53988490D01*
X99035439Y-53497969D01*
X99030032Y-53484883D01*
X99029892Y-53470721D01*
X98663161Y-52585353D01*
X98656843Y-52581696D01*
X98650322Y-52565914D01*
X97937837Y-51852184D01*
X97919002Y-51844363D01*
X97914647Y-51836839D01*
X97459500Y-51653562D01*
X97006455Y-51465441D01*
X96992296Y-51465429D01*
X96979157Y-51460138D01*
X96488490Y-51464989D01*
X95997969Y-51464561D01*
X95984883Y-51469968D01*
X95970721Y-51470108D01*
X95085353Y-51836839D01*
X95081696Y-51843157D01*
X95065914Y-51849678D01*
X94352184Y-52562163D01*
X94344363Y-52580998D01*
X94336839Y-52585353D01*
X94153562Y-53040500D01*
X93965441Y-53493545D01*
X93965429Y-53507704D01*
X93960138Y-53520843D01*
X35210000Y-53520843D01*
X35210000Y-49020843D01*
X250460138Y-49020843D01*
X250464989Y-49511510D01*
X250464561Y-50002031D01*
X250469968Y-50015117D01*
X250470108Y-50029279D01*
X250836839Y-50914647D01*
X250843157Y-50918304D01*
X250849678Y-50934086D01*
X251562163Y-51647816D01*
X251580998Y-51655637D01*
X251585353Y-51663161D01*
X252040500Y-51846438D01*
X252493545Y-52034559D01*
X252507704Y-52034571D01*
X252520843Y-52039862D01*
X253011510Y-52035011D01*
X253502031Y-52035439D01*
X253515117Y-52030032D01*
X253529279Y-52029892D01*
X254414647Y-51663161D01*
X254418304Y-51656843D01*
X254434086Y-51650322D01*
X255147816Y-50937837D01*
X255155637Y-50919002D01*
X255163161Y-50914647D01*
X255346438Y-50459500D01*
X255534559Y-50006455D01*
X255534571Y-49992296D01*
X255539862Y-49979157D01*
X255535011Y-49488490D01*
X255535439Y-48997969D01*
X255530032Y-48984883D01*
X255529892Y-48970721D01*
X255163161Y-48085353D01*
X255156843Y-48081696D01*
X255150322Y-48065914D01*
X254437837Y-47352184D01*
X254419002Y-47344363D01*
X254414647Y-47336839D01*
X253959500Y-47153562D01*
X253506455Y-46965441D01*
X253492296Y-46965429D01*
X253479157Y-46960138D01*
X252988490Y-46964989D01*
X252497969Y-46964561D01*
X252484883Y-46969968D01*
X252470721Y-46970108D01*
X251585353Y-47336839D01*
X251581696Y-47343157D01*
X251565914Y-47349678D01*
X250852184Y-48062163D01*
X250844363Y-48080998D01*
X250836839Y-48085353D01*
X250653562Y-48540500D01*
X250465441Y-48993545D01*
X250465429Y-49007704D01*
X250460138Y-49020843D01*
X35210000Y-49020843D01*
X35210000Y-40020843D01*
X36960138Y-40020843D01*
X36964989Y-40511510D01*
X36964561Y-41002031D01*
X36969968Y-41015117D01*
X36970108Y-41029279D01*
X37336839Y-41914647D01*
X37343157Y-41918304D01*
X37349678Y-41934086D01*
X38062163Y-42647816D01*
X38080998Y-42655637D01*
X38085353Y-42663161D01*
X38540500Y-42846438D01*
X38993545Y-43034559D01*
X39007704Y-43034571D01*
X39020843Y-43039862D01*
X39511510Y-43035011D01*
X40002031Y-43035439D01*
X40015117Y-43030032D01*
X40029279Y-43029892D01*
X40914647Y-42663161D01*
X40918304Y-42656843D01*
X40934086Y-42650322D01*
X41647816Y-41937837D01*
X41655637Y-41919002D01*
X41663161Y-41914647D01*
X41846438Y-41459500D01*
X42034559Y-41006455D01*
X42034571Y-40992296D01*
X42039862Y-40979157D01*
X42035011Y-40488490D01*
X42035439Y-39997969D01*
X42030032Y-39984883D01*
X42029892Y-39970721D01*
X41663161Y-39085353D01*
X41656843Y-39081696D01*
X41650322Y-39065914D01*
X41106202Y-38520843D01*
X199960138Y-38520843D01*
X199964989Y-39011510D01*
X199964561Y-39502031D01*
X199969968Y-39515117D01*
X199970108Y-39529279D01*
X200336839Y-40414647D01*
X200343157Y-40418304D01*
X200349678Y-40434086D01*
X201062163Y-41147816D01*
X201080998Y-41155637D01*
X201085353Y-41163161D01*
X201540500Y-41346438D01*
X201993545Y-41534559D01*
X202007704Y-41534571D01*
X202020843Y-41539862D01*
X202511510Y-41535011D01*
X203002031Y-41535439D01*
X203015117Y-41530032D01*
X203029279Y-41529892D01*
X203914647Y-41163161D01*
X203918304Y-41156843D01*
X203934086Y-41150322D01*
X204647816Y-40437837D01*
X204655637Y-40419002D01*
X204663161Y-40414647D01*
X204846438Y-39959500D01*
X205034559Y-39506455D01*
X205034571Y-39492296D01*
X205039862Y-39479157D01*
X205035011Y-38988490D01*
X205035439Y-38497969D01*
X205030032Y-38484883D01*
X205029892Y-38470721D01*
X204663161Y-37585353D01*
X204656843Y-37581696D01*
X204650322Y-37565914D01*
X203937837Y-36852184D01*
X203919002Y-36844363D01*
X203914647Y-36836839D01*
X203459500Y-36653562D01*
X203006455Y-36465441D01*
X202992296Y-36465429D01*
X202979157Y-36460138D01*
X202488490Y-36464989D01*
X201997969Y-36464561D01*
X201984883Y-36469968D01*
X201970721Y-36470108D01*
X201085353Y-36836839D01*
X201081696Y-36843157D01*
X201065914Y-36849678D01*
X200352184Y-37562163D01*
X200344363Y-37580998D01*
X200336839Y-37585353D01*
X200153562Y-38040500D01*
X199965441Y-38493545D01*
X199965429Y-38507704D01*
X199960138Y-38520843D01*
X41106202Y-38520843D01*
X40937837Y-38352184D01*
X40919002Y-38344363D01*
X40914647Y-38336839D01*
X40459500Y-38153562D01*
X40006455Y-37965441D01*
X39992296Y-37965429D01*
X39979157Y-37960138D01*
X39488490Y-37964989D01*
X38997969Y-37964561D01*
X38984883Y-37969968D01*
X38970721Y-37970108D01*
X38085353Y-38336839D01*
X38081696Y-38343157D01*
X38065914Y-38349678D01*
X37352184Y-39062163D01*
X37344363Y-39080998D01*
X37336839Y-39085353D01*
X37153562Y-39540500D01*
X36965441Y-39993545D01*
X36965429Y-40007704D01*
X36960138Y-40020843D01*
X35210000Y-40020843D01*
X35210000Y-38069931D01*
X35359107Y-37320318D01*
X35744114Y-36744115D01*
X36320319Y-36359107D01*
X37069931Y-36210000D01*
X259930069Y-36210000D01*
X260679682Y-36359107D01*
X260679682Y-36359107D01*
G37*
X260679682Y-36359107D02*
X261255885Y-36744114D01*
X261640893Y-37320319D01*
X261790000Y-38069931D01*
X261790000Y-146930069D01*
X261640893Y-147679681D01*
X261255885Y-148255886D01*
X260679682Y-148640893D01*
X259930069Y-148790000D01*
X37069931Y-148790000D01*
X36320319Y-148640893D01*
X35744114Y-148255885D01*
X35359107Y-147679682D01*
X35210000Y-146930069D01*
X35210000Y-130020843D01*
X88960138Y-130020843D01*
X88964989Y-130511510D01*
X88964561Y-131002031D01*
X88969968Y-131015117D01*
X88970108Y-131029279D01*
X89336839Y-131914647D01*
X89343157Y-131918304D01*
X89349678Y-131934086D01*
X90062163Y-132647816D01*
X90080998Y-132655637D01*
X90085353Y-132663161D01*
X90540500Y-132846438D01*
X90993545Y-133034559D01*
X91007704Y-133034571D01*
X91020843Y-133039862D01*
X91511510Y-133035011D01*
X92002031Y-133035439D01*
X92015117Y-133030032D01*
X92029279Y-133029892D01*
X92914647Y-132663161D01*
X92918304Y-132656843D01*
X92934086Y-132650322D01*
X93647816Y-131937837D01*
X93655637Y-131919002D01*
X93663161Y-131914647D01*
X93846438Y-131459500D01*
X94034559Y-131006455D01*
X94034571Y-130992296D01*
X94039862Y-130979157D01*
X94035011Y-130488490D01*
X94035419Y-130020843D01*
X202960138Y-130020843D01*
X202964989Y-130511510D01*
X202964561Y-131002031D01*
X202969968Y-131015117D01*
X202970108Y-131029279D01*
X203336839Y-131914647D01*
X203343157Y-131918304D01*
X203349678Y-131934086D01*
X204062163Y-132647816D01*
X204080998Y-132655637D01*
X204085353Y-132663161D01*
X204540500Y-132846438D01*
X204993545Y-133034559D01*
X205007704Y-133034571D01*
X205020843Y-133039862D01*
X205511510Y-133035011D01*
X206002031Y-133035439D01*
X206015117Y-133030032D01*
X206029279Y-133029892D01*
X206914647Y-132663161D01*
X206918304Y-132656843D01*
X206934086Y-132650322D01*
X207647816Y-131937837D01*
X207655637Y-131919002D01*
X207663161Y-131914647D01*
X207846438Y-131459500D01*
X208034559Y-131006455D01*
X208034571Y-130992296D01*
X208039862Y-130979157D01*
X208035011Y-130488490D01*
X208035439Y-129997969D01*
X208030032Y-129984883D01*
X208029892Y-129970721D01*
X207663161Y-129085353D01*
X207656843Y-129081696D01*
X207650322Y-129065914D01*
X206937837Y-128352184D01*
X206919002Y-128344363D01*
X206914647Y-128336839D01*
X206459500Y-128153562D01*
X206006455Y-127965441D01*
X205992296Y-127965429D01*
X205979157Y-127960138D01*
X205488490Y-127964989D01*
X204997969Y-127964561D01*
X204984883Y-127969968D01*
X204970721Y-127970108D01*
X204085353Y-128336839D01*
X204081696Y-128343157D01*
X204065914Y-128349678D01*
X203352184Y-129062163D01*
X203344363Y-129080998D01*
X203336839Y-129085353D01*
X203153562Y-129540500D01*
X202965441Y-129993545D01*
X202965429Y-130007704D01*
X202960138Y-130020843D01*
X94035419Y-130020843D01*
X94035439Y-129997969D01*
X94030032Y-129984883D01*
X94029892Y-129970721D01*
X93663161Y-129085353D01*
X93656843Y-129081696D01*
X93650322Y-129065914D01*
X92937837Y-128352184D01*
X92919002Y-128344363D01*
X92914647Y-128336839D01*
X92459500Y-128153562D01*
X92006455Y-127965441D01*
X91992296Y-127965429D01*
X91979157Y-127960138D01*
X91488490Y-127964989D01*
X90997969Y-127964561D01*
X90984883Y-127969968D01*
X90970721Y-127970108D01*
X90085353Y-128336839D01*
X90081696Y-128343157D01*
X90065914Y-128349678D01*
X89352184Y-129062163D01*
X89344363Y-129080998D01*
X89336839Y-129085353D01*
X89153562Y-129540500D01*
X88965441Y-129993545D01*
X88965429Y-130007704D01*
X88960138Y-130020843D01*
X35210000Y-130020843D01*
X35210000Y-111020843D01*
X50960138Y-111020843D01*
X50964989Y-111511510D01*
X50964561Y-112002031D01*
X50969968Y-112015117D01*
X50970108Y-112029279D01*
X51336839Y-112914647D01*
X51343157Y-112918304D01*
X51349678Y-112934086D01*
X52062163Y-113647816D01*
X52080998Y-113655637D01*
X52085353Y-113663161D01*
X52540500Y-113846438D01*
X52993545Y-114034559D01*
X53007704Y-114034571D01*
X53020843Y-114039862D01*
X53511510Y-114035011D01*
X54002031Y-114035439D01*
X54015117Y-114030032D01*
X54029279Y-114029892D01*
X54914647Y-113663161D01*
X54918304Y-113656843D01*
X54934086Y-113650322D01*
X55647816Y-112937837D01*
X55655637Y-112919002D01*
X55663161Y-112914647D01*
X55846438Y-112459500D01*
X56034559Y-112006455D01*
X56034571Y-111992296D01*
X56039862Y-111979157D01*
X56035011Y-111488490D01*
X56035419Y-111020843D01*
X240960138Y-111020843D01*
X240964989Y-111511510D01*
X240964561Y-112002031D01*
X240969968Y-112015117D01*
X240970108Y-112029279D01*
X241336839Y-112914647D01*
X241343157Y-112918304D01*
X241349678Y-112934086D01*
X242062163Y-113647816D01*
X242080998Y-113655637D01*
X242085353Y-113663161D01*
X242540500Y-113846438D01*
X242993545Y-114034559D01*
X243007704Y-114034571D01*
X243020843Y-114039862D01*
X243511510Y-114035011D01*
X244002031Y-114035439D01*
X244015117Y-114030032D01*
X244029279Y-114029892D01*
X244914647Y-113663161D01*
X244918304Y-113656843D01*
X244934086Y-113650322D01*
X245647816Y-112937837D01*
X245655637Y-112919002D01*
X245663161Y-112914647D01*
X245846438Y-112459500D01*
X246034559Y-112006455D01*
X246034571Y-111992296D01*
X246039862Y-111979157D01*
X246035011Y-111488490D01*
X246035439Y-110997969D01*
X246030032Y-110984883D01*
X246029892Y-110970721D01*
X245663161Y-110085353D01*
X245656843Y-110081696D01*
X245650322Y-110065914D01*
X244937837Y-109352184D01*
X244919002Y-109344363D01*
X244914647Y-109336839D01*
X244459500Y-109153562D01*
X244006455Y-108965441D01*
X243992296Y-108965429D01*
X243979157Y-108960138D01*
X243488490Y-108964989D01*
X242997969Y-108964561D01*
X242984883Y-108969968D01*
X242970721Y-108970108D01*
X242085353Y-109336839D01*
X242081696Y-109343157D01*
X242065914Y-109349678D01*
X241352184Y-110062163D01*
X241344363Y-110080998D01*
X241336839Y-110085353D01*
X241153562Y-110540500D01*
X240965441Y-110993545D01*
X240965429Y-111007704D01*
X240960138Y-111020843D01*
X56035419Y-111020843D01*
X56035439Y-110997969D01*
X56030032Y-110984883D01*
X56029892Y-110970721D01*
X55663161Y-110085353D01*
X55656843Y-110081696D01*
X55650322Y-110065914D01*
X54937837Y-109352184D01*
X54919002Y-109344363D01*
X54914647Y-109336839D01*
X54459500Y-109153562D01*
X54006455Y-108965441D01*
X53992296Y-108965429D01*
X53979157Y-108960138D01*
X53488490Y-108964989D01*
X52997969Y-108964561D01*
X52984883Y-108969968D01*
X52970721Y-108970108D01*
X52085353Y-109336839D01*
X52081696Y-109343157D01*
X52065914Y-109349678D01*
X51352184Y-110062163D01*
X51344363Y-110080998D01*
X51336839Y-110085353D01*
X51153562Y-110540500D01*
X50965441Y-110993545D01*
X50965429Y-111007704D01*
X50960138Y-111020843D01*
X35210000Y-111020843D01*
X35210000Y-92020843D01*
X88960138Y-92020843D01*
X88964989Y-92511510D01*
X88964561Y-93002031D01*
X88969968Y-93015117D01*
X88970108Y-93029279D01*
X89336839Y-93914647D01*
X89343157Y-93918304D01*
X89349678Y-93934086D01*
X90062163Y-94647816D01*
X90080998Y-94655637D01*
X90085353Y-94663161D01*
X90540500Y-94846438D01*
X90993545Y-95034559D01*
X91007704Y-95034571D01*
X91020843Y-95039862D01*
X91511510Y-95035011D01*
X92002031Y-95035439D01*
X92015117Y-95030032D01*
X92029279Y-95029892D01*
X92914647Y-94663161D01*
X92918304Y-94656843D01*
X92934086Y-94650322D01*
X93647816Y-93937837D01*
X93655637Y-93919002D01*
X93663161Y-93914647D01*
X93846438Y-93459500D01*
X94034559Y-93006455D01*
X94034571Y-92992296D01*
X94039862Y-92979157D01*
X94035011Y-92488490D01*
X94035419Y-92020843D01*
X202960138Y-92020843D01*
X202964989Y-92511510D01*
X202964561Y-93002031D01*
X202969968Y-93015117D01*
X202970108Y-93029279D01*
X203336839Y-93914647D01*
X203343157Y-93918304D01*
X203349678Y-93934086D01*
X204062163Y-94647816D01*
X204080998Y-94655637D01*
X204085353Y-94663161D01*
X204540500Y-94846438D01*
X204993545Y-95034559D01*
X205007704Y-95034571D01*
X205020843Y-95039862D01*
X205511510Y-95035011D01*
X206002031Y-95035439D01*
X206015117Y-95030032D01*
X206029279Y-95029892D01*
X206914647Y-94663161D01*
X206918304Y-94656843D01*
X206934086Y-94650322D01*
X207647816Y-93937837D01*
X207655637Y-93919002D01*
X207663161Y-93914647D01*
X207846438Y-93459500D01*
X208034559Y-93006455D01*
X208034571Y-92992296D01*
X208039862Y-92979157D01*
X208035011Y-92488490D01*
X208035439Y-91997969D01*
X208030032Y-91984883D01*
X208029892Y-91970721D01*
X207663161Y-91085353D01*
X207656843Y-91081696D01*
X207650322Y-91065914D01*
X206937837Y-90352184D01*
X206919002Y-90344363D01*
X206914647Y-90336839D01*
X206459500Y-90153562D01*
X206006455Y-89965441D01*
X205992296Y-89965429D01*
X205979157Y-89960138D01*
X205488490Y-89964989D01*
X204997969Y-89964561D01*
X204984883Y-89969968D01*
X204970721Y-89970108D01*
X204085353Y-90336839D01*
X204081696Y-90343157D01*
X204065914Y-90349678D01*
X203352184Y-91062163D01*
X203344363Y-91080998D01*
X203336839Y-91085353D01*
X203153562Y-91540500D01*
X202965441Y-91993545D01*
X202965429Y-92007704D01*
X202960138Y-92020843D01*
X94035419Y-92020843D01*
X94035439Y-91997969D01*
X94030032Y-91984883D01*
X94029892Y-91970721D01*
X93663161Y-91085353D01*
X93656843Y-91081696D01*
X93650322Y-91065914D01*
X92937837Y-90352184D01*
X92919002Y-90344363D01*
X92914647Y-90336839D01*
X92459500Y-90153562D01*
X92006455Y-89965441D01*
X91992296Y-89965429D01*
X91979157Y-89960138D01*
X91488490Y-89964989D01*
X90997969Y-89964561D01*
X90984883Y-89969968D01*
X90970721Y-89970108D01*
X90085353Y-90336839D01*
X90081696Y-90343157D01*
X90065914Y-90349678D01*
X89352184Y-91062163D01*
X89344363Y-91080998D01*
X89336839Y-91085353D01*
X89153562Y-91540500D01*
X88965441Y-91993545D01*
X88965429Y-92007704D01*
X88960138Y-92020843D01*
X35210000Y-92020843D01*
X35210000Y-53520843D01*
X93960138Y-53520843D01*
X93964989Y-54011510D01*
X93964561Y-54502031D01*
X93969968Y-54515117D01*
X93970108Y-54529279D01*
X94336839Y-55414647D01*
X94343157Y-55418304D01*
X94349678Y-55434086D01*
X95062163Y-56147816D01*
X95080998Y-56155637D01*
X95085353Y-56163161D01*
X95540500Y-56346438D01*
X95993545Y-56534559D01*
X96007704Y-56534571D01*
X96020843Y-56539862D01*
X96511510Y-56535011D01*
X97002031Y-56535439D01*
X97015117Y-56530032D01*
X97029279Y-56529892D01*
X97914647Y-56163161D01*
X97918304Y-56156843D01*
X97934086Y-56150322D01*
X98647816Y-55437837D01*
X98655637Y-55419002D01*
X98663161Y-55414647D01*
X98846438Y-54959500D01*
X99034559Y-54506455D01*
X99034571Y-54492296D01*
X99039862Y-54479157D01*
X99035011Y-53988490D01*
X99035439Y-53497969D01*
X99030032Y-53484883D01*
X99029892Y-53470721D01*
X98663161Y-52585353D01*
X98656843Y-52581696D01*
X98650322Y-52565914D01*
X97937837Y-51852184D01*
X97919002Y-51844363D01*
X97914647Y-51836839D01*
X97459500Y-51653562D01*
X97006455Y-51465441D01*
X96992296Y-51465429D01*
X96979157Y-51460138D01*
X96488490Y-51464989D01*
X95997969Y-51464561D01*
X95984883Y-51469968D01*
X95970721Y-51470108D01*
X95085353Y-51836839D01*
X95081696Y-51843157D01*
X95065914Y-51849678D01*
X94352184Y-52562163D01*
X94344363Y-52580998D01*
X94336839Y-52585353D01*
X94153562Y-53040500D01*
X93965441Y-53493545D01*
X93965429Y-53507704D01*
X93960138Y-53520843D01*
X35210000Y-53520843D01*
X35210000Y-49020843D01*
X250460138Y-49020843D01*
X250464989Y-49511510D01*
X250464561Y-50002031D01*
X250469968Y-50015117D01*
X250470108Y-50029279D01*
X250836839Y-50914647D01*
X250843157Y-50918304D01*
X250849678Y-50934086D01*
X251562163Y-51647816D01*
X251580998Y-51655637D01*
X251585353Y-51663161D01*
X252040500Y-51846438D01*
X252493545Y-52034559D01*
X252507704Y-52034571D01*
X252520843Y-52039862D01*
X253011510Y-52035011D01*
X253502031Y-52035439D01*
X253515117Y-52030032D01*
X253529279Y-52029892D01*
X254414647Y-51663161D01*
X254418304Y-51656843D01*
X254434086Y-51650322D01*
X255147816Y-50937837D01*
X255155637Y-50919002D01*
X255163161Y-50914647D01*
X255346438Y-50459500D01*
X255534559Y-50006455D01*
X255534571Y-49992296D01*
X255539862Y-49979157D01*
X255535011Y-49488490D01*
X255535439Y-48997969D01*
X255530032Y-48984883D01*
X255529892Y-48970721D01*
X255163161Y-48085353D01*
X255156843Y-48081696D01*
X255150322Y-48065914D01*
X254437837Y-47352184D01*
X254419002Y-47344363D01*
X254414647Y-47336839D01*
X253959500Y-47153562D01*
X253506455Y-46965441D01*
X253492296Y-46965429D01*
X253479157Y-46960138D01*
X252988490Y-46964989D01*
X252497969Y-46964561D01*
X252484883Y-46969968D01*
X252470721Y-46970108D01*
X251585353Y-47336839D01*
X251581696Y-47343157D01*
X251565914Y-47349678D01*
X250852184Y-48062163D01*
X250844363Y-48080998D01*
X250836839Y-48085353D01*
X250653562Y-48540500D01*
X250465441Y-48993545D01*
X250465429Y-49007704D01*
X250460138Y-49020843D01*
X35210000Y-49020843D01*
X35210000Y-40020843D01*
X36960138Y-40020843D01*
X36964989Y-40511510D01*
X36964561Y-41002031D01*
X36969968Y-41015117D01*
X36970108Y-41029279D01*
X37336839Y-41914647D01*
X37343157Y-41918304D01*
X37349678Y-41934086D01*
X38062163Y-42647816D01*
X38080998Y-42655637D01*
X38085353Y-42663161D01*
X38540500Y-42846438D01*
X38993545Y-43034559D01*
X39007704Y-43034571D01*
X39020843Y-43039862D01*
X39511510Y-43035011D01*
X40002031Y-43035439D01*
X40015117Y-43030032D01*
X40029279Y-43029892D01*
X40914647Y-42663161D01*
X40918304Y-42656843D01*
X40934086Y-42650322D01*
X41647816Y-41937837D01*
X41655637Y-41919002D01*
X41663161Y-41914647D01*
X41846438Y-41459500D01*
X42034559Y-41006455D01*
X42034571Y-40992296D01*
X42039862Y-40979157D01*
X42035011Y-40488490D01*
X42035439Y-39997969D01*
X42030032Y-39984883D01*
X42029892Y-39970721D01*
X41663161Y-39085353D01*
X41656843Y-39081696D01*
X41650322Y-39065914D01*
X41106202Y-38520843D01*
X199960138Y-38520843D01*
X199964989Y-39011510D01*
X199964561Y-39502031D01*
X199969968Y-39515117D01*
X199970108Y-39529279D01*
X200336839Y-40414647D01*
X200343157Y-40418304D01*
X200349678Y-40434086D01*
X201062163Y-41147816D01*
X201080998Y-41155637D01*
X201085353Y-41163161D01*
X201540500Y-41346438D01*
X201993545Y-41534559D01*
X202007704Y-41534571D01*
X202020843Y-41539862D01*
X202511510Y-41535011D01*
X203002031Y-41535439D01*
X203015117Y-41530032D01*
X203029279Y-41529892D01*
X203914647Y-41163161D01*
X203918304Y-41156843D01*
X203934086Y-41150322D01*
X204647816Y-40437837D01*
X204655637Y-40419002D01*
X204663161Y-40414647D01*
X204846438Y-39959500D01*
X205034559Y-39506455D01*
X205034571Y-39492296D01*
X205039862Y-39479157D01*
X205035011Y-38988490D01*
X205035439Y-38497969D01*
X205030032Y-38484883D01*
X205029892Y-38470721D01*
X204663161Y-37585353D01*
X204656843Y-37581696D01*
X204650322Y-37565914D01*
X203937837Y-36852184D01*
X203919002Y-36844363D01*
X203914647Y-36836839D01*
X203459500Y-36653562D01*
X203006455Y-36465441D01*
X202992296Y-36465429D01*
X202979157Y-36460138D01*
X202488490Y-36464989D01*
X201997969Y-36464561D01*
X201984883Y-36469968D01*
X201970721Y-36470108D01*
X201085353Y-36836839D01*
X201081696Y-36843157D01*
X201065914Y-36849678D01*
X200352184Y-37562163D01*
X200344363Y-37580998D01*
X200336839Y-37585353D01*
X200153562Y-38040500D01*
X199965441Y-38493545D01*
X199965429Y-38507704D01*
X199960138Y-38520843D01*
X41106202Y-38520843D01*
X40937837Y-38352184D01*
X40919002Y-38344363D01*
X40914647Y-38336839D01*
X40459500Y-38153562D01*
X40006455Y-37965441D01*
X39992296Y-37965429D01*
X39979157Y-37960138D01*
X39488490Y-37964989D01*
X38997969Y-37964561D01*
X38984883Y-37969968D01*
X38970721Y-37970108D01*
X38085353Y-38336839D01*
X38081696Y-38343157D01*
X38065914Y-38349678D01*
X37352184Y-39062163D01*
X37344363Y-39080998D01*
X37336839Y-39085353D01*
X37153562Y-39540500D01*
X36965441Y-39993545D01*
X36965429Y-40007704D01*
X36960138Y-40020843D01*
X35210000Y-40020843D01*
X35210000Y-38069931D01*
X35359107Y-37320318D01*
X35744114Y-36744115D01*
X36320319Y-36359107D01*
X37069931Y-36210000D01*
X259930069Y-36210000D01*
X260679682Y-36359107D01*
M02*
